<svg id="li-five-stars" xmlns="http://www.w3.org/2000/svg" viewBox="0 0 36.9 32">
    <path d="M29.7.7l1.5 2.9 3.3.5-2.4 2.3.5 3.3-2.9-1.5-3 1.5.6-3.3-2.4-2.3 3.3-.5zM7.2.7l1.5 2.9 3.3.5-2.4 2.3.6 3.3-3-1.5-2.9 1.5.5-3.3-2.3-2.3 3.2-.5z"/>
    <path d="M24.9 7.8l1.9 3.9 4.3.6-3.1 3.1.8 4.3-3.9-2.1-3.8 2.1.7-4.3-3.1-3.1 4.3-.6zM12 7.8l1.9 3.9 4.3.6-3.1 3.1.7 4.3-3.8-2.1-3.9 2.1.8-4.3-3.1-3.1 4.3-.6z"/>
    <path d="M18.5 16.5l2.4 4.9 5.4.8-3.9 3.8.9 5.3-4.8-2.5-4.9 2.5.9-5.3-3.9-3.8 5.4-.8z"/>
</svg>
