<svg id="li-air-duct" xmlns="http://www.w3.org/2000/svg" viewBox="0 0 36.9 32">
    <path d="M27.6 20.7v-7c2.8.1 4.5 1.6 4.9 2.4-1.5-2.6-3.1-4.3-4.9-5.2V0H8.5v32h19.1v-7.3l1.2-.9c4.9-4.5 8.2-.5 8.2-.5-3.2-4.5-6-4.5-9.4-2.6zm-2-18.6v8.1c-3.6-.6-7.8 1.5-12.9 5.5-.7.7-1.5 1.2-2.2 1.7v-6.5c.8-.5 1.6-1.1 2.4-1.7 4.9-4.5 8.2-.5 8.2-.5-3.4-5-6.6-4.4-10.5-1.9V2.1h15zm0 27.8h-15v-7.8c3-.7 6.1-2.8 9.7-5.6 2-1.5 3.7-2.3 5.3-2.6V22c-.6.4-1.1.8-1.7 1.3-4.5 3.5-7.5 1.1-8 .3 2.5 4.4 5.7 4.8 9.7 2.5v3.8zM6.9 12.7V9.4C3 11.8.4 9.7 0 9c1.9 3.3 4.2 4.4 6.9 3.7zm0 6.2c-4.2.7-6.7-2.4-6.7-2.4 2.3 3.3 4.5 5 6.7 5.6v-3.2z"/>
</svg>
