<svg id="li-air-blowing-alt" xmlns="http://www.w3.org/2000/svg" viewBox="0 0 33 32">
    <path d="M14.8 11.8H.9c-.4 0-.7.3-.7.7 0 .4.3.7.7.7h13.8c.4 0 .8 0 1.2-.1 1.4-.3 2.5-1.5 2.7-2.9.2-1.5-.5-3-1.8-3.7-1.3-.7-2.9-.6-4 .3-.4.3-.7.7-.3 1.2.4.4.8.3 1.2 0 .1 0 .1-.1.2-.1.7-.5 1.5-.6 2.2-.2.7.4 1.2 1 1.2 1.9 0 1.3-1 2.2-2.5 2.2z"/>
    <path d="M23.3 15.6H.9c-.4 0-.7.3-.7.7.1.4.4.7.8.7h22.4c.4 0 .9 0 1.3-.1 2.2-.4 3.8-2.1 4.2-4.5.3-2-.8-4.2-2.6-5.2-1.9-1.1-4.3-.8-6 .6-.4.3-.7.7-.3 1.2.4.5.8.3 1.2-.1.1-.1.2-.2.4-.3 1.2-.9 2.9-.9 4.2-.1 1.3.8 2 2.4 1.7 3.9-.6 2-2.1 3.2-4.2 3.2z"/>
    <path d="M32.6 8.9c-.6-4-2.8-6.8-6.6-8.2-3.9-1.4-7.4-.7-10.6 2-.7.6-.8 1-.5 1.4.3.4.7.3 1.4-.3C19.4 1 24 .7 27.3 3c3.4 2.3 4.9 6.7 3.4 10.5-1.4 3.6-4.6 5.8-8.7 5.8H.9c-.4 0-.7.3-.7.7 0 .4.3.7.7.7h21.4c6.5 0 11.2-5.4 10.3-11.8zM20.3 23H1c-.4 0-.7.3-.7.7 0 .4.3.7.7.7h19.2c1.4 0 2.6.9 3 2.2.4 1.3-.1 2.6-1.2 3.4-1.2.8-2.6.7-3.7-.2-.4-.3-.8-.5-1.2-.1-.4.3-.2.8.3 1.2 2 1.6 4.7 1.4 6.3-.5 1.2-1.4 1.5-3.1.7-4.8-.9-1.7-2.3-2.6-4.1-2.6z"/>
</svg>