<svg id="li-alarm" xmlns="http://www.w3.org/2000/svg" viewBox="0 0 32 32">
    <path d="M16.6 15.2c0-3.6-2.9-6.4-6.4-6.4s-6.4 2.9-6.4 6.4c0 3.6 2.9 6.4 6.4 6.4s6.4-2.9 6.4-6.4zm-6.4 1.1c-.6 0-1.1-.5-1.1-1.1 0-.6.5-1.1 1.1-1.1.6 0 1.1.5 1.1 1.1 0 .6-.5 1.1-1.1 1.1z"/>
    <path d="M20.3 15.2C20.3 9.6 15.8 5 10.2 5S0 9.6 0 15.2s4.6 10.2 10.2 10.2 10.1-4.6 10.1-10.2zm-17.4 0c0-4 3.2-7.2 7.2-7.2s7.2 3.2 7.2 7.2-3.2 7.2-7.2 7.2c-3.9 0-7.2-3.2-7.2-7.2z"/>
    <path d="M23.1 17.9h-1.6c-.2 0-.4.2-.4.4v3.2c0 .2.2.4.4.4h.2V25l-4.5 1.6v-2.9c-2 1.7-4.5 2.6-7.1 2.6-2.6 0-5.1-.9-7.1-2.6v7.1c0 .7.5 1.2 1.2 1.2H16c.7 0 1.2-.5 1.2-1.2v-3.1l5.6-2v-4h.2c.2 0 .4-.2.4-.4v-3.2c.1-.1-.1-.2-.3-.2zm2.6-2.1l2.5.2c.1 0 .1.1.1.1l-1.4 4.3c0 .1.1.2.2.1l4.9-6.7c.1-.1 0-.2-.1-.2l-2.5-.2c-.1 0-.1-.1-.1-.1L30.7 9c0-.1-.1-.2-.2-.1l-4.9 6.7s0 .2.1.2zm4.2-10l-3-.6c-.1 0-.1-.1-.1-.1L29.1.2c0-.1-.1-.2-.1-.1l-6.7 7.2v.2l3 .6c.1 0 .1.1.1.1L23.1 13c0 .1.1.2.1.1L30 5.9s0-.1-.1-.1z"/>
</svg>
