<svg id="li-bolt-square" xmlns="http://www.w3.org/2000/svg" viewBox="0 0 32 32">
    <path d="M4 31l6-6.3.3-.3v-.1H5.4v-.2c4-3.7 8-7.5 11.9-11.2 0 0 0-.1-.1-.1-2.4-.1-4.9-.2-7.4-.2l.4-.4C14.4 8.1 18.6 4 22.9 0H7.8C3.5 0 0 3.5 0 7.8v16.4c0 2.9 1.6 5.5 4 6.8zm19-20.7v.1h8.1v.1C26 14.3 20.9 18.1 15.8 22h.5c2.1 0 4.1 0 6.2-.1h.2c.1.1.2.1.3.2-.1.1-.1.2-.2.2-.7.4-1.4.7-2.1 1.1-5 2.6-10.1 5.3-15.1 7.9-.1 0-.2.1-.2.1.7.5 1.6.6 2.4.6h16.4c4.3 0 7.8-3.5 7.8-7.8V7.8c0-1.6-.5-3.1-1.3-4.3-2.6 2.3-5.1 4.5-7.7 6.8z"/>
</svg>
