<svg id="li-bolt-generator-simple" xmlns="http://www.w3.org/2000/svg" viewBox="0 0 38.4 32">
    <path d="M19.1 16.5H17c-.3 0-.4-.1-.4-.5.6-2.7 1.3-5.3 1.9-8 .1-.3.2-.4.5-.4h4c.1 0 .4.1.4.2s0 .4-.1.5c-.8 1.5-1.7 3-2.5 4.4-.1.2-.2.3-.3.6h1.8c.6 0 .7.1.4.7-1.5 2.9-4.6 8.9-4.7 9-.1.2-.5.2-.5-.2.3-1.1.5-2.2.8-3.3.3-.8.8-2.8.8-3z"/>
    <path d="M32.4 0H6C2.7 0 0 2.7 0 6v18c0 3.3 2.7 6 6 6h1.9v.6c0 .7.6 1.3 1.3 1.3h2c.7 0 1.3-.6 1.3-1.3V30h13.4v.6c0 .7.6 1.3 1.3 1.3h2c.7 0 1.3-.6 1.3-1.3V30h1.9c3.3 0 6-2.7 6-6V6c0-3.3-2.7-6-6-6zM14.9 25.6c-2.1 0-3.8-1.7-3.8-3.8V8.3c0-2.1 1.7-3.8 3.8-3.8h8.6c2.1 0 3.8 1.7 3.8 3.8v13.5c0 2.1-1.7 3.8-3.8 3.8h-8.6z"/>
</svg>
