<svg id="li-bolt-roof" xmlns="http://www.w3.org/2000/svg" viewBox="0 0 31.8 32">
    <path d="M31.5 14.9c-.2-.3-.5-.6-.8-.9-1.5-1.5-3-3.1-4.6-4.6-.5-.5-1-1-1.5-1.6l-3.6 3c0 .1.1.1.1.2h4.7c-3.7 3-7.2 5.9-10.7 8.8l-.1-.1c.6-1.9 1.2-3.7 1.9-5.8H9c3.9-3.6 7.6-7 11.3-10.5-.9-.9-1.8-1.8-2.7-2.6-1.2-1.2-2.3-1.1-3.5 0-.1.2-.2.3-.4.5l-5 5c0-1.5-.1-3.3-.2-3.4-.6-1.2-3.6-1.2-4.2 0-.1.4-.3.7-.3 1 0 .9.1 4.6.1 7l-1.6 1.6c-.7.7-1.4 1.4-2 2.1-.6.7-.7 1.4-.3 2.2.4.8 1 1.1 1.9 1.1h1.8v11.7c.1 1.5.9 2.4 2.3 2.4h5.7v-9.3c0-.5.1-.7.7-.7h6.7c.5 0 .7.2.6.7v9.4h6c1 0 1.8-.9 1.8-1.9V18.9c0-.6.1-.8.7-.8h1.3c1.8-.2 2.6-1.9 1.8-3.2z"/>
</svg>
