<svg id="li-bolt-car" xmlns="http://www.w3.org/2000/svg" viewBox="0 0 39.4 32">
    <path d="M38.9 13.4c-.2-.7-1-1.5-2-1.5h-1.2c-.2 0-.2 0-.3-.2-.8-2.4-1.7-4.8-2.6-7.1-.1-.3-.3-.6-.4-.9-.3-.9-.9-1.5-1.7-2-1.1-.6-2.4-1-3.6-1.2-2.4-.4-4.8-.5-7.2-.5-1.7 0-3.4.1-5.1.2-1.2.1-2.4.2-3.6.6-1.1.3-2.2.7-3.1 1.4-.6.4-1 1-1.3 1.7-.7 1.8-1.4 3.8-2.1 5.7-.3.7-.5 1.5-.8 2.2 0 .2 0 .2-.2.2H2.4c-.9 0-1.6.7-1.8 1.3-.2.5-.3 1-.5 1.5-.3.7.1 1.2.9 1.2h1.5c-.1.3-.2.5-.2.7-.3.6-.3 1.2-.3 1.8v12c0 .9.6 1.5 1.5 1.5h4.9c.9 0 1.5-.6 1.5-1.5V28h19.7v2.5c0 .9.6 1.5 1.5 1.5h5c.8 0 1.4-.6 1.4-1.4V18.5c0-.7-.1-1.4-.4-2.1 0-.1-.1-.2-.1-.4h1.4c.5 0 .9-.2 1.1-.7v-.4c-.3-.5-.4-1-.6-1.5zm-27.1 7.8c-.1.4-.4.7-.8.8-.3.1-.7.1-1 .1H8.3v.1c-.9-.1-1.8-.1-2.7-.2-.4 0-.7-.2-1.1-.3-.4-.2-.7-.6-.6-1.1v-1.7c.1-.9.5-1.2 1.3-1.2.6 0 1.2.1 1.8.3 1.2.5 2.5 1 3.7 1.6.3.1.5.3.8.5.3.3.4.7.3 1.1zm5.1-7.3c-3-.1-5.9-.4-8.8-1.1l-1.2-.3c.1-.5.2-1 .4-1.5.5-2.1 1.3-4.2 2.1-6.2.1-.2.3-.5.6-.6.6-.4 1.3-.5 2-.7 1.2-.3 2.5-.4 3.7-.4l1.9 5.4-2.6.1 5.1 5.4c-1.1 0-2.1 0-3.2-.1zm5.8 0l-1-2.8 2.7-.2L17 3h4.4c2 0 3.9.1 5.9.5.7.1 1.4.3 2 .6.4.2.6.5.8.9.6 1.8 1.3 3.5 1.8 5.3.2.7.4 1.4.6 2.2-.7.2-1.4.4-2.2.5-1.8.4-3.6.6-5.4.7-.7.1-1.4.2-2.2.2zm12.7 6.8c0 .4-.2.6-.5.8-.4.3-.9.4-1.4.5-.8.1-1.7.1-2.5.2v-.1h-2.1c-.2 0-.4-.1-.7-.1-.8-.3-.9-1.3-.4-1.7.2-.2.5-.4.8-.6 1.3-.7 2.7-1.3 4.1-1.7.5-.2 1-.2 1.5-.2.9 0 1.3.4 1.3 1.2 0 .5 0 1.1-.1 1.7z"/>
</svg>
