<svg id="li-bolt-battery" xmlns="http://www.w3.org/2000/svg" viewBox="0 0 28.9 32">
    <path d="M14.2 16H6.4c0-.1-.1-.2-.1-.2C10.1 12.3 20.6 0 20.7 0c-1.2 2.5-5.4 10.5-6.6 13.2h7.3c0 .1.1.2.1.2C17.8 17.5 10.7 27.9 7 32c0 0 5.9-12.7 7.2-16z"/>
    <path d="M26.6 19.4v3.3c0 .7-.3 1.1-1.1 1.1h-9.4c.7-.8 1.3-1.5 2-2.1.1-.1.4-.1.6-.1h5.6V10.5h-5.9c.3-.8.6-1.4.9-2.1.1-.1.3-.2.5-.2h5.6c.7 0 1.1.4 1.1 1.1v3.3h1.2c.7 0 1.1.3 1.1 1v4.6c0 .7-.4 1-1.1 1-.3.2-.6.2-1.1.2zM2.2 10.5v11.1H9c-.3.7-.5 1.3-.8 1.9-.1.1-.3.2-.5.2H1.2c-.8 0-1.2-.4-1.2-1.2V9.3c0-.7.4-1.2 1.1-1.2h8.8c.1 0 .1 0 .3.1-.7.8-1.4 1.5-2.2 2.1-.2.1-.5.1-.7.1-1.6.1-3.3.1-5.1.1z"/>
</svg>
