<svg xmlns="http://www.w3.org/2000/svg" viewBox="0 0 41.4 32">
    <path d="M25.6 4.9c0 .6-.1 1.1-.1 1.6h-4.8V4.9h-2.8c-1.4 0-2-.6-2-2 0-2.7.2-2.9 2.9-2.9h9.4c1.5 0 2.1.6 2.1 2.1 0 2.5-.3 2.8-2.8 2.8h-1.9zm15.8 8.8c-.7-1-1.6-1-2.5-1-1.7 0-2.3.6-2.3 2.3v2.5h-1.5v-7.4c0-1.6-.6-2.2-2.2-2.2H16.6c-.9 0-1.6.3-2.2.9-1.1 1.2-2.3 2.2-3.4 3.4-.4.4-.8.6-1.3.6H8c-1.2.1-1.7.7-1.7 1.9v2.9H4.8v-2.3c0-2-.5-2.5-2.5-2.5-.9 0-1.7.2-2.3 1v12.5c.8 1.1 3.1 1.5 4.1.7.4-.3.6-1 .7-1.6.1-.9 0-1.8 0-2.8h1.5v2.5c0 1.6.6 2.3 2.2 2.2 1.5-.1 2.6.3 3.5 1.5.8.9 1.7 1.7 2.6 2.6.5.5 1.1.8 1.9.8h10.3c.7 0 1.3-.2 1.8-.7 1.9-1.9 3.7-3.8 5.6-5.6.8-.7 1.2-1.5 1.1-2.6v-.6h1.4v2.6c0 1.5.6 2.1 2.2 2.2 1.5 0 1.9-.1 2.7-.9l-.2-12.9zm-15.8 5.5c-2.3 2.9-4.5 5.7-6.7 8.4-.1 0-.1-.1-.2-.1.8-2.2 1.5-4.3 2.4-6.7h-3.3c1.1-2.2 3.4-6.9 4.3-8.6h4c-1.8 3.3-2.8 5.1-3.9 6.9 1.1.1 2.1.1 3.4.1z"/>
</svg>
