<svg id="li-breaker" xmlns="http://www.w3.org/2000/svg" viewBox="0 0 17.7 32">
    <path d="M17.7 14.5c0-.9-.3-1.7-1-2.3-1.8-1.5-3.5-3.1-5.3-4.5-.5-.4-1.2-.6-1.8-.6C7.5 7 5.4 7 3.3 7 2 7.1.9 7.9.6 9.3c-.2.9-.3 1.8-.6 2.7-.2.8 0 1.5.3 2.2.2.5.5 1 .8 1.5.7 1.2 1 2.2.5 3.7-.6 2-.3 4.1 1 5.9.2.2.2.6.2.9v4.6c0 .9.6 1.4 1.5 1.4h11.8c1 0 1.6-.7 1.6-1.6V14.5zM9.4 29.8c-.6 0-1-.5-.9-1 0-.5.5-.9 1-.9s.9.5.9 1-.5.9-1 .9zM11.6 18c-1.2 1.8-1.3 3.7-.4 5.6.2.4 0 .6-.4.6H6.3c-1.4 0-2-.4-2.3-1.8-.3-1.5-.2-2.9.7-4.2.2-.2.2-.7 0-1-.7-1.4-1.4-2.7-2.1-4-.2-.4-.2-1-.1-1.5.5-2.2.5-2.2 2.7-2.2h3.5c.7 0 .9.2.6.8-.5 1.2-.1 2.1.5 3.2.7 1.2 1.3 2.4 1.9 3.7.1.2.1.6-.1.8z"/>
    <path d="M17.7 1.4c0-.8-.6-1.4-1.4-1.4H4.5C3.3 0 2.9.4 2.9 1.6v3.1c0 .5.2.8.8.8h6.1c1.1 0 2 .4 2.8 1 1 .9 2 1.7 3 2.6.6.5 1.3 1 2 1.6.1-.3.2-.3.2-.4-.1-2.9-.1-5.9-.1-8.9zM9.4 3.8c-.6 0-.9-.4-.9-1 0-.5.5-1 1-1s1 .5.9 1c0 .6-.5 1-1 1z"/>
</svg>
