<svg id="li-bulb-glow" xmlns="http://www.w3.org/2000/svg" viewBox="0 0 38.4 32">
    <path d="M19.5 4c.3 0 .6-.3.6-.6V.6c0-.3-.3-.6-.6-.6s-.6.3-.6.6v2.8c-.1.4.2.6.6.6zm6.6 2.2c.1.1.2.1.4.1s.4-.1.5-.3l1.6-2.3c.2-.3.1-.7-.1-.9-.3-.2-.7-.1-.9.1L26 5.2c-.3.4-.2.8.1 1zm5 5.9l2.6-.9c.3-.1.5-.5.4-.8-.1-.3-.5-.5-.8-.4l-2.6.9c-.3.1-.5.5-.4.8.1.3.3.4.6.4h.2zm2.8 6.9l-2.7-.8c-.3-.1-.7.1-.8.4-.1.3.1.7.4.8l2.7.8h.2c.3 0 .5-.2.6-.5.1-.2-.1-.6-.4-.7zM11.5 6c.1.2.3.3.5.3.1 0 .3 0 .4-.1.3-.2.3-.6.1-.9L10.9 3c-.2-.3-.6-.3-.9-.1-.3.2-.3.6-.1.8L11.5 6zm-3.7 4.9L5.2 10c-.3-.1-.7.1-.8.4-.1.3.1.7.4.8l2.6.9h.2c.3 0 .5-.2.6-.4.1-.3-.1-.7-.4-.8zm-.6 7.4l-2.7.7c-.3.1-.5.4-.4.8.1.3.3.5.6.5h.2l2.7-.8c.3-.1.5-.5.4-.8-.1-.4-.4-.5-.8-.4zm15.3 9.1h-6.8c-.4 0-.8.3-.8.8v.7c0 .4.3.8.8.8h6.8c.4 0 .8-.3.8-.8v-.7c-.1-.5-.4-.8-.8-.8zm-6.6 3c.5 1 1.8 1.6 3.1 1.6 1.4 0 2.6-.6 3.1-1.6l.3-.6h-6.9l.4.6zm1.4-15.8c0-.1 0-.1 0 0 0-.1 0-.1 0 0-.2 0-.3.3-.3.8 0 .3.1.5.3.7.1-.2.2-.4.2-.7.1-.6-.1-.8-.2-.8zm2.7-.1c-.1 0-.1 0 0 0-.1.1-.2.3-.2.8 0 .3.1.5.3.6.1-.2.2-.4.2-.6-.1-.5-.2-.8-.3-.8z"/>
    <path d="M26.7 8.4c-2-2-4.7-3.1-7.6-3.1-2.9 0-5.6 1.1-7.6 3.1S8.3 13.1 8.3 16c0 3.6 3.6 7.7 3.7 7.9l.4.4c.3.3.5.5.6.8l.3.8c.2.8.9 1.3 1.8 1.3h7.7c.9 0 1.6-.5 1.9-1.3l.3-.7c.1-.3.3-.5.6-.8l.4-.4c.2-.2 3.8-4.3 3.8-8 0-2.9-1.1-5.6-3.1-7.6zm-9.8 19l-3.5-11.3c-.1-.1-.1-.3.1-.4.1-.1.3-.1.4.1.5.6 1.9 1.2 2.8.9.1 0 .1 0 .1-.1-.3-.3-.4-.7-.4-1.1 0-.6.2-1.1.5-1.3.2-.1.5-.1.7 0 .3.2.5.7.5 1.3 0 .4-.1.8-.4 1.1.6.3 1.3.3 1.8-.1-.3-.3-.5-.6-.5-1-.1-.7.1-1.2.4-1.4.2-.1.4-.1.7 0 .4.2.6.7.6 1.4 0 .3-.1.7-.3 1 .2.1.4.1.5.2 1.1.3 2 0 2.6-.7.1-.1.3-.2.4-.1.1.1.2.3.1.4l-3.4 11.2m-3.3-.8"/>
</svg>
