<svg id="li-bulb" xmlns="http://www.w3.org/2000/svg" viewBox="0 0 23.9 32">
    <path d="M15.7 26.8H8.3c-.7 0-1.2.3-1.2 1 0 .6.5.9 1.2.9h7.6c.7 0 1.2-.3 1.2-.9-.2-.7-.7-1-1.4-1zm-7.6 3.1c2.5 2.8 5 2.8 7.6 0H8.1zm7.8-6.2H8c-.8 0-1.3.4-1.2 1 .1.6.5.9 1.2.9h7.8c.7 0 1.2-.2 1.2-.9.1-.7-.4-1-1.1-1zM20.6 3C18 .6 14.7-.1 11.1 0 3.6.3-1.2 5.8.3 12.4c.5 2.1 1.6 3.9 2.8 5.7.9 1.3 1.8 2.6 2.4 4h3C7.9 20.4 7 18.9 6 17.3c-1-1.3-2-2.7-2.6-4.2C1.6 8.4 4.1 4 9.2 2.9c1.3-.3 2.7-.3 4.1-.2 5.2.4 8.5 4.4 7.6 9-.4 1.8-1.4 3.4-2.3 5-1 1.6-2 3.1-2.7 4.7-.1.3-.2.5-.3.8h3c.5-1.1 1.1-2.1 1.7-3.1 1.1-1.7 2.3-3.5 3-5.3C24.6 9.8 24 6 20.6 3z"/>
</svg>
