<svg id="li-bulb-home" xmlns="http://www.w3.org/2000/svg" viewBox="0 0 38.4 32">
    <path d="M37.3 15.3C35.9 14.2 22.9 2.4 21.1.8c-1.2-1.1-2.6-1.1-3.9 0-5 4.5-10 9-15.1 13.6-2.1 1.9-2 1.5-.2 3.9.5.7 1 .7 1.6.1.4-.4.8-.7 1.2-1.1v12.2c0 1.9.5 2.5 2.2 2.5h24.7c1.6 0 2.1-.7 2.1-2.5V17.3c.3.3.6.5.8.8 1.1 1 1.2 1 2.1-.2.2-.3.4-.6.7-.9.7-.6.6-1.1 0-1.7zM17 27.8h4.4c-1.5 1.8-2.9 1.8-4.4 0zm4.4-.7h-4.3c-.4 0-.7-.2-.7-.6 0-.4.3-.6.7-.6h4.2c.4 0 .7.2.7.6.1.4-.2.6-.6.6zm.1-2h-4.6c-.4 0-.7-.2-.7-.6 0-.4.2-.6.7-.6h4.6c.4 0 .7.2.7.7-.1.3-.4.5-.7.5zm4.2-9.4c-.4 1.2-1.1 2.3-1.7 3.4-.7 1.2-1.4 2.4-1.4 3.9h-1.7c.2-.8.3-1.7.6-2.4.4-1 1-2 1.6-3 .6-1 1.1-2 1.3-3.2.5-2.9-1.4-5.5-4.4-5.8-.8-.1-1.6 0-2.3.2-2.9.7-4.4 3.6-3.3 6.5.3 1 .9 1.9 1.4 2.8.7 1.3 1.4 2.5 1.7 3.9 0 .3.1.6.1 1H16c-.1-1.7-.9-3-1.8-4.4-.7-1.2-1.3-2.3-1.6-3.7-.8-4.3 1.9-7.8 6.2-8 2.1-.1 4 .4 5.4 1.9 2 1.9 2.3 4.3 1.5 6.9z"/>
</svg>
