<svg id="li-bulb-bolt" xmlns="http://www.w3.org/2000/svg" viewBox="0 0 25.9 33">
    <path d="M22 22.5l-6.6 3.8c-.4.2-.3 1.1-.1 1.5.2.4.9.9 1.3.7l2.2-1.3-2.2 1.9c-.3.3-.4.7 0 1 .3.2.6.2.9 0 .1 0 .1-.1.2-.2l5.3-6c.3-.3.2-.8 0-1.1-.2-.3-.7-.5-1-.3zm2.8 5l-2.2 1.3 1.8-2.5c.3-.3.2-1-.1-1.3-.3-.3-.9-.3-1.2 0l-5.4 5.9c-.3.3-.2.9.1 1.2.2.3.8.5 1.1.3l.6-.3 2 1 3.3-1.9.1-2.2.6-.4c.4-.2.6-.6.4-.9-.3-.5-.7-.5-1.1-.2zM5.4 1.4c-5.2 3-6.9 9.6-4 14.8 1.4 2.5 3.9 3.9 6.3 5.1 5.3 2.6 5 5.8 6.6 4.9l4-2.3 4-2.3c1.6-.9-1.3-2.3-.9-8.2.2-2.7.2-5.5-1.2-8-3-5.1-9.6-6.9-14.8-4zm8.8 13.1L17 22 7.5 12l2.6-.2-2.7-7.7 9.5 10.2-2.7.2z"/>
</svg>
