<svg id="li-bulb-spiral" xmlns="http://www.w3.org/2000/svg" viewBox="0 0 14.8 32">
    <path d="M11.3 27.3l.6-.9-.5-.9.1-.8c-1.2.2-2.6.3-4.1.3-1.5 0-2.9-.1-4.1-.3l.1.8-.5.9.6.9-.5.8.7.9-.4.7 1.1 1v.2s.3.2 1.3.8c.3.2 1 .3 1.7.3s1.3-.1 1.5-.2c1-.6 1.3-.8 1.3-.8v-.2l1.1-1-.3-.7.7-.9-.4-.9z"/>
    <path d="M13.6 17.1c.1-.2.1-.4.1-.7v-1.6c0-.8-.4-1.5-.9-2 1.1-.7 1.6-2 1-3.3-.2-.5-.5-.9-.9-1.1 1-.7 1.4-2 .9-3.2-.3-.7-.8-1.2-1.4-1.4.4-.7.5-1.5.1-2.3-.4-1-1.4-1.6-2.4-1.6-.4.1-.7.2-1.1.3L3.3 2.7c-1.3.6-2 2.1-1.4 3.4.2.4.4.7.8 1-1.3.6-1.9 2.1-1.4 3.4.2.5.5.9.9 1.1-.7.5-1.1 1.3-1.1 2.2v2.8c0 .1 0 .3.1.4H0v3.4c0 2.8 2.3 5.2 5.2 5.2h4.5c2.8 0 5.2-2.3 5.2-5.2V17h-1.3zM3.9 4l5.7-2.5c.6-.3 1.3 0 1.6.6.3.6 0 1.3-.6 1.6L4.8 6.2c-.2.1-.3.1-.5.1-.4 0-.9-.3-1.1-.7-.2-.6.1-1.3.7-1.6zm-.6 4.5l7.6-3.2c.6-.3 1.3 0 1.6.6.3.6 0 1.3-.6 1.6l-7.6 3.2c-.2.1-.3.1-.5.1-.5 0-.9-.3-1.1-.7-.3-.7 0-1.4.6-1.6zm8.5 3.3l-6.9 2.9v2c0 .7-.5 1.2-1.2 1.2s-1.2-.5-1.2-1.2v-2.8c0-.5.3-.9.7-1.1l7.6-3.2c.6-.3 1.3 0 1.6.6.3.6 0 1.3-.6 1.6zm.4 3.1v1.6c0 .7-.5 1.2-1.2 1.2s-1.2-.5-1.2-1.2v-1.6c0-.7.5-1.2 1.2-1.2s1.2.5 1.2 1.2zm.5 5.6c0 1.7-1.4 3.1-3.1 3.1H5.2c-1.7 0-3.1-1.4-3.1-3.1v-1.4h10.7v1.4z"/>
</svg>
