<svg id="li-bulb-bright" xmlns="http://www.w3.org/2000/svg" viewBox="0 0 24.2 32">
    <path d="M4.856 30.553l1.297-5.242 1.748.433-1.298 5.241zM11.2 26.4H13V32h-1.8zm8.899-2.524l1.579-.865 2.45 4.472-1.578.866zM-.008 27.41l2.45-4.473 1.579.865-2.45 4.473zm16.288-1.605l1.748-.433 1.3 5.241-1.747.433zM17.6 12.7l-1.5-6.6H8.4l-1.6 6.6-2.2-.5 1.9-8.4h11.4l2 8.4z"/>
    <path d="M8.9 0h2.3v5H8.9zm4.4 0h2.3v5h-2.3zm-.9 23.7c-1.6 0-7.1-.2-9.5-2.6-.7-.7-1-1.5-1-2.4 0-5.6 4.7-10.1 10.3-10.1h.1c5.7.1 10.3 4.7 10.3 10.3-.1 3.5-5.5 4.8-10.2 4.8zm-.1-12.8c-4.5 0-8.1 3.5-8.1 7.8 0 .2 0 .4.4.8 1.1 1.1 4.3 1.9 7.9 1.9 4.7 0 7.8-1.3 7.9-2.5-.1-4.4-3.7-8-8.1-8z"/>
</svg>
