<svg id="li-cable" xmlns="http://www.w3.org/2000/svg" viewBox="0 0 23.5 32">
    <path d="M374.117 176.397l1.298-5.242 1.747.433-1.298 5.242zm6.383-4.197h1.8v5.6h-1.8zm8.875-2.53l1.578-.865 2.451 4.472-1.578.865zm-20.037 3.614l2.45-4.473 1.579.865-2.45 4.473zm16.222-1.688l1.747-.433 1.3 5.241-1.747.433zm1.34-13.096l-1.5-6.5h-7.7l-1.6 6.5-2.2-.5 1.9-8.3h11.4l1.9 8.3z"/>
    <path d="M378.2 145.9h2.3v5h-2.3zm4.4 0h2.3v5h-2.3zm-.9 23.6c-1.6 0-7.1-.2-9.5-2.6-.7-.7-1-1.5-1-2.4.1-5.6 4.7-10.1 10.3-10.1h.1c5.7.1 10.3 4.7 10.3 10.3-.1 3.6-5.5 4.8-10.2 4.8zm-.1-12.8c-4.5 0-8.1 3.5-8.1 7.8 0 .2 0 .4.4.8 1.1 1.1 4.3 1.9 7.9 1.9 4.7 0 7.8-1.3 7.9-2.5-.1-4.4-3.7-7.9-8.1-8zM17.5 10.5c-.8-.5-1.4-1-2.1-1.5-.4-.3-.7-.6-.6-1.2.1-.7.1-1.4.2-2 0-.5-.1-.6-.6-.5-.7.2-1.4.3-2.1.6-.4.2-.7.1-1-.2-.5-.5-1-1-1.6-1.5 0-.2-.2-.3-.5-.6-.4.8-.7 1.5-1 2.3-.4 1-.4 1-1.5 1-1.1-.1-2.3-.2-3.5-.3-.2 0-.3-.1-.5-.1v-.2c.1-.1.3-.2.4-.2.9-.3 1.7-.5 2.5-.9.4-.1.8-.5 1-.9.6-1.2 1.1-2.5 1.6-3.8.3-.6.3-.7.8-.1.9.9 1.9 1.8 2.8 2.8.3.3.6.4 1.1.3 1.3-.4 2.6-.8 3.9-1.1.5-.1.6.1.6.7-.1 1.2-.2 2.5-.4 3.7-.1.6.1.9.6 1.2 1.1.7 2.1 1.5 3.2 2.3.5.3.5.5 0 .8l-3.3 2.1c-.5.3-.9.7-.9 1.4 0 .8-.2 1.6-.3 2.5 0 .2-.2.3-.3.5-.1-.2-.3-.3-.3-.5-.4-1.4-.7-2.8-1-4.1 0-.2.1-.5.3-.7l1.8-1.2c.2-.2.4-.4.7-.6z"/>
    <path d="M23.5 31.1c-.1-.5-.2-1-.3-1.4-.5-1.9-1.6-3.3-3.5-4.1-2.4-1-4.9-.9-7.4-.2-1.4.4-2.7.9-4.1 1.3-1.2.4-2.4.1-2.8-.8-.3-.6-.4-1.4-.3-2.1.3-2.4 1.3-4.5 2.8-6.4.4-.5.7-1.2 1.6-1.1.2 0 .4-.3.6-.4.3-.3.5-.7.8-1.1.3-.4.4-.9-.1-1.2-.4-.3-.4-.6 0-1 .7-.9 1.5-1.8 2.2-2.7.4-.6.4-.9-.1-1.4-.3-.3-.6-.5-.9-.8-.9-.7-1.3-.6-2 .2-.6.8-1.3 1.6-1.9 2.4-.3.4-.6.6-1 .2-.3-.3-.6-.3-.9 0-.4.5-.9 1-1.3 1.6-.1.1-.1.3-.1.5-.1.3-.1.6-.2.8-1.3 1.5-2.4 3.2-3.1 5C.3 21.1-.4 23.9.4 26.9c.4 1.5 1.2 2.8 2.5 3.7 1.6 1.2 3.5 1.7 5.5 1.3 1.4-.3 2.7-.7 4-1.1 1.5-.5 3-.9 4.6-.6.7.1 1.1.5 1.3 1.2.1.5.4.7.9.7h3.6c.6-.2.8-.4.7-1zM9 11.6c.6-.8 1.3-1.6 1.9-2.4.1-.1.3-.1.4-.1 0 .1.1.3 0 .4-.6.8-1.2 1.6-1.9 2.4 0 .1-.1.1-.3.2 0-.2-.2-.4-.1-.5z"/>
</svg>
