<svg id="li-cables" xmlns="http://www.w3.org/2000/svg" viewBox="0 0 32 32">
    <path d="M25.4 11.8c1.9-1.2 4-1.6 6.2-1.7h.5L31.7 9h-.5c-2.3.1-4.3.2-6.5 1.5-.6.4-1.2.8-1.7 1.2l1 1c.4-.2.9-.5 1.4-.9zm-2.7-.1c.6-.6 1.3-1.2 1.9-1.8 1.9-1.7 3.1-2.5 4.6-3.6l.3-.2-.7-1.1-.3.2c-1.5 1-2.8 1.9-4.8 3.7-.2.2-.5.4-.7.6.4-.5.8-1 1.1-1.5 1.7-2.6 2-4.8 2.2-7.3l.1-.5L25 0v.5c-.2 2.5-.4 4.4-2 6.7-.6.9-1.4 1.8-2.2 2.7l.9.9.1.1.9.8zm-1.2-4c1.4-2.2 1.4-4.1 1.4-6.4V.8h-1.4v.5c0 2.1 0 3.8-1.2 5.7-.3.5-.7 1-1 1.4l1 1c.4-.5.8-1.1 1.2-1.7zm-2.6 5.8L16 10.8c-.5-.4-1.2-.4-1.6 0L.6 24.5c-.8.8-.8 2.2 0 3l4.1 3.9c.9.8 2.2.8 3.1 0l13.8-13.7c.4-.4.4-1.1 0-1.6l-2.7-2.6zm4.7 2.2l.5-.5c.3-.3.3-.7 0-.9l-1.9-1.7-.2-.2-.9-.8-.1-.2-2.4-2.3-.8-.8c-.3-.3-.7-.2-1 0l-.5.5c-.3.3-.3.7 0 .9l6.3 5.9c.3.4.7.4 1 .1z"/>
</svg>
