<svg id="li-cctv" xmlns="http://www.w3.org/2000/svg" viewBox="0 0 32 32">
    <path d="M23.6 16c-.4 1.7-1.3 3.4-2.2 4.6v3.6h.6c.3 0 .6.3.6.7v.3h7.6v-4.6H32V32h-1.8v-4.6h-7.6v.3c0 .4-.3.7-.6.7h-4.9c-.3 0-.6-.3-.6-.7v-2.8c0-.4.3-.7.6-.7h.6V22c-.3 0-.6-.1-.8-.2l6.7-5.8zM0 11.5c.1 1.7 1 3.3 1.4 3.9L1.3 12v-.7l-.5-.1H.6.5.4.3l-.3.3zm14.8 11.1c4.3-3.7 8.7-7.4 13-11.1l.2-.2c.1-.1.1-.2.2-.3 0-.1.1-.2.1-.3v-.4l.1-5-1.6 1.2c0 .7-.1 2.1-.2 2.3 0 .2-.1.4-.2.6l-.3.6c-.1.2-.3.3-.4.4-6.5 5.5-8.5 7.8-8.5 7.8-.4.4-.8.5-1.2.5-.4 0-.7-.2-1.1-.5v3.7c-.1.4-.1.6-.1.7zM1.9 12v-.6l9.4 1.6c.2 0 .4.1.6.3l.6.6c.2.3.3.6.5.9.1.2.1.4.2.5.1.2.2.5.3.7.2.6.5 1.1.8 1.6V22c0 .3 0 .6-.1.8l-.3.6c-.1.2-.3.3-.5.3-.2.1-.4.1-.6 0l-9.2-2.2c-.2 0-.4-.1-.5-.3-.2-.1-.3-.3-.5-.5-.1-.2-.2-.4-.3-.7-.1-.3-.1-.5-.1-.8L1.9 12zm1.9 7.5l8.7 2-.1-7.1-8.8-1.7.2 6.8zM29.9 3.4c0-.3 0-.7-.1-1-.1-.3-.2-.6-.4-.8l-.6-.6c-.2-.2-.5-.3-.7-.3L20.3 0h-.4c-.1 0-.1 0-.2.1-.1 0-.1.1-.2.1L0 10.7c.1 0 .1-.1.2-.1s.1 0 .2-.1h.4l10.5 1.8c.3.1.6.2.9.4.3.2.5.5.7.8.2.3.4.6.5 1 .1.4.3.8.5 1.2.9 2.4 1.8 2.8 2.8 1.9 0 0 2-2.2 8.6-7.8l.3-.3c.1-.1.2-.3.2-.4.1-.1.2-.3.2-.5s.2-2.4.2-2.6l3.7-2.6z"/>
</svg>
