<svg id="li-ceiling-fan" xmlns="http://www.w3.org/2000/svg" viewBox="0 0 33.5 32">
    <path d="M5.4 19c2.2 1.4 5 2.3 8 3.1.4-.3.7-.5 1.1-.7.4-.2.9-.3 1.4-.4v.7c-.9.2-1.5.6-1.5 1.1 0 .7 1 1.2 2.3 1.2 1.3 0 2.3-.5 2.3-1.2 0-.6-.6-1-1.5-1.2V21c1.5.3 1.6.4 2.4 1 2.5-.7 4.8-1.4 6.8-2.4.7-.4 1.4-.8 2-1.3.6-.5.8-1.1.4-1.6-1.2-1.8-5.5-2.3-7.8-.8-1 .7-1.8 1.5-2.5 2.3-.5.7-.9 1.4-1.3 2.1V2.7c1-.3 1.7-1.3 1.7-2.4V0h-5v.3c0 1.1.7 2 1.7 2.4v18.1c-.7-1.4-1.5-2.8-2.9-4.1-.5-.4-1.1-.8-1.7-1.2-.7-.4-1.5-.6-2.5-.6-1.9 0-4.3 1-4.7 2-.3.8.4 1.5 1.3 2.1zm13.1 5.3c-1.1.3-2.1.4-3.3.1-.4.5-.7.9-1 1.3-.9 1.3-1.7 2.7-1.6 4.1 0 1.3 1.2 2.1 3.3 2.2.8 0 1.6 0 2.3-.1 1.7-.2 2.8-.8 3-1.7.1-.7.1-1.4-.1-2.1-.4-1.3-1.4-2.5-2.6-3.8z"/>
    <path d="M13.3 22.4H6.8c-1.6 0-3.3.2-4.7.6-1.6.5-2.3 1.1-2 2.1.1.4.4.7.7 1.1.9 1 2.5 1.4 4.5 1.2 1.1-.1 2.1-.4 3.1-.6 2.3-.7 4.3-1.6 6.2-2.6-1-.5-1.5-1-1.3-1.8zm18 .4c-.5-.1-.9-.2-1.4-.3-2.7-.4-5.5-.4-8.3-.3-.5 0-.9.1-1.4.1-.1 1.1-.1 1.2-1 1.7l.6.3c2.3 1.1 4.7 2.2 7.7 2.7 3.1.6 5.2 0 5.9-1.8.1-.2.1-.4.1-.5.1-.8-.7-1.5-2.2-1.9z"/>
</svg>
