<svg id="li-clock-fast" xmlns="http://www.w3.org/2000/svg" viewBox="0 0 31 32">
    <path d="M9.8 6.8c2.8-1.9 5.9-2.6 9.3-2.7-.1.2-.2.2-.3.3-.2.4-.5.8-.7 1.3-.3.7.2 1.3 1 1.2.4-.1.7-.2 1-.4.7-.5 1-1.1 1-1.9v-.3c3.8.2 6.9-1 9.2-4.1.3 2.1.1 4-.9 5.8-1 1.8-2.5 3-4.2 4.1.4.3.9.2 1.3.2.9-.2 1.7-.7 2.4-1.3.6-.5 1.2-1.1 1.8-1.7 0 .5.1 1 .1 1.5 0 1-.2 2.1-.7 3-.7 1.5-1.9 2.3-3.5 2.5-.4.1-.8.2-1.1.3-.7.3-.8 1.1-.4 1.7.4.7 1.3 1.1 2.1.7.5-.2.9-.5 1.3-.8-.4 3-2 5.6-3.9 8 1.4-4.8.7-9.1-2.5-12.9C19 7.5 14.8 6.1 9.8 6.8z"/>
    <path d="M18.5 16.6c0-.4-.2-.7-.5-.9-.4-.2-.8-.2-1.2.1-1.2.9-2.4 1.7-3.7 2.6-.3.2-.5.4-.9.4-.1 0-.3.1-.4.1-.2.1-.3.1-.5-.1-.8-.6-1.6-1.3-2.5-1.9-.7-.6-1.5-1.2-2.2-1.7-.2-.2-.4-.2-.7 0-.2.1-.3.4-.2.6 0 0 .2.1.3.2 1.5 1.2 3.1 2.4 4.6 3.6.2.1.2.2.2.4-.1.9.4 1.7 1.2 1.8.9.2 1.7-.3 1.9-1.2 0-.2.2-.4.3-.5 1.2-.9 2.5-1.8 3.7-2.6.4-.2.6-.5.6-.9z"/>
    <path d="M18.5 16.6c0 .4-.2.7-.5 1-1.2.9-2.5 1.8-3.7 2.6-.1.1-.3.3-.3.5-.2.9-1 1.4-1.9 1.2-.8-.2-1.4-.9-1.2-1.8 0-.2 0-.3-.2-.4C9.1 18.4 7.5 17.2 6 16l-.3-.3c-.1-.2 0-.5.2-.6.2-.1.4-.1.7 0 .7.6 1.5 1.2 2.2 1.7.8.6 1.7 1.3 2.5 1.9.2.1.3.2.5.1.1-.1.3-.1.4-.1.4.1.7-.2.9-.4 1.2-.9 2.4-1.7 3.7-2.6.4-.3.8-.3 1.2-.1.3.3.5.6.5 1z"/>
    <path d="M24.3 19.9c0 6.6-5.5 12.1-12.1 12.1C5.4 32 0 26.6 0 19.9 0 13.1 5.4 7.7 12.2 7.7c6.6 0 12.1 5.5 12.1 12.2zm-12.2 10c5.5 0 10-4.4 10-9.9 0-5.6-4.4-10.1-9.9-10.1S2.1 14.3 2.1 19.8s4.4 10 10 10.1z"/>
</svg>
