<svg id="li-cogs" xmlns="http://www.w3.org/2000/svg" viewBox="0 0 32 32">
    <path d="M17 23.5l-.7.1c-.2-.5-.4-.9-.7-1.3l.5-.6c.3-.4.2-.9-.1-1.1l-.8-.6c-.3-.3-.9-.2-1.1.1l-.5.6c-.5-.2-.9-.4-1.4-.4l-.1-.7c0-.4-.4-.8-.9-.7l-.9.1c-.4 0-.8.5-.7.9l.1.7c-.5.2-.9.4-1.3.7l-.6-.5c-.3-.3-.9-.2-1.1.1l-.7.8c-.3.4-.2.9.1 1.1l.6.5c-.2.5-.4.9-.4 1.4l-.7.1c-.4 0-.8.5-.7.9l.1.9c0 .2.1.4.3.5.2.1.4.2.6.2l.7-.1c.2.5.4.9.7 1.3l-.5.6c-.3.4-.2.9.1 1.1l.7.6c.4.3.9.2 1.2-.1l.5-.6c.5.2.9.4 1.4.4l.1.7c0 .2.1.4.3.5.2.1.4.2.6.2l.9-.1c.2 0 .4-.1.6-.3.1-.2.2-.4.2-.6l-.1-.7c.5-.2.9-.4 1.3-.7l.6.5c.3.3.9.2 1.1-.1l.6-.7c.3-.4.2-.9-.1-1.1l-.6-.5c.2-.5.4-.9.4-1.4l.7-.1c.2 0 .4-.1.6-.3.1-.2.2-.4.2-.6l-.1-.9c-.1-.5-.5-.8-1-.8zm-3.1 3.9c-.3.4-.7.7-1.1.9-1.1.6-2.5.4-3.5-.4-1.4-1.1-1.6-3.1-.5-4.5.3-.4.7-.7 1.1-.9 1.1-.6 2.5-.4 3.5.4 1.5 1.1 1.7 3.2.5 4.5zM10 12.9l-.6.1c-.2-.4-.4-.7-.7-1l.3-.5c.2-.3.1-.7-.2-.9l-.6-.4c-.3-.2-.7-.1-1 .2l-.3.5c-.4-.1-.8-.2-1.2-.2l-.1-.7c-.1-.3-.5-.6-.9-.5l-.7.2c-.4.1-.6.5-.5.8l.1.6c-.4.2-.7.4-1 .7l-.6-.3c-.3-.2-.7-.1-1 .2l-.4.6c-.2.3-.1.7.2.9l.5.3c-.1.4-.2.8-.2 1.2l-.6.3c-.4.1-.6.5-.5.8l.2.8c0 .2.1.3.3.4.2.1.3.1.5.1l.6-.1c.2.4.4.7.7 1l-.3.5c-.2.3-.1.7.2.9l.6.4c.3.2.7.2 1-.2l.3-.5c.4.1.8.2 1.2.2l.1.6c0 .2.1.3.3.4.2.1.3.1.5.1l.8-.1c.2 0 .3-.1.4-.3.1-.2.1-.3.1-.5l-.1-.6c.4-.2.7-.4 1-.7l.6.3c.3.2.7.1.9-.2l.4-.6c.2-.3.1-.7-.2-.9l-.5-.3c.1-.4.2-.8.2-1.2l.6-.1c.2 0 .3-.1.4-.3.1-.2.1-.3.1-.5l-.2-.7c.1-.6-.3-.8-.7-.8zm-2.2 3.6c-.2.3-.5.6-.8.8-.9.6-2 .6-2.9 0-1.3-.8-1.6-2.5-.8-3.7.2-.3.5-.6.8-.8.9-.6 2-.6 2.9 0 1.2.7 1.6 2.4.8 3.7z"/>
    <path d="M30.8 10.2l-1.2-.2c-.1-.8-.3-1.7-.6-2.4l1-.7c.6-.5.7-1.3.3-1.9l-.9-1.2c-.5-.6-1.4-.8-2-.3l-1 .7c-.7-.5-1.4-1-2.2-1.3l.2-1.2C24.5 1 24 .3 23.3.2L21.7 0c-.7-.1-1.5.4-1.6 1.2L20 2.4c-.8.1-1.7.3-2.4.6l-.7-1c-.5-.6-1.3-.7-1.9-.3l-1.2.9c-.6.5-.7 1.3-.3 1.9l.7 1c-.5.7-1 1.4-1.3 2.2l-1.2-.2c-.7-.1-1.5.4-1.6 1.2l-.2 1.5c-.1.4 0 .7.3 1 .2.3.5.5.9.5l1.2.2c.1.8.3 1.7.6 2.4l-1 .7c-.6.5-.7 1.3-.3 1.9l.9 1.2c.5.6 1.3.7 1.9.3l1-.7c.7.5 1.4 1 2.2 1.3l-.2 1.2c-.1.4 0 .7.3 1 .2.3.5.5.9.5l1.5.2c.4 0 .7 0 1-.3.3-.2.5-.5.5-.9l.2-1.2c.8-.1 1.7-.3 2.4-.6l.7 1c.5.6 1.3.7 1.9.3l1.2-.9c.6-.5.7-1.3.3-1.9l-.7-1c.5-.7 1-1.4 1.3-2.2l1.2.2c.4 0 .7 0 1-.3.3-.2.5-.5.5-.9l.2-1.5c.3-.7-.2-1.4-1-1.5zm-6.6 5.2c-.6.5-1.3.8-2.1 1-2.1.5-4.2-.3-5.5-2-1.8-2.4-1.3-5.8 1.1-7.6.6-.5 1.3-.8 2.1-1 2.1-.5 4.2.3 5.5 2 1.8 2.4 1.3 5.8-1.1 7.6z"/>
</svg>
