<svg id="li-commercial-building" xmlns="http://www.w3.org/2000/svg" viewBox="0 0 32 32">
    <path d="M30 29.5V10.2L13 0 2 6.6v22.8H0V32h32v-2.5h-2zm-2.9-18.8l1.6.9v3.6l-1.6-.7v-3.8zm0 6.6l1.6.6v3.6l-1.6-.5v-3.7zm0 6.6l1.6.3v3.6l-1.6-.2v-3.7zM24.4 9.3l1.9 1v3.8l-1.9-.8v-4zm0 7l1.9.7v3.8l-1.9-.5v-4zm0 7.1l1.9.4v3.8l-1.9-.2v-4zM18.6 6.1L21 7.4v4.3l-2.4-1.1V6.1zm0 8l2.4.9v4.3l-2.4-.7v-4.5zm0 8.1l2.4.5V27l-2.4-.3v-4.5zM14.7 4l2.8 1.5v4.6l-2.8-1.3V4zm0 8.7l2.8 1v4.6l-2.8-.8v-4.8zm0 8.7l2.8.6v4.6l-2.8-.3v-4.9zM8.2 5.7L11.3 4v4.9l-3.2 1.4.1-4.6zm0 8.2l3.2-1.2v4.9l-3.2.9v-4.6zm0 8.1l3.2-.6v4.9l-3.2.3V22zM4.3 7.8L7 6.4v4.5l-2.7 1.2V7.8zm0 7.5l2.7-1v4.5l-2.7.7v-4.2zm0 7.5l2.7-.5v4.5l-2.7.3v-4.3z"/>
</svg>
