<svg id="li-dehumidifier" xmlns="http://www.w3.org/2000/svg" viewBox="0 0 32 32">
    <path d="M13.7 4.5c-.8 0-1.5-.8-1.5-1.7 0-.4.1-.7.3-1 .3-.5.7-1.1 1-1.6.1-.2.3-.2.4 0 .3.5.7 1.1 1 1.6.2.3.3.6.3 1 0 .9-.7 1.7-1.5 1.7zm4.6 0c-.8 0-1.5-.8-1.5-1.7 0-.4.1-.7.3-1 .3-.5.7-1.1 1-1.6.1-.2.3-.2.4 0 .3.5.7 1.1 1 1.6.2.3.3.6.3 1 0 .9-.6 1.7-1.5 1.7zm-7 5.8c-.8 0-1.5-.8-1.5-1.7 0-.4.1-.7.3-1 .3-.5.7-1.1 1-1.6.1-.2.3-.2.4 0 .3.5.7 1.1 1 1.6.2.3.3.6.3 1 .1.9-.6 1.7-1.5 1.7zm4.7 0c-.8 0-1.5-.8-1.5-1.7 0-.4.1-.7.3-1 .3-.5.7-1.1 1-1.6.1-.2.3-.2.4 0 .3.5.7 1.1 1 1.6.2.3.3.6.3 1 0 .9-.7 1.7-1.5 1.7zm4.7 0c-.8 0-1.5-.8-1.5-1.7 0-.4.1-.7.3-1 .3-.5.7-1.1 1-1.6.1-.2.3-.2.4 0 .3.5.7 1.1 1 1.6.2.3.3.6.3 1 0 .9-.7 1.7-1.5 1.7zm7.1 3.4H8.2c-2.3 0-4.2 1.6-4.2 3.6v1.4c-2.3.3-4 2-4 4v.3c0 2 1.7 3.7 4 4v1.4c0 2 1.9 3.6 4.2 3.6h19.6c2.3 0 4.2-1.6 4.2-3.6V17.2c0-1.9-1.9-3.5-4.2-3.5z"/>
</svg>