<svg id="li-drill-jackhammer" xmlns="http://www.w3.org/2000/svg" viewBox="0 0 32 32">
    <path d="M30.9 1.7h-3c-.6 0-1.1.4-1.1 1h-2.9V.9c0-.5-.4-.9-.9-.9H9.1c-.5 0-.9.4-.9.9v1.9H5.3c0-.5-.5-1-1.1-1h-3c-.7-.1-1.2.4-1.2.9v2.1c0 .5.5 1 1.1 1h3c.6 0 1.1-.4 1.1-1h2.9v.8c0 .5.2 1.2.4 1.6l3.2 6v7.3c0 .5.4.9.9.9h1.5v5.8c0 .5.1 1.2.3 1.6l1.2 2.8c.2.4.5.4.6 0l1.1-2.8c.2-.4.3-1.2.3-1.6v-5.8h1.5c.5 0 .9-.4.9-.9v-7.3l3.2-6c.2-.4.4-1.1.4-1.6v-.8h2.9c0 .5.5 1 1.1 1h3c.6 0 1.1-.4 1.1-1V2.7c.3-.5-.2-1-.8-1zM20.2 4.6c0 .6-.5 1.1-1.1 1.1H13c-.6 0-1.1-.5-1.1-1.1v-.9c0-.6.5-1.1 1.1-1.1h6.1c.6 0 1.1.5 1.1 1.1v.9z"/>
</svg>