<svg id="li-ductless" xmlns="http://www.w3.org/2000/svg" viewBox="0 0 31.4 32">
    <path class="st0" d="M16.2 10.3c-.6-.9-1.8-1.2-2.7-.9-.1-.3-.2-.6-.4-.8.6-.2 1.2-.3 1.9-.1.7-.9.7-2.1 0-3-.8-1.1-2.4-1.3-3.5-.5-.9.6-1.2 1.7-.9 2.7-.3.1-.6.2-.8.4-.1-.6-.1-1.3 0-2-.9-.7-2.1-.7-3 0-1.1.8-1.3 2.4-.5 3.5.7.8 1.8 1.1 2.7.8.1.3.2.6.4.8-.6.2-1.3.3-1.9.1-.7.9-.7 2.1 0 3 .8 1.1 2.4 1.3 3.5.5.9-.6 1.2-1.8.9-2.7.3-.1.6-.2.8-.4.2.6.3 1.3.1 1.9.9.7 2.1.7 3 0 1-.7 1.3-2.2.4-3.3zm-5.6.8c-.6-.4-.8-1.2-.5-1.9.4-.6 1.2-.8 1.9-.5.6.4.8 1.2.5 1.9-.4.7-1.3.9-1.9.5z"/>
    <path class="st0" d="M22 0H3.3C1.5 0 0 1.5 0 3.3v13.6c0 1.8 1.5 3.3 3.3 3.3H22c1.8 0 3.3-1.5 3.3-3.3V3.3C25.3 1.5 23.8 0 22 0zM11.4 17.3c-4 0-7.2-3.2-7.2-7.2s3.2-7.2 7.2-7.2 7.2 3.2 7.2 7.2c-.1 4-3.3 7.2-7.2 7.2zm18.8 4h-25c-.7 0-1.2.5-1.2 1.2v8.3c0 .7.5 1.2 1.2 1.2h25.1c.7 0 1.2-.5 1.2-1.2v-8.3c-.1-.6-.6-1.2-1.3-1.2zm0 9.5h-1.8v-1.2H6.9v1.2H5.2v-8.3h25.1v8.3zm-9.5-3.1h-6.1v.8h6.1v-.8z"/>
</svg>
