<svg id="li-air-ductwork" xmlns="http://www.w3.org/2000/svg" viewBox="0 0 33.4 32">
    <path d="M355.6 656.8c.1-1.3.3-2.4.5-3.1.9-3.4 3-6.2 4.6-8.4-3.1 2.8-3.8 2.8-5.7 7.6-1.4-1.5-1.9-4.2.1-7 1.7-2.5 5.6-1.8 8.7-4.9-.6 3.2 0 5.3-.1 6.9-.3 5.4-3.7 6.8-6.3 6.3-.2.8-.4 1.7-.5 2.7 1 .3 2 .9 2.6 1.9.4-.1.7-.2 1.1-.2 1.7 0 3.1 1 3.7 2.5l-5.8 4.2c-.4-1.9-2-1.8-4.3-1.9-2.1 0-2.8 0-3.9-.9l-1.8-1.4v-.1c0-1.4 1.2-2.6 2.6-2.6.4 0 .8.1 1.2.3.9-1.1 2.1-1.8 3.3-1.9zm-10.5 3.3c.9.7 1.8 1.3 2.7 2 3.8 2.8 4.1 2.1 8.6 2.4 1 .1 1.6 1.7 0 2.3-2.5 1-5.1 1.1-8 0-.4 0-2-1.4-2.5-.9-.5.5-.1.9.5 1.2l1.9 1c2.2.7 6.7 1.1 9.1-.6l6.9-4.7c1.3-.9 1.6-1.1 2.6-.1.6.5-.7 2-1.1 2.2l-10.2 6.8c-1.9 1.3-5.4 1.5-6.2 1l-6.3-3.2c-.8-.4-1.5-.5-2.7.3l-1.5 1c-.4.2-4.1-7.9-3.7-8l6.6-2.7c1.4-.5 2.8-.4 3.3 0zM18.1.3c1.5 1 5.9 3.8 8.5 5.5.1.1.3 0 .3-.2V.9c0-.3-.5-.9-.8-.9h-7.9c-.2 0-.3.2-.1.3z"/>
    <path d="M18.1.3c1.5 1 5.9 3.8 8.5 5.5.1.1.3 0 .3-.2V.9c0-.3-.5-.9-.8-.9h-7.9c-.2 0-.3.2-.1.3zM0 9.9V32h33.4V9.9H0zm30.1 19.2H3.3V12.8h26.8v16.3zM7.3 9c-.4 0-.7-.4-.4-.7.8-.9 2.2-2.4 3-3.1.3-.3 1-.3 1.5-.2 4 .8 12.1 2.4 14.8 3 .4.1.5.5.2.7l-.3.3c-.1 0-.2.1-.3.1L7.3 9z"/>
    <path d="M7.3 9c-.4 0-.7-.4-.4-.7.8-.9 2.2-2.4 3-3.1.3-.3 1-.3 1.5-.2 4 .8 12.1 2.4 14.8 3 .4.1.5.5.2.7l-.3.3c-.1 0-.2.1-.3.1L7.3 9zm19-1.6L11.5 4c-.3-.1-.4-.5-.1-.6L16.2 1c.3-.1 1 0 1.3.2 2.5 1.4 7.9 4.5 9.3 5.3.2.1.3.3.1.5l-.2.3c0 .1-.2.1-.4.1z"/>
    <path d="M26.3 7.4L11.5 4c-.3-.1-.4-.5-.1-.6L16.2 1c.3-.1 1 0 1.3.2 2.5 1.4 7.9 4.5 9.3 5.3.2.1.3.3.1.5l-.2.3c0 .1-.2.1-.4.1z"/>
</svg>
