<svg id="li-exit" xmlns="http://www.w3.org/2000/svg" viewBox="0 0 32 32">
    <path d="M0 7.4v19.5l4.8 2.2c3.7 1.7 7.6 2.6 11.6 2.6h.4c3.6-.1 7.1-1 10.3-2.6l4.8-2.3V7.4H0zM29 25l-3.1 1.5c-3.1 1.4-6.2 2.2-9.1 2.3h-.6c-3.4 0-6.8-.8-10.1-2.3L3 25V10.4h26V25zM14.7.3h2.6v7.1h-2.6z"/>
    <path d="M11.8 23.8H8.6V14h3.2v1.1h-1.7v2.5h1.6v1.1h-1.6v3.9h1.7v1.2zm5.7 0h-1.7l-1-3.1-1 3.1h-1.6l1.8-5-1.7-4.8h1.6l1 3 .9-3h1.6l-1.7 5 1.8 4.8zm.6 0V14h1.4v9.8h-1.4zm5 0h-1.4v-8.7h-1.3V14h4v1.2h-1.3v8.6zM7 22.3l-2.1-3.7L7 14.9H5.8l-2.2 3.7 2.2 3.7zm18 0l2.1-3.7-2.1-3.7h1.2l2.2 3.7-2.2 3.7z"/>
</svg>
