<svg id="li-fire-extinguishers" xmlns="http://www.w3.org/2000/svg" viewBox="0 0 32 32">
    <path d="M20.8 4.9h1v1.8h-1zM32 6.3c-1.2-1-2.7-1.5-4.3-1.5H26l-.4-.5c0 .2-.1.3-.2.5-.2.1-.4.2-.6.2h-2v.1h-.4v1.4h1c-.2-.1-.4-.4-.4-.7 0-.4.3-.8.8-.8.4 0 .8.3.8.8 0 .3-.2.6-.4.7h.8V5.4h3.4c1.3 0 2.6.5 3.7 1.3l-.1-.4zm-6.6 1.8V7h-2.9v1.1c.5-.1 1-.1 1.4-.1.5 0 1 0 1.5.1zm-15.1-.5L19 6.5V5l-8.7-.8zm10.1-2.3h-.9v.9h.9zm-.7 10.4h8.5v9.5h-8.5zm7.7-6.5c-1.1-.5-2.3-.8-3.5-.8-1.2 0-2.4.3-3.5.8-.5.2-.8.8-.8 1.3v4.6h8.5v-4.6c.1-.6-.2-1.1-.7-1.3zm-7.7 20.9c0 .6.3 1.1.8 1.4.6.3 1.9.5 3.4.5s2.8-.2 3.4-.5c.5-.3.8-.8.8-1.4v-4.3h-8.5v4.3z"/>
    <path d="M25.1 4.4c.1-.1.2-.3.2-.5v-1l2.9-1.8C29 .6 30 .3 31 .2l-.1-.2c-.9.1-1.8.3-2.6.7l-5.9 3.1v.8h2.2c.2.1.4 0 .5-.2zm-.7-.5c0-.2.1-.3.3-.3.2 0 .3.1.3.3 0 .2-.1.3-.3.3-.2 0-.3-.1-.3-.3zm-.1 1.9c0-.3-.2-.5-.5-.5s-.5.2-.5.5.2.5.5.5c.2 0 .5-.2.5-.5zM8.6 9.9h.8v1.5h-.8zm9.1 1.2c-1-.8-2.2-1.3-3.5-1.3h-1.3l-.3-.4c0 .1-.1.3-.2.4-.2.1-.4.2-.6.2h-1.5l-.1.1v.1h-.3v1.1h.8c-.2-.1-.3-.3-.3-.5 0-.3.3-.6.6-.6s.6.3.6.6c0 .2-.1.4-.3.5h.7v-.9h2.7c1.1 0 2.1.4 3 1.1v-.4zm-5.4 1.5v-.9H9.9v.9c.4-.1.8-.1 1.2-.1.4 0 .8 0 1.2.1zM0 12.1l7.1-.8V10L0 9.4zm8.2-1.8h-.7v.7h.7zm-.6 8.4h6.9v7.8H7.6zm6.3-5.3c-.9-.4-1.9-.7-2.8-.7-1 0-2 .2-2.8.7-.4.2-.6.6-.6 1.1v3.8h6.9v-3.8c0-.5-.3-.9-.7-1.1zM7.6 30.5c0 .5.3.9.7 1.1.5.2 1.5.4 2.8.4 1.3 0 2.3-.1 2.8-.4.4-.2.7-.6.7-1.1V27h-7v3.5z"/>
    <path d="M12.1 9.6c.1-.1.2-.3.2-.4v-.8l2.4-1.5c.7-.4 1.5-.7 2.3-.8l-.2-.1c-.8 0-1.5.2-2.2.6L9.8 9.1v.7h1.8c.2-.1.4-.1.5-.2zm-.6-.5c0-.1.1-.2.2-.2s.2.1.2.2-.1.2-.2.2c-.1.1-.2 0-.2-.2zm-.1 1.6c0-.2-.2-.4-.4-.4s-.4.2-.4.4.2.4.4.4.4-.2.4-.4z"/>
</svg>
