<svg id="li-fan-alt" xmlns="http://www.w3.org/2000/svg" viewBox="0 0 32 32">
    <path d="M32 12.3H21.7c-.3-.5-.6-.9-1-1.2h5.2c1.7-2.8 1.3-6.6-1.1-9l-7.3 7.3c-.5-.1-.9-.1-1.4-.1h-.2l3.7-3.7C18.7 2.4 15.8 0 12.3 0v10.3c-.5.3-.9.6-1.2 1V6.2c-2.8-1.7-6.6-1.3-9 1.1l7.3 7.3c-.1.5-.1.9-.1 1.4v.2l-3.7-3.7c-3.2.8-5.6 3.7-5.6 7.2h10.3c.3.5.6.9 1 1.2H6.2c-1.7 2.8-1.3 6.6 1.1 9l7.3-7.3c.5.1.9.1 1.4.1h.2l-3.7 3.7c.8 3.2 3.7 5.6 7.2 5.6V21.7c.5-.3.9-.6 1.2-1v5.2c2.8 1.7 6.6 1.3 9-1.1l-7.3-7.3c.1-.5.1-.9.1-1.4v-.2l3.7 3.7c3.2-.9 5.6-3.8 5.6-7.3zm-16 8c-2.4 0-4.3-1.9-4.3-4.3s1.9-4.3 4.3-4.3 4.3 1.9 4.3 4.3-1.9 4.3-4.3 4.3z"/>
</svg>
