<svg id="li-fan" xmlns="http://www.w3.org/2000/svg" viewBox="0 0 32 32">
    <path d="M27.8 9.8c-2.7-1.1-5.7-.2-7.5 1.8-.6-.6-1.3-1.1-2-1.4C19.4 9 20.8 8 22.6 7.4c.3-2.9-1.3-5.8-4.1-6.9C15-.9 11.2.8 9.8 4.2c-1.1 2.7-.3 5.6 1.8 7.4-.6.6-1.1 1.3-1.4 2.1C9 12.6 8 11.2 7.4 9.4c-2.9-.3-5.8 1.3-6.9 4.1-1.3 3.4.3 7.2 3.7 8.6 2.7 1.1 5.7.2 7.5-1.9.6.6 1.3 1.1 2.1 1.4-1.1 1.4-2.5 2.4-4.3 3-.3 2.9 1.3 5.8 4.1 6.9 3.4 1.3 7.2-.3 8.6-3.7 1.1-2.7.2-5.7-1.9-7.5.6-.6 1.1-1.3 1.4-2.1 1.3 1.1 2.4 2.5 3 4.3 2.9.3 5.8-1.3 6.9-4.1 1.3-3.4-.4-7.2-3.8-8.6zM16 19.6c-2 0-3.7-1.6-3.7-3.7 0-2 1.6-3.7 3.7-3.7 2 0 3.7 1.6 3.7 3.7S18 19.6 16 19.6z"/>
</svg>
