<svg xmlns="http://www.w3.org/2000/svg" viewBox="0 0 32 32">
    <path d="M16 0C7.2 0 0 7.2 0 16s7.2 16 16 16 16-7.2 16-16S24.8 0 16 0zm0 27.9C9.5 27.9 4.1 22.5 4.1 16S9.5 4.1 16 4.1 27.9 9.5 27.9 16 22.5 27.9 16 27.9z"/>
    <path d="M5.5 15.7c.4-.1.8 0 1.2.2.1-.1.3-.1.5-.2.4-.1.8 0 1.1.2l.6-.4c-.1 0-.1 0-.2.1.2-.1.3-.1.2-.1.6-.2 1.2-.2 1.7 0 .6-.2 1.2-.2 1.6 0 .3-.9 0-1.5 2.8-2.2.6-.2 1-.1 1.4.1.1 0 .2 0 .2-.1.6-.2 1-.1 1.5.1.3-.6.6-1.2 1.2-1.3.4 0 .8.1 1.1.3.2-.1.3-.2.5-.3.5-.1 1 .2 1.4.4.3-.4.6-.9 1.1-1.1.5-.2.8.1 1.2.3.1-.1.3-.2.4-.3.4-.2.7 0 1 .1.1 0 .2-.1.3-.1-1.8-4-5.8-6.8-10.4-6.8C9.7 4.6 4.6 9.7 4.6 16v.2c.2-.2.5-.4.9-.5z"/>
</svg>
