<svg xmlns="http://www.w3.org/2000/svg" viewBox="0 0 32 32">
    <path class="st0" d="M7.1 18.4h.8v-1.2h7.7v1.2h.8v-1.2h7.7v1.2h.8v-1.2h7V15h-1.7l-3.5-6.1H21V0H11v8.9H5.3L1.9 15H.1v2.2h7v1.2zm-3.4-4.6L5.8 10h20.4l2.1 3.8H3.7zm23.6 13.6H4.7L0 32h32z"/>
    <circle class="st0" cx="14.4" cy="23.2" r=".4"/>
    <circle class="st0" cx="16" cy="23.2" r=".4"/>
    <circle class="st0" cx="17.6" cy="23.2" r=".4"/>
    <circle class="st0" cx="14.8" cy="21.8" r=".4"/>
    <circle class="st0" cx="16" cy="21.8" r=".4"/>
    <circle class="st0" cx="17.3" cy="21.8" r=".4"/>
    <circle class="st0" cx="15" cy="20.5" r=".3"/>
    <circle class="st0" cx="16" cy="20.5" r=".3"/>
    <circle class="st0" cx="17" cy="20.5" r=".3"/>
    <circle class="st0" cx="15.2" cy="19.2" r=".2"/>
    <circle class="st0" cx="16" cy="19.2" r=".2"/>
    <circle class="st0" cx="16.8" cy="19.2" r=".2"/>
    <circle class="st0" cx="5.9" cy="23.2" r=".4"/>
    <circle class="st0" cx="7.5" cy="23.2" r=".4"/>
    <circle class="st0" cx="9.1" cy="23.2" r=".4"/>
    <circle class="st0" cx="6.3" cy="21.8" r=".4"/>
    <circle class="st0" cx="7.5" cy="21.8" r=".4"/>
    <circle class="st0" cx="8.8" cy="21.8" r=".4"/>
    <circle class="st0" cx="6.5" cy="20.5" r=".3"/>
    <circle class="st0" cx="7.5" cy="20.5" r=".3"/>
    <circle class="st0" cx="8.6" cy="20.5" r=".3"/>
    <circle class="st0" cx="6.7" cy="19.2" r=".2"/>
    <circle class="st0" cx="7.5" cy="19.2" r=".2"/>
    <circle class="st0" cx="8.4" cy="19.2" r=".2"/>
    <circle class="st0" cx="23" cy="23.2" r=".4"/>
    <circle class="st0" cx="24.6" cy="23.2" r=".4"/>
    <circle class="st0" cx="26.2" cy="23.2" r=".4"/>
    <circle class="st0" cx="23.3" cy="21.8" r=".4"/>
    <circle class="st0" cx="24.6" cy="21.8" r=".4"/>
    <circle class="st0" cx="25.9" cy="21.8" r=".4"/>
    <circle class="st0" cx="23.6" cy="20.5" r=".3"/>
    <circle class="st0" cx="24.6" cy="20.5" r=".3"/>
    <circle class="st0" cx="25.6" cy="20.5" r=".3"/>
    <circle class="st0" cx="23.8" cy="19.2" r=".2"/>
    <circle class="st0" cx="24.6" cy="19.2" r=".2"/>
    <circle class="st0" cx="25.4" cy="19.2" r=".2"/>
</svg>
