<svg id="li-flame" xmlns="http://www.w3.org/2000/svg" viewBox="0 0 32 32">
    <path d="M23.7 29.9c4.8-2.7 6.2-7.9 2.5-11.3 1.2 2.8-.9 5.7-3.9 7h-.1c1.4-1.1 3-2.6 3.4-4.1.8-3.1-.6-4.5-2.8-7.1-1.7-2-4.9-5.1-1.6-6.6-3.2.5-4.4 4.5-2.1 6.3-1.5-.9-3.5-6.2-.8-10.1 1.3-1.9-6.3 6.2-3.6-3.9-4.4 2-3.6 9.5 3 15.5 1.7 1.5 1.1 5.2-2.1 5.2-1 0-2.4-.8-2.5-1.9-.2-1.3.7-2.8 2.4-3.1-5.4 0-7.5 6.9-3.2 8.7-2.6-.7-3.3-3.8-2.5-6 .8-2.3 2.5-5.2.7-7.6-.7-1-2.6-2-4.3-1.8 4.3.9.8 6.2-1.1 8.7-2.7 3.3-1.1 8 2.2 10.9 7.1 6.3 15.4 1.8 16.4 1.2z"/>
</svg>
