<svg id="li-floor-installation" xmlns="http://www.w3.org/2000/svg" viewBox="0 0 32 32">
    <path d="M22.2 26.8l-4.3-4.6 9.2-9.7-3.7-3.9c-.7.8-16.7 17.5-17.2 18l5 5.3h5.2v-5.2c7.7.1 4.5.1 5.8.1zM6.4 11.2l-.8-.9c-.6-.6-1.6-.6-2.2 0l-2.9 3c-.6.6-.6 1.7 0 2.3l.8.9c.3-.3-.3.3 5.1-5.3zm6.9 7.2L11 16l1.1-1.1c.2-.2.2-.6 0-.8-.4-.5-3.2-3.3-3.6-3.7-.2-.2-.6-.2-.8 0-.3.3-5.5 5.7-6.2 6.5l6.6 6.9c.6-.6 4.7-4.9 5.2-5.4z"/>
    <path d="M17.3 27.7V32h14.1v-4.3H17.3zM32 3c-.3-.2-.5-.4-.8-.6-4-4.2-11.6-2.2-14.7 1.1l-6.6 7 2.1 2.2 6.6-7c2.2-2.3 8-3.8 10.6-1.1.8.8 1.7 1.4 2.8 1.8V3z"/>
</svg>
