<svg id="li-garage-opener-keychain" xmlns="http://www.w3.org/2000/svg" viewBox="0 0 32 32">
    <path d="M8.7 7.7c-.8.4-1.5 1.1-2 1.8-.3.4-.1 1 .3 1.3.3.2.6.2.9 0 .1-.1.3-.2.4-.3.3-.4.7-.8 1.3-1.1.5-.3 1.1-.4 1.7-.4.5 0 1-.4 1-.9s-.4-1-.9-1c-.9 0-1.9.2-2.7.6zm3.7-2.3c.3-.1.5-.4.5-.7.1-.5-.3-1-.8-1-1.7-.2-3.5.1-5 .9-1.6.8-2.8 2-3.7 3.5-.3.4-.1 1 .4 1.3.4.2 1 .1 1.2-.4.7-1.2 1.7-2.2 2.9-2.8 1.2-.6 2.6-.9 4-.7.2 0 .4 0 .5-.1z"/>
    <path d="M12.5 2c.2 0 .4 0 .6-.1.3-.1.5-.4.5-.7.1-.5-.3-1-.8-1-2.5-.3-5.1.1-7.3 1.3-2.3 1.2-4.1 3-5.3 5.2-.3.3-.2.9.3 1.1.5.2 1 .1 1.3-.4C2.8 5.5 4.3 4 6.3 3c1.9-1 4-1.3 6.2-1zm17.1 12.9l-1.1-2.1c-.6-1.1-1.9-1.5-3-1l-.7.4c-.5.3-.9.7-1.1 1.3-.2.6-.1 1.2.1 1.7l2.3 4.5c.5.9 1.5 1.4 2.5 1.1l.9 1.7c1.3 2.5.3 5.6-2.2 6.9-2.5 1.3-5.7.3-7-2.2l-1.7.9c1.8 3.4 6.1 4.8 9.5 3 3.5-1.8 4.8-6 3-9.5l-.8-1.6c.8-.7 1-1.8.5-2.7l-.4-.8-1.7.9.4.8c.1.2 0 .4-.2.5l-.6.3c-.2.1-.4 0-.5-.2l-2.3-4.5c-.1-.1 0-.2 0-.3 0-.1.1-.2.2-.2l.7-.4c.2-.1.4 0 .5.2l1.1 2.1 1.6-.8z"/>
    <path d="M22.5 21.3l-3.6-6.9c-.9-1.8-2.6-2.9-4.4-3.2l-1.7.9c-.4-.8-1.4-1.1-2.2-.7-.8.4-1.1 1.4-.7 2.2l-1.7.9c-.8 1.6-.9 3.6 0 5.4l3.6 6.9c.7 1.2 2.2 1.7 3.5 1.1l6.1-3.1c1.3-.8 1.8-2.3 1.1-3.5zm-5.7 2l-3.5-1.2 4.6-2.4-1.1 3.6zM12 19.5l1-3.5 3.5 1.2-4.5 2.3z"/>
</svg>
