<svg id="li-garage-opener" xmlns="http://www.w3.org/2000/svg" viewBox="0 0 32 32">
    <path d="M0 5.2L4 1v30l-4-4.2V5.2zm6.7 10.2h18.5V32H6.7V15.4zm5.4 13.3c0-.5-.4-.9-.9-.9s-.9.4-.9.9.4.9.9.9.9-.4.9-.9zM10.2 21h11.6v-1.5H10.2V21zm0 3.9h11.6v-1.5H10.2v1.5zM28 1v30l4-4.2V5.2L28 1zM6.7 4.6h18.5V0H6.7v4.6zm4.1 5.3c0 2.6-1 3.6-2.4 3.6C6.7 13.5 6 11.9 6 10s.8-3.5 2.4-3.5c1.9.1 2.4 1.9 2.4 3.4zm-3.3.2c0 1.5.3 2.3.9 2.3.6 0 .8-1 .8-2.4 0-1.2-.2-2.3-.8-2.3-.6 0-.9.9-.9 2.4zm4.2-3.3c.6-.1 2.6-.4 3.5.4 1.1.9.9 3.8-1.8 3.8h-.3v2.5h-1.4V6.8zm1.4 3h.2c.7 0 1.1-.5 1.1-1.1 0-1.1-.9-1.2-1.3-1v2.1zm6.7.7h-1.7v1.8H20v1.2h-3.4V6.7h3.2v1.2H18v1.6h1.7v1zm1.2 3V6.7h1.3c.8 1.9 1.6 3.6 1.9 4.7-.2-2.5-.1-2-.1-4.7h1.3v6.8h-1.3c-.9-2-1.6-3.5-1.9-4.6.1 2.1.1 2.4.1 4.6H21z"/>
</svg>
