<svg id="li-garage-car-alt" xmlns="http://www.w3.org/2000/svg" viewBox="0 0 32 32">
    <path d="M4.4 12.8V32h2.5V16h18.2v16h2.5V12.8L16 6.2z"/>
    <path d="M16 0L.5 9.6c-.4.3-.6 1-.5 1.6.2.7.6 1 1.1.7L16 2.7 30.9 12c.4.3.9-.1 1.1-.7.2-.7 0-1.4-.5-1.6M10.8 30.8c0 .7.5 1.2 1.2 1.2.6 0 1.2-.5 1.2-1.2V29h-2.3v1.8zm8.1 0c0 .7.5 1.2 1.2 1.2.6 0 1.2-.5 1.2-1.2V29H19v1.8zm-6.4-10.3h7v2.2h1.1v-3.6h-9.2v3.6h1.1zm-3 3.4v4h13v-4h-13zm2.4 2.8c-.5 0-.8-.4-.8-.9s.4-.9.8-.9c.5 0 .8.4.8.9.1.5-.3.9-.8.9zm2.1.1h-.3V25h.3v1.8zm1.4 0h-.3V25h.3v1.8zm1.4 0h-.3V25h.3v1.8zm1.4 0H18V25h.3v1.8zm1.9-.1c-.5 0-.8-.4-.8-.9s.4-.9.8-.9c.5 0 .8.4.8.9s-.4.9-.8.9z"/>
</svg>
