<svg id="li-garage-with-car" xmlns="http://www.w3.org/2000/svg" viewBox="0 0 32 32">
    <path d="M23.6 23.4l.7-.4c.3-.1.5-.6.3-.9-.1-.2-.2-.3-.4-.4 0 0-.6-.2-1.1-.1-.2 0-.3.1-.4.3l-.2.3-.7-1.9c-.4-1-1.1-1.7-1.9-1.8-2.6-.4-5.3-.4-7.9 0-.8.1-1.5.8-1.9 1.8l-.7 1.9-.2-.3c-.1-.2-.2-.3-.4-.3-.5-.1-1.1.1-1.1.1-.2 0-.3.2-.4.4-.2.4 0 .8.3.9l.7.4c-.8.6-1.2 1.7-1.2 2.9.1 1 .3 2.1.5 2.8v1.6c0 .7.5 1.2 1 1.2h1.6c.6 0 1-.6 1-1.2v-.4l2.7.1h4l2.7-.1v.4c0 .7.5 1.2 1 1.2h1.6c.6 0 1-.6 1-1.2v-1.6c.3-.7.5-1.8.5-2.8.1-1.2-.3-2.4-1.1-2.9zm-12.2 4H9.6c-.3 0-.6-.3-.8-.7v-.2c-.2-.7.2-1.4.7-1.3 0 0 2.3.4 2.5 1.1.2.6-.1 1.1-.6 1.1zm4.8-4.7c-2.5 0-5.1.1-6.4.2l.9-2.3c.3-.8.8-1.3 1.4-1.4 1.3-.2 2.6-.3 3.9-.3 1.3 0 2.6.1 3.9.3.6.1 1.2.6 1.4 1.4l.9 2.3c-1.2 0-3.6-.2-6-.2zm7 3.8v.2c-.1.4-.4.7-.8.7h-1.8c-.4 0-.7-.6-.6-1.1.2-.7 2.5-1.1 2.5-1.1.5-.1.9.7.7 1.3zM5 14.9h22.1v1.2H5z"/>
    <path d="M0 10.9V32h3.9V14.3h1.8v-2.1H8v2.1h16v-2.1h2.3v2.1h1.8V32H32V10.9L16 0z"/>
</svg>
