<svg id="li-globe-americas" xmlns="http://www.w3.org/2000/svg" viewBox="0 0 32 32">
    <path d="M16 0c2.9 0 5.5.7 8 2.2s4.4 3.4 5.8 5.8c1.4 2.5 2.2 5.1 2.2 8s-.7 5.5-2.2 8c-1.4 2.5-3.4 4.4-5.8 5.8-2.5 1.4-5.1 2.2-8 2.2s-5.5-.7-8-2.2c-2.5-1.4-4.4-3.4-5.8-5.8S0 18.9 0 16s.7-5.5 2.2-8S5.5 3.6 8 2.2 13.1 0 16 0zM3.1 16c0 2.3.6 4.5 1.7 6.5s2.7 3.5 4.7 4.7c2 1.2 4.1 1.7 6.5 1.7v-1.7c0-.4-.1-1-.4-1.6-.3-.7-.6-1.2-1.1-1.6-.4-.4-.6-.9-.6-1.5v-2.1c0-.4-.1-.7-.3-1.1-.2-.3-.4-.6-.7-.7-1.4-.7-2.4-1.3-3.2-1.7-.7-.4-1.4-.9-2-1.5l-.1-.1c-.4-.3-.8-.8-1.1-1.3l-2.2-3.3c-.8 1.7-1.2 3.5-1.2 5.3zm15.7 12.6c2.6-.6 4.9-1.8 6.7-3.9s2.9-4.4 3.3-7l-1.9-.5c-.4-.1-.7-.3-.9-.6l-1.2-1.7c-.2-.3-.3-.5-.3-.8s.1-.6.3-.8l1.2-1.9c.2-.2.4-.4.6-.5l.8-.4c-1.1-2.2-2.6-3.9-4.7-5.2s-4.3-2-6.8-2h-.5l2 1.7c.2.2.3.4.3.7 0 .3-.1.5-.3.7l-1 1c-.1.1-.2.3-.2.4 0 .1.1.3.2.4l.3.3c.1.1.2.3.2.4s-.1.1-.3.3l-.5.5c-.1.1-.2.1-.3.1h-.6c-.2 0-.3 0-.4.1l-.6.6c-.2.2-.2.4-.1.6l1 2c.1.2.1.3 0 .5s-.2.3-.5.3h-.4c-.1 0-.2 0-.3-.1l-.6-.5c-.3-.3-.6-.3-1-.2l-2 .6c-.3.1-.5.4-.5.7 0 .3.2.6.5.7l.7.4c.6.3 1.2.5 1.9.5.2 0 .4.1.6.4.1.1.3.4.6.7.4.6.7.9.8 1h4.3c.6 0 1 .2 1.4.6l.9.9c.4.4.6.9.6 1.4 0 .8-.3 1.5-.9 2.1l-.7.7c-.2.2-.3.4-.4.7l-.1.3c-.1.3-.2.6-.3.8l-.9 3zM13.9 3.3c-1.1.2-2.1.5-3 .8l1.5.8c.3.2.7.2 1 0 .3-.2.5-.5.5-.9v-.7z"/>
</svg>
