<svg id="li-hammer" xmlns="http://www.w3.org/2000/svg" viewBox="0 0 32 32">
    <path class="st0" d="M22 6.3L.1 29.2c-.1.2-.1.4 0 .5l2.2 2.1c.2.1.4.1.5 0L24.7 9 22 6.3z"/>
    <path class="st0" d="M31.6 8l-.5-.5c-.4-.4-1-.4-1.4 0l-.3.3-.9-.9.2-.2c.3-.3.3-.7 0-1L25 2.2c-.3-.3-.7-.3-1 0-1.1-1-2.4-2.1-3.9-2.2-1.5-.1-2.9.7-4 1.5-.4.3-.8.7-1.2 1.1l-.4.4c-.1.1-.1.3 0 .4.2.4.7.2 1 .1 1.2-.6 2.7-1 4-.4.8.3 1.3 1 1.9 1.5l.2.2c-.1.3-.1.6.2.8l3.7 3.6c.3.3.7.3 1 0l.1-.2.9.9-.3.3c-.4.4-.4 1 0 1.4l.5.5c.5.5 1.2.4 1.7 0l2.2-2.3c.5-.6.5-1.3 0-1.8"/>
</svg>
