<svg id="li-hand-home" xmlns="http://www.w3.org/2000/svg" viewBox="0 0 31.9 32">
    <path d="M10 19.1c.9.7 1.8 1.4 2.7 2 3.8 2.8 4.1 2.1 8.6 2.4 1 .1 1.6 1.7 0 2.3-2.5 1-5.1 1.1-8.1 0-.4 0-2-1.4-2.5-.9-.5.5-.1.9.5 1.2l1.9 1c2.2.7 6.8 1.1 9.1-.6l6.9-4.8c1.3-.9 1.6-1.1 2.6-.1.6.6-.7 2-1.1 2.2l-10.2 6.8c-1.9 1.3-5.4 1.5-6.2 1l-6.3-3.2c-.8-.4-1.5-.5-2.7.3l-1.5 1c-.4.2-4.1-7.9-3.7-8L6.7 19c1.3-.4 2.7-.3 3.3.1zm21.5-8.6L18.9.2c-.2-.2-.4-.2-.6-.2-.2 0-.5 0-.6.2L5.1 10.5c-.3.3-.4.8-.1 1.1l1.5 1.6c.3.3.9.4 1.2.1l10.6-8.6 10.6 8.6c.3.3.9.3 1.2-.1l1.5-1.6c.2-.4.2-.9-.1-1.1zM13.2.3H9.5v5l3.7-3v-2zM8.6 14.1v3.3c.2 0 .3 0 .5.1.9.1 1.7.5 2.5 1 1.3.9 2.2 1.6 3 2.1.3.3.6.5.9.6v-5.5h5.7v6.5h.2c1.4.1 2 .7 2 1.8l4.6-3.1v-6.7l-8.2-6.8c-.4-.4-1-.5-1.5-.5s-1.1.1-1.5.5l-8.2 6.7z"/>
</svg>
