<svg id="li-hazard-sign" xmlns="http://www.w3.org/2000/svg" viewBox="0 0 32 32">
    <path d="M31.9 30.7L16.8.5c-.3-.7-1.3-.7-1.7 0L.1 30.7c-.3.6.1 1.3.8 1.3h30.2c.7 0 1.1-.7.8-1.3zm-13-3.1h2v.4h-3.8l.4-.4h.1c.4-.4 1.2-1.2 1.6-2.3 1-2.3 0-3.4 0-3.4-.3 1.6-1.6 2-1.6 2 .6-2.5-1-6-1-6 .1 3.7-1 5.4-1 5.4-1.9-1.2-.6-4.4-.6-4.4-1.6 2.6-1.9 5.8-1.9 5.8-1.9-1.2-1.8-2.9-1.8-2.9s-.9 3.7 1.6 5.7h.3l.7.4h-3.8v-.4h2.2c-1.5-.7-3.7-2.2-3.7-5 0-4.1 4.5-5.5 3.8-9.6 0 0 1.6 3.1.6 5.5 0 0 2.9-4.4.6-9.5 0 0 2.3 2.3 3.1 4.2.6 1.9.4 2.6.4 2.6s1.6-3.1 0-5.7c0 0 3.7 3.5 3.1 9.2 0 0 1.3-1.5 1.3-2.8.2.3 4.9 8.3-2.6 11.2z"/>
</svg>
