<svg id="Layer_1" xmlns="http://www.w3.org/2000/svg" viewBox="0 0 28.9 32">
    <path class="st0" d="M3.3 32h3.8l.9-1.8H2.4zm18.4 0h3.9l.9-1.8h-5.7zM24 0H4.8C2.2 0 0 2.2 0 4.8v23.6h28.9V4.8C28.9 2.2 26.7 0 24 0zm-9.6 24.6C8.7 24.6 4 20 4 14.2S8.7 3.9 14.4 3.9s10.4 4.6 10.4 10.4-4.7 10.3-10.4 10.3z"/>
    <path class="st0" d="M19.2 7l-3.1 3.1c0-2.4-1.5-4.4-3.4-4.4V10C11 8.3 8.5 8 7.2 9.3l3.1 3.1c-2.4 0-4.4 1.5-4.4 3.4h4.4c-1.7 1.7-2 4.2-.7 5.5l3.1-3.1c0 2.4 1.5 4.4 3.4 4.4v-4.4c1.7 1.7 4.2 2 5.5.7l-3.1-3.1c2.4 0 4.4-1.5 4.4-3.4h-4.4c1.7-1.6 2-4.1.7-5.4zm-4.9 9.9c-1.5 0-2.7-1.2-2.7-2.7 0-1.5 1.2-2.7 2.7-2.7 1.5 0 2.7 1.2 2.7 2.7 0 1.5-1.2 2.7-2.7 2.7z"/>
</svg>
