<svg xmlns="http://www.w3.org/2000/svg" viewBox="0 0 32 32">
    <path d="M31.6 18.4c-.6.6-1.6.6-2.2 0L16 3.9 2.6 18.4c-.6.7-1.6.7-2.2 0-.6-.6-.6-1.7 0-2.4L14.9.5c.3-.3.7-.5 1.1-.5.4 0 .8.2 1.1.5l14.4 15.6c.6.6.7 1.7.1 2.3z"/>
    <path d="M27 19.1v.2H11.8V32H5.7c-.4 0-.7-.3-.7-.8V19.1c0-.4.2-1 .5-1.3l10-10.9c.3-.3.7-.3 1 0l10 10.9c.3.3.5.9.5 1.3z"/>
    <path d="M16 27.3c0 .3-.2.5-.4.5h-2c-.2 0-.4-.2-.4-.5v-1.9c0-.3.2-.5.4-.5h2c.2 0 .4.2.4.5v1.9zm7.4 0c0 .3-.2.5-.4.5h-5.7c-.2 0-.4-.2-.4-.5v-1.9c0-.3.2-.5.4-.5H23c.2 0 .4.2.4.5v1.9zm-3.7-4.1c0 .3-.2.5-.4.5h-5.7c-.2 0-.4-.2-.4-.5v-1.9c0-.3.2-.5.4-.5h5.7c.2 0 .4.2.4.5v1.9zm7.3 4.1c0 .3-.2.5-.4.5h-2c-.2 0-.4-.2-.4-.5v-1.9c0-.3.2-.5.4-.5h2c.2 0 .4.2.4.5v1.9zm0 4.2c0 .3-.2.5-.4.5h-5.7c-.2 0-.4-.2-.4-.5v-1.9c0-.3.2-.5.4-.5h5.7c.2 0 .4.2.4.5v1.9zm-7.3 0c0 .3-.2.5-.4.5h-5.7c-.2 0-.4-.2-.4-.5v-1.9c0-.3.2-.5.4-.5h5.7c.2 0 .4.2.4.5v1.9zm7.3-8.3c0 .3-.2.5-.4.5h-5.7c-.2 0-.4-.2-.4-.5v-1.9c0-.3.2-.5.4-.5h5.7c.2 0 .4.2.4.5v1.9z"/>
</svg>
