<svg id="li-home-lock" xmlns="http://www.w3.org/2000/svg" viewBox="0 0 32.6 32">
    <path d="M358.1 657.7c.1-1.3.3-2.4.5-3.1.9-3.4 3-6.2 4.6-8.4-3.1 2.8-3.8 2.8-5.7 7.6-1.4-1.5-1.9-4.2.1-7 1.7-2.5 5.6-1.8 8.7-4.9-.6 3.2 0 5.3-.1 6.9-.3 5.4-3.7 6.8-6.3 6.3-.2.8-.4 1.7-.5 2.7 1 .3 2 .9 2.6 1.9.4-.1.7-.2 1.1-.2 1.7 0 3.1 1 3.7 2.5l-5.8 4.2c-.4-1.9-2-1.8-4.3-1.9-2.1 0-2.8 0-3.9-.9L351 662v-.1c0-1.4 1.2-2.6 2.6-2.6.4 0 .8.1 1.2.3.9-1.2 2.1-1.8 3.3-1.9zm-10.5 3.2c.9.7 1.8 1.3 2.7 2 3.8 2.8 4.1 2.1 8.6 2.4 1 .1 1.6 1.7 0 2.3-2.5 1-5.1 1.1-8 0-.4 0-2-1.4-2.5-.9s-.1.9.5 1.2l1.9 1c2.2.7 6.7 1.1 9.1-.6l6.9-4.7c1.3-.9 1.6-1.1 2.6-.1.6.5-.7 2-1.1 2.2l-10.2 6.8c-1.9 1.3-5.4 1.5-6.2 1l-6.3-3.2c-.8-.4-1.5-.5-2.7.3l-1.5 1c-.4.2-4.1-7.9-3.7-8l6.6-2.7c1.3-.5 2.8-.4 3.3 0z"/>
    <path d="M28.4.8H23c-.7 0-1.2.5-1.2 1.2l1 .7 6.9 4.9V2.1c-.1-.7-.6-1.3-1.3-1.3zM14.7 24.4c0 .9.7 1.6 1.6 1.6.9 0 1.6-.7 1.6-1.6V23c.5-.4.8-1.1.8-1.7 0-1.3-1-2.3-2.3-2.3-1.3 0-2.3 1-2.3 2.3 0 .7.3 1.3.7 1.7v1.4zm1.6-4.4c.7 0 1.3.6 1.3 1.3 0 .4-.2.8-.5 1l-.2.2v2c0 .3-.2.5-.5.5s-.5-.2-.5-.5v-2l-.2-.2c-.3-.2-.5-.6-.5-1-.2-.7.4-1.3 1.1-1.3zm0-10.2c-2.1 0-3.7 1.7-3.7 3.7v2.3H20v-2.3c0-2-1.6-3.7-3.7-3.7z"/>
    <path d="M32.3 11.1c0-.2-.1-.3-.2-.4L17.6.4c-.7-.5-1.7-.5-2.5 0L.5 10.7c-.1.1-.2.2-.2.4V15c0 .3.2.5.5.5h1.9v15.2c0 .7.6 1.3 1.3 1.3h24.6c.3 0 .7-.1.9-.4.2-.2.4-.6.4-.9V15.6h1.9c.3 0 .5-.2.5-.5v-4zm-8.9 15.7c0 1.3-1 2.3-2.3 2.3h-9.6c-1.3 0-2.3-1-2.3-2.3V16.4c0-.3.2-.5.5-.5h1.8v-2.3c0-2.6 2.2-4.8 4.8-4.8s4.8 2.2 4.8 4.8v2.3h1.8c.3 0 .5.2.5.5v10.4z"/>
</svg>
