<svg id="li-ideas-light-bulb" xmlns="http://www.w3.org/2000/svg" viewBox="0 0 32 32">
    <path d="M14.2 30.5h3.3c-.1.8-.8 1.5-1.6 1.5s-1.6-.6-1.7-1.5zm-.2-1h4c.9 0 1.6-.6 1.7-1.5h-7.4c.1.8.8 1.5 1.7 1.5zm5.9-5.3H12c-.3-1-.9-1.9-1.7-2.6-1.7-1.5-2.7-3.7-2.6-6.2.3-4 3.6-7.4 7.7-7.7 4.8-.3 8.8 3.4 8.8 8 0 2.4-1 4.5-2.7 6-.7.7-1.3 1.6-1.6 2.5zM18.7 9.9c-.8-.4-1.7-.6-2.7-.6h-.5c-3.3.2-5.9 2.9-6.1 6.2 0 1 .2 2 .6 2.9v-.7c.2-4.1 3.5-7.4 7.6-7.7.4-.1.7-.1 1.1-.1zm-6.4 16v.9h7.4v-1.4h-7.4v.5zm18.8-9.3c.5 0 .9-.4.9-.9s-.4-.9-.9-.9H28c-.5 0-.9.4-.9.9s.4.9.9.9h3.1zM4 16.6c.5 0 .9-.4.9-.9s-.4-.9-.9-.9H.9c-.5 0-.9.4-.9.9s.4.9.9.9H4zm20.5-8.3c.2 0 .5-.1.6-.3l2-2c.4-.3.4-.9 0-1.3-.2-.2-.4-.3-.6-.3-.2 0-.5.1-.6.3l-2 2c-.2.2-.3.4-.3.6 0 .2.1.5.3.6.1.3.4.4.6.4zm-17 0c.2 0 .5-.1.6-.3.2-.2.3-.4.3-.6 0-.2-.1-.5-.3-.6l-2-2c-.1-.2-.3-.3-.6-.3-.2 0-.5.1-.6.3-.4.3-.4.9 0 1.3l2 2c.1.1.4.2.6.2zM16 4.8c.5 0 .9-.4.9-.9v-3c0-.5-.4-.9-.9-.9s-.9.4-.9.9v3c0 .5.4.9.9.9z"/>
</svg>
