<svg id="li-insulation-spiral" xmlns="http://www.w3.org/2000/svg" viewBox="0 0 32.6 32">
    <path d="M358.1 657.7c.1-1.3.3-2.4.5-3.1.9-3.4 3-6.2 4.6-8.4-3.1 2.8-3.8 2.8-5.7 7.6-1.4-1.5-1.9-4.2.1-7 1.7-2.5 5.6-1.8 8.7-4.9-.6 3.2 0 5.3-.1 6.9-.3 5.4-3.7 6.8-6.3 6.3-.2.8-.4 1.7-.5 2.7 1 .3 2 .9 2.6 1.9.4-.1.7-.2 1.1-.2 1.7 0 3.1 1 3.7 2.5l-5.8 4.2c-.4-1.9-2-1.8-4.3-1.9-2.1 0-2.8 0-3.9-.9L351 662v-.1c0-1.4 1.2-2.6 2.6-2.6.4 0 .8.1 1.2.3.9-1.2 2.1-1.8 3.3-1.9zm-10.5 3.2c.9.7 1.8 1.3 2.7 2 3.8 2.8 4.1 2.1 8.6 2.4 1 .1 1.6 1.7 0 2.3-2.5 1-5.1 1.1-8 0-.4 0-2-1.4-2.5-.9-.5.5-.1.9.5 1.2l1.9 1c2.2.7 6.7 1.1 9.1-.6l6.9-4.7c1.3-.9 1.6-1.1 2.6-.1.6.5-.7 2-1.1 2.2l-10.2 6.8c-1.9 1.3-5.4 1.5-6.2 1l-6.3-3.2c-.8-.4-1.5-.5-2.7.3l-1.5 1c-.4.2-4.1-7.9-3.7-8l6.6-2.7c1.3-.5 2.8-.4 3.3 0zM31.2 32H16C7.2 32 0 24.8 0 16S7.2 0 16 0c7.8 0 14.1 6.3 14.1 14.1S23.8 28.2 16 28.2C9.3 28.2 3.8 22.7 3.8 16 3.8 9.2 9.3 3.8 16 3.8c5.7 0 10.3 4.6 10.3 10.3 0 5.7-4.6 10.3-10.3 10.3-4.6 0-8.4-3.8-8.4-8.4 0-4.6 3.8-8.4 8.4-8.4 3.6 0 6.5 2.9 6.5 6.5s-2.9 6.5-6.5 6.5c-2.5 0-4.6-2.1-4.6-4.6s2.1-4.6 4.6-4.6c.8 0 1.4.6 1.4 1.4s-.6 1.4-1.4 1.4c-1 0-1.7.8-1.7 1.7s.8 1.7 1.7 1.7c2 0 3.6-1.6 3.6-3.6S18 10.4 16 10.4c-3 0-5.5 2.5-5.5 5.5s2.5 5.5 5.5 5.5c4.1 0 7.4-3.3 7.4-7.4 0-4.1-3.3-7.4-7.4-7.4-5.1 0-9.3 4.2-9.3 9.3 0 5.1 4.2 9.3 9.3 9.3 6.2 0 11.2-5 11.2-11.2 0-6.2-5-11.2-11.2-11.2-7.2.1-13.1 6-13.1 13.2 0 7.2 5.9 13.1 13.1 13.1h15.2c.8 0 1.4.6 1.4 1.4 0 .9-.6 1.5-1.4 1.5z"/>
</svg>
