<svg id="li-insulation-spray" xmlns="http://www.w3.org/2000/svg" viewBox="0 0 32 32">
    <path d="M353.6 656.9c.1-1.3.3-2.4.5-3.1.9-3.4 3-6.2 4.6-8.4-3.1 2.8-3.8 2.8-5.7 7.6-1.4-1.5-1.9-4.2.1-7 1.7-2.5 5.6-1.8 8.7-4.9-.6 3.2 0 5.3-.1 6.9-.3 5.4-3.7 6.8-6.3 6.3-.2.8-.4 1.7-.5 2.7 1 .3 2 .9 2.6 1.9.4-.1.7-.2 1.1-.2 1.7 0 3.1 1 3.7 2.5l-5.8 4.2c-.4-1.9-2-1.8-4.3-1.9-2.1 0-2.8 0-3.9-.9l-1.8-1.4v-.1c0-1.4 1.2-2.6 2.6-2.6.4 0 .8.1 1.2.3.9-1.1 2.1-1.8 3.3-1.9zm-10.5 3.3c.9.7 1.8 1.3 2.7 2 3.8 2.8 4.1 2.1 8.6 2.4 1 .1 1.6 1.7 0 2.3-2.5 1-5.1 1.1-8 0-.4 0-2-1.4-2.5-.9-.5.5-.1.9.5 1.2l1.9 1c2.2.7 6.7 1.1 9.1-.6l6.9-4.7c1.3-.9 1.6-1.1 2.6-.1.6.5-.7 2-1.1 2.2l-10.2 6.8c-1.9 1.3-5.4 1.5-6.2 1l-6.3-3.2c-.8-.4-1.5-.5-2.7.3l-1.5 1c-.4.2-4.1-7.9-3.7-8l6.6-2.7c1.3-.5 2.8-.4 3.3 0zM31.3 0h-4.7c-.2 0-.4.1-.5.2-1.2 1.3-2 3.4-2 5.6 0 1.9.5 3.7 1.5 5.1-.9 1.3-1.5 3.1-1.5 5.1 0 1.9.5 3.7 1.5 5.1-.9 1.3-1.5 3.1-1.5 5.1 0 2.2.7 4.3 2 5.6.1.1.3.2.5.2h4.7c.4 0 .7-.3.7-.7V.7c0-.4-.3-.7-.7-.7zM17.8 6.1h-1.1V4.5c0-.4-.3-.7-.7-.7H3.1C1.4 3.8 0 5.1 0 6.8c0 1.6 1.2 2.9 2.8 3v10.5H1.7c-.4 0-.7.3-.7.7v4.7c0 .4.3.7.7.7h1.8v4.8c0 .4.3.7.7.7.4.1.8.1.8.1h3.7c.4 0 .7-.3.7-.7v-4.8h1.8c.4 0 .7-.3.7-.7v-4.7c0-.4-.3-.7-.7-.7h-1.1V9.9h2.3c.1 4.1 1.9 7.5 3.5 9.4.1.2.3.3.6.3.2 0 .3-.1.5-.2.3-.3.3-.7.1-1-1.4-1.6-3-4.8-3.1-8.5h2c.4 0 .7-.3.7-.7V7.5h1.1c.4 0 .7-.3.7-.7 0-.4-.3-.7-.7-.7z"/>
</svg>
