<svg id="li-irrigation-sprinkler" xmlns="http://www.w3.org/2000/svg" viewBox="0 0 32 32">
    <path d="M13.4 32h5.2V14.8h-5.2V32zm-1-21.9v4.3h7.2v-4.3h-7.2zm5-.2V3.7h-2.8v6.2h2.8zm1-8.1h-4.7v1.7h4.7V1.8z"/>
    <path d="M26.4 4.5v.2l-.1.1-.1.2-.2.2-.2.1-.2.1-.4.2-.4.1-1.8.2-1.7.1-.9.1h-.5l-.2-.1h-.2v-.2h.1l.1-.1.2-.1.4-.2.8-.3 1.8-.6 1.7-.5.4-.1h.7l.2.1.2.1.1.1.1.1.1.1zM25.7.3v.4l-.1.2-.2.3-.2.3-.2.2-.5.3-.5.2-2 1-1.9.9-1.1.4-.5.2-.2.1H18v-.2l.1-.1.3-.2.4-.4.9-.7 1.9-1.3L23.4.6l.5-.3.5-.2.3-.1h.6l.1.1h.1l.1.1v.1zm6.3.6v.4l-.1.2-.2.3-.1.1-.2.1-.4.2-.3.1-1.5.1-1.5.2h-1.2l-.2-.1h-.1v-.1h-.1v-.2h.1l.1-.1.1-.1.4-.2.7-.4 1.4-.6 1.5-.5.3-.1h.6l.2.1.2.1.1.1.1.2.1.1v.1zM5.6 4.5v-.1l.1-.1.1-.1.1-.1.2-.1.2-.1H7l.4.1 1.7.5 1.8.6.8.3.4.2.2.1.1.1h.1V6h-.2l-.2.1h-.5l-.9-.1L9 5.9l-1.8-.2-.4-.1-.4-.2-.2-.1-.2-.1-.2-.2-.1-.2-.1-.1v-.2zM6.3.3h.1V.2l.1-.1h.1l.1-.1h.6l.3.1.5.2.5.3 1.8 1.3 1.9 1.3.9.7.4.4.3.2.1.1v.2h-.3l-.2-.1-.5-.2-1.1-.4-1.9-.9-2-1-.5-.2-.5-.3-.2-.2-.2-.3-.2-.3-.1-.2V.4zM0 .9V.8L.1.7.2.5.3.4.5.3.7.2h.6l.3.1 1.5.5 1.4.6.7.4.4.2.1.1.1.1h.1v.2h-.1v.1h-.1l-.2.1H4.3l-1.5-.2-1.5-.1-.3-.1L.6 2l-.2-.1-.1-.1-.2-.3-.1-.2V1zM20.8 32v-.8c0-.5.1-2.1.2-2.6 0-.2.1-1.4.1-1.6 0-.2.1-1.9.1-2.1 0-.1.1-.2.1-.3.1-.2.1-.4.2-.6.1-.2.1-.4.2-.6l.6-1.2c.2-.4.5-.8.8-1.2.1-.1.2-.2.3-.4.1-.2.3-.3.4-.5l.2-.2c.1-.1.2-.2.3-.2.2-.1.3-.3.5-.4l.3-.3c.3-.2.5-.4.8-.5.2-.1.4-.2.5-.3.2-.1.5-.2.8-.4.6-.3 1.2-.5 1.9-.6.2 0 .4-.1.6-.1.1 0 .3 0 .4-.1h.5l-.1.1c-.1.1-.2.1-.3.2-.3.2-.6.4-.8.5-.3.2-.7.5-1 .7-.2.1-.3.2-.5.4-.1.1-.3.2-.4.3-.1.1-.3.2-.4.3l-.4.4-.4.4-.3.3c-.5.5-.9 1.1-1.3 1.6-.6 1-1.1 3.6-1.4 4.7-.3 1-.4 4.2-.4 5.2l-2.1-.1zm-8.4 0v-1.2c0-.7-.1-5.1-.2-5.8-.1-.4-.1-.8-.2-1.2 0-.2-.1-.4-.2-.6 0-.1-.1-.2-.1-.3 0-.1 0-.1-.1-.2 0-.1-.1-.2-.1-.4-.1-.3-.2-.7-.4-1-.1-.3-.2-.5-.3-.7-.1-.3-.3-.6-.4-.8-.2-.4-.5-.8-.7-1.2-.6-.8-1.2-1.6-1.9-2.3l-.6-.6c-.1-.1-.2-.2-.4-.3-.1-.1-.3-.2-.4-.4-.3-.3-.6-.5-1-.7-.1-.1-.2-.3-.4-.4-.1 0-.1-.1-.2-.1 0 0-.1 0-.1-.1h.1c.1 0 .1 0 .2.1.2.1.4.1.6.2.6.2 1.2.4 1.7.7.3.1.5.3.8.4.3.2.6.4.8.6.1 0 .1.1.2.1.1.1.3.2.4.3l.3.3.3.3.8.8c.2.2.4.5.6.7.2.3.4.5.6.8.2.3.3.5.5.8.1.2.2.3.2.5.1.3.2.5.3.8.1.3.2.6.3.8 0 .1.1.3.1.4 0 .1.1.2.1.3.1.2.1.4.2.6 0 .1.1.3.1.4 0 .1 0 .2.1.3 0 .2.1.3.1.5.1.5.1 3.6.2 4.1 0 .4.1 1.8.1 2.1V32h-2z"/>
    <path d="M9.3 32v-.8c0-.8-.2-3.6-.3-4.4-.1-.6-.3-2.7-.6-3.2-.2-.3-.4-.6-.5-.9-.1-.1-.2-.3-.2-.4 0-.1-.1-.2-.2-.2-.1-.1-.1-.2-.2-.3-.1-.2-.3-.3-.4-.5-.1-.2-.3-.3-.4-.5l-.3-.3-.9-.9c-.3-.3-.6-.5-.9-.8-.1-.1-.3-.2-.4-.3-.1-.1-.3-.2-.4-.3-.1-.1-.3-.2-.4-.3-.3-.2-.7-.4-1-.6-.2-.1-.3-.2-.5-.3-.1 0-.1-.1-.2-.1 0 0-.1 0-.1-.1h.3c.2 0 .4.1.6.1.3 0 .5.1.8.2.1 0 .3.1.4.1.2.1.4.1.6.2.5.2 1 .4 1.5.7.3.2.6.3.9.5.1.1.2.1.3.2.1.1.2.2.3.2l.3.3c.2.2.4.3.6.5.6.6 1.2 1.4 1.7 2.1.3.4.5.9.7 1.4.1.2.1.4.2.5 0 .1 0 .1.1.2 0 .1.1.2.1.3.1.2.1 2 .2 2.2v.2c.1.3.1 2.7.1 2.9 0 .2 0 .3.1.5 0 .2 0 .5.1.7v1l-2 .2zm8.4 0v-1.2c0-.8.1-5.3.3-6.1.1-.6.2-1.2.4-1.8 0-.2.1-.3.2-.5s.1-.3.2-.5.1-.4.2-.5c.1-.2.2-.5.3-.7l.3-.6c.1-.2.2-.3.2-.5.1-.2.2-.3.3-.5.1-.2.3-.4.4-.7.3-.4.5-.7.8-1.1l.6-.6c.1-.1.3-.3.5-.4.1-.1.3-.2.4-.3.2-.2.4-.3.6-.4.3-.2.5-.4.8-.5.1-.1.2-.1.3-.2.1-.1.2-.1.4-.2.1-.1.3-.1.4-.2.3-.1.6-.3.9-.4.3-.1.5-.2.8-.3.1 0 .2-.1.3-.1-.1.2-.2.3-.3.3-.3.2-.6.4-.8.6-.3.3-.7.5-1 .8-.2.1-.3.3-.5.4l-.3.3-.5.5c-.1.1-.2.2-.2.3-.2.2-.3.4-.5.6-.5.6-1 1.3-1.4 2.1-.3.5-.5 1-.8 1.6-.3.8-.6 1.6-.8 2.5-.4 1.6-.5 6.8-.5 8.4l-2-.1z"/>
</svg>
