<svg id="landscape-light-directional" xmlns="http://www.w3.org/2000/svg" viewBox="0 0 26.5 32">
    <path d="M19.5 17.7L13.4 21c-3.9 2.1-9.2 1.2-11.8-2l-.2-.2c-2.6-3.2-1.5-7.5 2.4-9.7l6.1-3.3c.4-.2.9-.1 1 .3.4 1.1 1.4 3.4 3.4 5.8s4.2 4.1 5.3 4.9c.3.2.2.7-.1.9z"/>
    <path d="M12 22.3c-.4.1-.7.2-1.1.3-1.5.3-3 .3-4.5-.1-.4-.2-.8-.4-1.2-.5-.2 0-.5 0-.7.1-.1.1-.1.4-.1.5.6 1.6 2.3 2.7 4.1 2.8 1.9 0 3.5-1 4.3-2.4.1-.2.1-.5-.1-.6-.1-.2-.4-.2-.7-.1zM22 .5c-1-.8-.9-.6-1.8-.1-2.5 1.4-5 2.7-7.5 4-.7.4-.9.7-.7 1.3.5 1.2.9 2.4 1.6 3.4 1.1 1.6 2.4 3.2 3.7 4.6.9.9 2 1.7 3.1 2.6.4.3.8.4 1.4.1.8-.5 1.6-1 2.5-1.3 1.5-.6 2.3-1.5 2.1-2.8 0-.6.1-1.1 0-1.7-.4-2.4-.9-4.7-2.1-6.9-.6-1.1-1.2-2.3-2.3-3.2zm2.3 6.9c1 3.5 1 6.6-.1 6.8-1.1.3-2.7-2.4-3.7-5.9-1-3.5-1-6.6.1-6.8 1-.3 2.7 2.4 3.7 5.9zM10.5 32H6.7c-.1 0-.2-.1-.2-.2v-6c0-.1.1-.2.2-.2h3.8c.1 0 .2.1.2.2v6c-.1.1-.1.2-.2.2z"/>
</svg>
