<svg id="li-landscape-light" xmlns="http://www.w3.org/2000/svg" viewBox="0 0 29.1 32">
    <path d="M28.9 15.1l-4.1-2.2V8.6c1.4-.1 2.5-.3 3.3-.4.4-.1.5-.5.2-.7l-4.9-2.6V3l-8.5-3c-.5 0-.9 0-1.3.1L5.8 3v1.8L.9 7.5c-.3.2-.2.7.2.7.7.2 1.9.3 3.3.4v4.2L.3 15c-.4.2-.3.7.2.7.9.1 2.3.3 4 .5V19l-2.2 1.1c-.3.1-.2.4.1.4.8.1 2 .2 3.5.3v1.4l6.2 2.2V32h5.1v-7.5l6.2-2.4v-1.4c1.5-.1 2.7-.2 3.5-.2.4 0 .5-.3.2-.4L24.8 19v-2.8c1.7-.2 3-.3 4-.4.4 0 .5-.5.1-.7zM14.1 9.2c3.1 0 6.2-.2 8.7-.4v2.3H6.3V8.8c2.3.2 5 .4 7.8.4zm8.7 9.3H6.3v-2c2.3.2 5 .3 7.7.3 3.1 0 6.1-.2 8.8-.4v2.1z"/>
</svg>
