<svg id="li-leaves-alt" xmlns="http://www.w3.org/2000/svg" viewBox="0 0 31.4 32">
    <path d="M4.2 12.3h.3C6.1 13.6 7.7 15 9 16.7c1.4 1.8 2.4 3.9 2.6 6.2.2 2.1-.5 3.8-2 5.2-.9.9-1.9 1.4-3 1.9-.7.3-.9.8-.7 1.4.2.6.8.8 1.5.5 2.2-.9 4-2.2 5.2-4.3 0-.1.2-.2.3-.2 1.7.3 3.4 0 5-.5.3-.1.5-.1.7.1 2.5 1.7 6 .6 7-2.2.2-.5.3-1 .5-1.4.4-1.1 1.1-2 2.1-2.7 1-.6 2-.9 3.1-1 .2 0 .4-.1.4-.2.1-.1 0-.3-.1-.4-.3-.3-.6-.6-.9-.8-1.5-1.1-3.1-1.6-4.9-1.7-2.7-.2-5.1.4-7.2 2.1-1 .8-1.8 1.8-2.2 3-.2.6-.3 1.2-.1 1.9.7-.2 1.3-.3 1.9-.6 1.9-.7 3.6-1.7 5.4-2.7.1-.1.2-.1.4-.2l.1.1c-.1.1-.2.3-.3.4-1.9 2.4-4.4 3.9-7.4 4.7-1 .3-1.9.4-2.9.2v-.3c.2-1.1.3-2.2 0-3.2-.2-.8 0-1.2.6-1.7 1.6-1.4 2.3-3.3 2-5.4-.3-1.9-1.2-3.5-2.7-4.7-.9-.8-2-1.4-3-2-1-.6-2-1.1-2.9-1.9C5.6 4.7 4.7 2.7 4.3.5 4.3.3 4.1 0 4 0c-.2 0-.5.1-.6.3-.4.4-.7.8-1 1.3C.3 4.6-.6 8-.4 11.7c.1 2.6.8 4.9 2.3 7.1 1.2 1.8 2.8 3.1 4.9 3.6.9.2 1.9.3 2.8.1v-.3c-.2-1.5-.6-2.9-1.4-4.2-1.1-1.9-2.5-3.6-3.9-5.3 0-.2-.1-.3-.1-.4z"/>
    <path d="M4.2 12.3c.1.1.1.2.2.3 1.4 1.7 2.8 3.4 3.9 5.3.7 1.3 1.1 2.7 1.3 4.2v.3c-.9.2-1.9.2-2.8-.1-2.1-.6-3.7-1.9-4.9-3.6-1.5-2.1-2.2-4.5-2.3-7.1-.2-3.7.7-7 2.8-10.1.3-.4.7-.9 1-1.3.1-.1.4-.2.5-.2.1 0 .3.3.3.5.4 2.2 1.4 4.2 3.1 5.6.9.8 2 1.3 3 1.9 1 .7 2.1 1.3 3 2 1.5 1.2 2.4 2.8 2.7 4.7.4 2.2-.4 4-2 5.4-.6.5-.8 1-.6 1.7.3 1.1.2 2.2 0 3.2v.3c1 .2 2 .1 2.9-.2 3-.8 5.4-2.3 7.4-4.7.1-.1.2-.3.3-.4l-.1-.1c-.1.1-.2.1-.4.2-1.7 1.1-3.5 2.1-5.4 2.7-.6.2-1.2.4-1.9.6-.2-.7-.1-1.3.1-1.9.4-1.3 1.2-2.2 2.2-3 2.1-1.7 4.5-2.3 7.2-2.1 1.8.1 3.5.6 4.9 1.7.3.2.6.5.9.8.1.1.2.3.1.4-.1.1-.3.2-.4.2-1.1.1-2.2.4-3.1 1-1 .7-1.7 1.6-2.1 2.7-.2.5-.4 1-.5 1.4-1 2.9-4.5 3.9-7 2.2-.2-.2-.4-.2-.7-.1-1.6.6-3.3.8-5 .5-.1 0-.3.1-.3.2-1.2 2.1-3 3.4-5.2 4.3-.6.3-1.2 0-1.5-.5-.2-.6 0-1.1.7-1.4 1.1-.4 2.1-1 2.9-1.8 1.5-1.4 2.2-3.1 2-5.2-.2-2.3-1.1-4.4-2.6-6.2-1.3-1.7-2.9-3-4.5-4.4.1.1 0 .1-.1.1z"/>
</svg>
