<svg id="li-leaves-home" xmlns="http://www.w3.org/2000/svg" viewBox="0 0 33 32">
    <path d="M32.5 13.9c-1.2-1-13-11.7-14.6-13.2-1.1-1-2.4-1-3.5 0C9.8 4.9 6 9 1.4 13.1c-1.9 1.7-1.8 1.4-.2 3.5.5.6.9.6 1.4.1.4-.3.7-.6 1.1-1v14c0 1.7.5 2.3 2 2.3h21.8c1.4 0 1.9-.6 1.9-2.3v-14c.3.2.5.5.8.7 1 .9 1.1.9 1.9-.1.2-.3.4-.5.6-.8.5-.6.4-1.1-.2-1.6zM13.8 25.3C9.9 24 7 20.4 7.6 16.4c.5-3.4 2.3-6.1 4.4-8.6 3.4 1.5 7.7 5.6 7.5 9.6-2.3.5-3.4 2.3-4.3 4.5-1.1-2.5-1.8-4.8-1.6-7.4-1.7 3.6-1.3 7.2.2 10.8zm11.3-1.6c-1.2 2.5-3.9 3.7-7 3.1 1-2.2 2.2-4.1 4.1-5.5-2.5.6-4.3 2.2-5.7 4.4-1.2-2.9.3-6.4 3.2-7.5 1.8-.7 3.6-.8 5.5-.7.2 0 .6.4.6.6.3 1.9.2 3.8-.7 5.6z"/>
</svg>
