<svg id="li-leaves" xmlns="http://www.w3.org/2000/svg" viewBox="0 0 33 32">
    <path d="M12.9 23.8C7.6 22 3.7 17.2 4.4 11.7c.7-4.6 3.2-8.3 6-11.7C15 2 21 7.7 20.6 13.1c-3.2.7-4.7 3.2-5.9 6.2-1.4-3.4-2.5-6.6-2.2-10.1-2.2 4.8-1.6 9.7.4 14.6zm15.5-2.1c-1.6 3.4-5.3 5.1-9.5 4.3 1.4-3 3.1-5.6 5.7-7.6-3.5.8-5.9 3-7.8 6-1.6-4 .4-8.7 4.4-10.2 2.4-.9 4.9-1.1 7.5-.9.3 0 .8.5.8.8.3 2.5.1 5.1-1.1 7.6z"/>
    <path d="M1.5 30.8s4-5.1 11.7-1.3c8.8 3.8 14.7 3.7 18.3-3.1-.5 1-4.3 4.3-11.4 1.5-8-3.3-13.7-4.7-18.6 2.9z"/>
</svg>
