<svg id="li-lightning-circled" xmlns="http://www.w3.org/2000/svg" viewBox="0 0 32 32">
    <path class="st0" d="M23 5.4c.5-.7.9-1.3 1.4-2C29 6.2 31.7 10 32 15.2c.3 5.6-2.9 11-8.1 13.8-4.9 2.6-10 2.6-15.2.3.6-.6 1.1-1.2 1.7-1.7.1-.1.3 0 .5 0 1.7.7 3.5 1 5.4 1 6.5-.1 12.2-4.5 13.1-10.4.8-5.3-1.3-9.5-6-12.6-.2-.1-.3-.1-.4-.2zM5.9 27.6C1.4 24.4-1.5 18 .7 11.7 3 5 9.5 1.6 14.7 1.4c-.5.8-.9 1.6-1.4 2.4 0 .1-.2.1-.3.2C7.4 5.2 3.3 9.4 2.7 14.6c-.5 4.1.9 7.7 4.1 10.6.1.1.3.2.4.3-.5.7-.9 1.4-1.3 2.1z"/>
    <path class="st0" d="M25.5 0h-9c0 .2-.1.3-.1.4-2.8 5-5.6 10-8.5 14.9-.1.1-.1.2-.2.4h5.9L4.6 32h.1c6.9-7 13.8-13.9 20.7-21h-7.7c2.7-3.7 5.3-7.3 7.8-11 .1 0 .1 0 0 0z"/>
</svg>