<svg id="li-magnifying-spores" xmlns="http://www.w3.org/2000/svg" viewBox="0 0 32 32">
    <path d="M1.4 16.8c.4 0 .7-.1 1-.4.3-.3.4-.6.4-1s-.1-.7-.4-1c-.3-.3-.6-.4-1-.4s-.7.1-1 .4c-.5.5-.5 1.4 0 1.9.3.4.6.5 1 .5zm.9-5.8c.4 0 .7-.1 1-.4.5-.5.5-1.4 0-1.9-.3-.3-.6-.4-1-.4s-.7.1-1 .4c-.5.5-.5 1.4 0 1.9.3.2.7.4 1 .4zm4.1.2c-.4 0-.7.1-1 .4-.5.5-.5 1.4 0 1.9.3.3.6.4 1 .4s.7-.1 1-.4c.3-.3.4-.6.4-1s-.1-.7-.4-1c-.3-.2-.6-.3-1-.3zM22.7 0c-.4 0-.7.1-1 .4-.5.5-.5 1.4 0 1.9.3.3.6.4 1 .4s.7-.1 1-.4c.3-.3.4-.6.4-1s-.1-.7-.4-1c-.3-.2-.7-.3-1-.3zm-9.6 3c-.4 0-.7.1-1 .4-.5.5-.5 1.4 0 1.9.3.3.6.4 1 .4s.7-.1 1-.4c.5-.5.5-1.4 0-1.9-.3-.3-.7-.4-1-.4zM3.7 16.6c-.5 0-1 .2-1.4.6-.8.8-.8 2 0 2.8.4.4.9.6 1.4.6s1-.2 1.4-.6c.4-.4.6-.9.6-1.4 0-.5-.2-1-.6-1.4-.4-.4-.9-.6-1.4-.6zm4-13.3c-.5 0-1 .2-1.4.6-.8.8-.8 2 0 2.8.4.4.9.6 1.4.6s1-.2 1.4-.6c.4-.4.6-.9.6-1.4 0-.5-.2-1-.6-1.4-.4-.4-.9-.6-1.4-.6zm11.9-.8c-.4-.4-.9-.6-1.4-.6-.5 0-1 .2-1.4.6-.8.8-.8 2 0 2.8.4.4.9.6 1.4.6.5 0 1-.2 1.4-.6.8-.8.8-2.1 0-2.8zm2.2 13.9c-1.2-1.2-3.1-1.2-4.3 0-1.2 1.2-1.2 3.1 0 4.3 1.2 1.2 3.1 1.2 4.3 0 1.1-1.2 1.1-3.1 0-4.3zm-3.6 2.8c-.3 0-.5-.2-.5-.5s.2-.5.5-.5.5.2.5.5-.2.5-.5.5zm.9-2c0-.3.2-.5.5-.5s.5.2.5.5-.2.5-.5.5c-.3.1-.5-.2-.5-.5zm1.1 3.4c-.3 0-.5-.2-.5-.5s.2-.5.5-.5.5.2.5.5c0 .2-.3.5-.5.5zm.7-1.9c-.3 0-.5-.2-.5-.5s.2-.5.5-.5.5.2.5.5c0 .2-.2.5-.5.5zm-5.3-5.2c-.9-.9-2.4-.9-3.3 0-.9.9-.9 2.4 0 3.4.9.9 2.4.9 3.3 0 .9-1 .9-2.5 0-3.4zm-2.4 3.2c-.3 0-.6-.3-.6-.6s.3-.6.6-.6.6.3.6.6c-.1.4-.3.6-.6.6zm.1-1.7c-.3 0-.6-.3-.6-.6s.3-.6.6-.6.6.3.6.6-.3.6-.6.6zm1.5 1.1c-.3 0-.6-.3-.6-.6s.3-.6.6-.6.6.3.6.6c0 .4-.3.6-.6.6z"/>
    <path d="M31.6 29.8L25 23.2c2.9-3.8 2.6-9.3-.8-12.8-1.8-1.8-4.2-2.8-6.8-2.8s-5 1-6.8 2.8c-3.8 3.8-3.8 9.9 0 13.7 1.8 1.8 4.2 2.8 6.8 2.8 2.1 0 4.2-.7 5.9-2l6.6 6.6c.2.2.6.4.9.4s.6-.1.9-.4c.4-.4.4-1.2-.1-1.7zm-19.3-7.5c-2.8-2.8-2.8-7.3 0-10.1 1.3-1.3 3.1-2.1 5-2.1s3.7.7 5 2.1c2.8 2.8 2.8 7.3 0 10.1-1.3 1.3-3.1 2.1-5 2.1-1.8 0-3.6-.7-5-2.1z"/>
</svg>
