<svg id="li-mold" xmlns="http://www.w3.org/2000/svg" viewBox="0 0 32 32">
    <path d="M31 22.6c-.5-.3-.9-.2-1.3-.1-.3.1-.6.1-1-.1-.5-.3-1.1-.7-1.7-1.3l-1.5-1.3-.2-.2c.5-1.1.8-2.3.8-3.5.8-.1 1.5-.2 2.1-.2.4 0 .6.2.9.4.3.3.6.5 1.2.6 1 0 1.7-.7 1.7-1.7 0-.9-.8-1.7-1.7-1.7-.6 0-.9.3-1.2.6-.2.2-.5.4-.9.4-.6 0-1.3-.1-2.2-.2-.2-.9-.4-1.7-.8-2.5l1.5-1.4c.7-.6 1.2-1 1.7-1.3.3-.2.6-.2 1-.1s.8.1 1.3-.2c.8-.5 1-1.5.5-2.3-.5-.8-1.6-1-2.4-.5-.5.3-.6.7-.7 1.1-.1.3-.1.6-.5.8-.5.3-1.1.6-1.9 1l-1.9.8c-.6-.7-1.4-1.2-2.2-1.7.1-.3.2-.5.3-.7.2-.4.4-.5.8-.6.4-.1.8-.3 1-.8.4-.8 0-1.8-.9-2.2-.4-.2-.9-.2-1.3 0s-.8.5-1 .9c-.2.5-.1.9.1 1.3.1.3.2.6.1.9l-.3.6c-1.1-.4-2.2-.6-3.4-.7l-.2-1.1c-.1-.8-.2-1.5-.2-2.1 0-.4.2-.6.5-.8.3-.3.6-.6.6-1.1 0-.9-.8-1.7-1.7-1.7-1 0-1.7.7-1.7 1.7 0 .6.3.9.6 1.1.2.2.5.4.5.8 0 .5-.1 1.2-.2 2.1L14.9 7c-1.1.2-2.1.7-3 1.2-.3-.3-.6-.6-.8-.9-.2-.3-.2-.6-.2-.9.1-.4.1-.8-.2-1.2-.8-.3-1.2-.5-1.6-.6-.5-.1-.9 0-1.3.3-.8.5-1 1.6-.4 2.3.4.5.8.5 1.2.6.3.1.6.1.9.4.2.3.4.6.7 1-1 .8-1.7 1.9-2.3 3L6.1 12c-.9-.1-1.6-.3-2.1-.5-.4-.1-.5-.4-.7-.7-.2-.3-.4-.7-1-.9-.9-.3-1.9.2-2.2 1.1-.3.9.2 1.8 1.1 2.1.6.2 1 0 1.3-.2.3-.1.6-.3 1-.1.5.2 1.2.4 2 .8l1.7.9c-.1.4-.1.9-.1 1.4 0 .6.1 1.1.2 1.6l-1.6 1.1c-.7.5-1.4.8-1.9 1-.4.2-.7.1-1-.1-.4-.1-.8-.3-1.3 0-.9.4-1.3 1.4-.9 2.2.2.4.5.7 1 .9.4.2.9.1 1.3 0 .5-.2.7-.6.9-1 .1-.3.2-.6.6-.7.5-.2 1.2-.4 2.1-.7l1.5-.4c.4.8 1 1.6 1.6 2.3-.3.5-.6.8-.8 1.1-.3.3-.6.3-.9.4-.4 0-.8.1-1.2.5-.6.7-.5 1.8.2 2.3.7.6 1.8.5 2.4-.2.4-.4.3-.9.3-1.2 0-.3-.1-.6.2-.9.2-.3.6-.6.9-.9.8.6 1.8 1.1 2.8 1.4l-.1 1.7c-.1.8-.2 1.5-.4 2-.1.4-.4.5-.7.7-.3.2-.7.4-.9.9-.1.4-.1.9.2 1.3.2.4.6.7 1 .8.9.2 1.9-.3 2.1-1.2.2-.6-.1-.9-.2-1.2-.2-.3-.3-.5-.2-.9.1-.5.4-1.2.8-1.9l.9-1.7h.5c1.1 0 2.1-.2 3-.5.4.6.7 1.1 1 1.5.2.3.1.6 0 .9-.1.4-.2.8 0 1.3.2.4.6.7 1 .8.4.1.9.1 1.3-.1.9-.4 1.2-1.4.7-2.2-.3-.5-.7-.6-1.1-.8-.3-.1-.6-.2-.8-.5-.2-.4-.4-.9-.7-1.5 1-.5 1.9-1.3 2.7-2.1l.3.1 1.9.7c.8.3 1.5.6 1.9.9.4.2.4.5.5.8.1.4.2.8.7 1.1.8.5 1.9.2 2.4-.5.2-.4.3-.8.2-1.3.2-.5-.1-.9-.5-1.1zm-18.5-6.5c0 .6-.7 1.6-1.8 1.2-1.1-.4-1.4-2.9.2-3.2 1.6-.4 1.6 1.5 1.6 2zm5.4 5.6c-.8 1.2-3.4 1-3.2-1 .1-2.1 1.9-1.6 2.6-1.5.6.1 1.4 1.3.6 2.5zm-1.2-7.9c-1.7 0-2.5-1.1-2.4-2.2.1-1 1.3-2 2.3-2 1.1 0 1.8 1.1 1.8 2s-.7 2.2-1.7 2.2zm6 3.6c-.7 1-3.7.7-3.8-1.1-.1-1.8 2-1.2 2.7-1.1.8.2 1.9 1.2 1.1 2.2z"/>
</svg>
