<svg id="li-multimeter" xmlns="http://www.w3.org/2000/svg" viewBox="0 0 27.7 32">
    <path d="M26.2 15.1c-.2-.3-.3-.4-.4-.5-.5-1.1-1.1-2.1-1.5-3.2-.2-.5-.1-1-.1-1.6.1-1.1.2-2.3.2-3.4 0-.2 0-.4-.1-.6-.6-.9-.6-1.4.2-2 .1-.1.2-.3.2-.4.3-.9.5-1.8.8-2.7.2-.4.2-.7.6-.7.5 0 .5.4.5.7.1.9.2 1.9.3 2.8 0 .2.1.4.3.5.6.5.5 1.4 0 1.9-.2.2-.3.4-.3.7l-.6 7.8c0 .2 0 .4-.1.7zM20.1 4.8c-.3-.1-.7-.3-.9-.6-.5-.6-.9-1.2-1.4-1.8-.2-.3-.5-.8-.9-.6-.2.1-.2.8-.2 1.1.1.8.4 1.6.6 2.4 0 .2.1.4 0 .6-.4.9-.1 1.6.8 1.9.2.1.3.2.4.4.8 1.6 1.5 3.1 2.3 4.7l2.7 5.7c.5 1 .5 1-.5 1.5-.1 0-.1.1-.2.1-.5.3-.7.2-1-.3-2.3-4.9-4.6-9.7-7-14.6-.1-.3-.4-.6-.6-.8-.8-.7-1.6-.5-2.4-.1-3.5 1.5-7 3.2-10.6 4.9-1.2.6-1.5 1.7-1 2.8 1.5 3.1 3 6.2 4.4 9.3 1.5 3 3 6.1 4.3 9.2.6 1.4 1.9 1.8 3.2 1.2 3.4-1.6 6.8-3.3 10.2-4.8 1.3-.6 2-1.9 1.2-3.4-.7-1.2-.6-1.3.7-2 1.7-.9 2-2.7 1.4-4-1.5-3.4-3.2-6.8-4.8-10.2-.2-.4-.3-.7-.1-1.1.3-.6-.1-1.3-.6-1.5zm-1.6 18.9c0 .1-.1.3-.1.4-.1.2-.1.4-.2.6 0 .1-.1.1-.1.2-.4.8-1.1 1.5-1.9 1.9-.1.1-.3.1-.4.2-1.5.5-3.1.2-4.2-.7-.5-.4-.9-.9-1.2-1.5-.2-.5-.4-1-.4-1.5v-.8c.1-.7.3-1.4.7-1.9.4-.6 1-1.2 1.8-1.5.9-.4 1.8-.5 2.7-.4.2 0 .4.1.6.2.3.1.5.2.7.4.5.3.9.7 1.3 1.1.2.2.3.5.5.8.3.6.4 1.6.2 2.5zm-2.4-11.2c.1.2.1.4.1.6 0 .1-.1.2-.1.3-.1.1-.3.3-.5.4-.2.1-.3.1-.5.2-1.4.7-2.7 1.3-4.1 2l-4.5 2.1c-.1 0-.1 0-.1.1-.5.2-.8.2-1.1-.1-.1-.1-.2-.3-.3-.5-.8-1.6-1.5-3.2-2.3-4.8-.2-.3-.2-.6-.2-.8v-.1c.1-.2.3-.4.6-.6 1.6-.8 3.1-1.6 4.7-2.3 1.5-.7 3.1-1.5 4.6-2.2.1-.1.3-.1.4-.1h.2c.3 0 .5.2.7.6.3.8.7 1.7 1.1 2.6.5.8.9 1.7 1.3 2.6z"/>
    <path d="M9.4 15.8c-.5.2-.7 0-.7-.5V15c.4-.9 0-1.6-.5-2.3-.1-.1-.2-.2-.2-.4 0-.1 0-.4.1-.5.1-.1.3-.1.5 0 .5.3.9.7 1.4 1 .3.2.7.3 1 .4.4.2.8.3 1.2.6.4.3.3.6-.1.8-.6.2-2.3 1-2.7 1.2zm7.5 7.6l-.7-.4c0-.2-.1-.3-.3-.4l-2.6-1.4c-.2-.1-.3-.1-.5 0l-.7-.3c-.3-.1-.6 0-.7.2l-.3.6c-.1.3 0 .6.2.7l.7.3c0 .2.1.3.3.4l2.6 1.4c.2.1.3.1.5 0l.7.3c.3.1.6 0 .7-.2l.3-.6c.1-.2 0-.5-.2-.6z"/>
</svg>
