<svg id="li-paint-spray-gun" xmlns="http://www.w3.org/2000/svg" viewBox="0 0 32.6 32">
    <path d="M358.1 657.7c.1-1.3.3-2.4.5-3.1.9-3.4 3-6.2 4.6-8.4-3.1 2.8-3.8 2.8-5.7 7.6-1.4-1.5-1.9-4.2.1-7 1.7-2.5 5.6-1.8 8.7-4.9-.6 3.2 0 5.3-.1 6.9-.3 5.4-3.7 6.8-6.3 6.3-.2.8-.4 1.7-.5 2.7 1 .3 2 .9 2.6 1.9.4-.1.7-.2 1.1-.2 1.7 0 3.1 1 3.7 2.5l-5.8 4.2c-.4-1.9-2-1.8-4.3-1.9-2.1 0-2.8 0-3.9-.9L351 662v-.1c0-1.4 1.2-2.6 2.6-2.6.4 0 .8.1 1.2.3.9-1.2 2.1-1.8 3.3-1.9zm-10.5 3.2c.9.7 1.8 1.3 2.7 2 3.8 2.8 4.1 2.1 8.6 2.4 1 .1 1.6 1.7 0 2.3-2.5 1-5.1 1.1-8 0-.4 0-2-1.4-2.5-.9s-.1.9.5 1.2l1.9 1c2.2.7 6.7 1.1 9.1-.6l6.9-4.7c1.3-.9 1.6-1.1 2.6-.1.6.5-.7 2-1.1 2.2l-10.2 6.8c-1.9 1.3-5.4 1.5-6.2 1l-6.3-3.2c-.8-.4-1.5-.5-2.7.3l-1.5 1c-.4.2-4.1-7.9-3.7-8l6.6-2.7c1.3-.5 2.8-.4 3.3 0z"/>
    <path d="M10.7 0h-.3L2.1 2.7c-.5.2-.8.7-.6 1.1.1.4.5.7.8.7l2 6.1c.6 1.8 2.3 2.8 4.1 2.5l.7 2.2H5.4v1.3h-3c0-.5-.4-.9-.9-.9H.9c-.5-.1-.9.3-.9.8v1.8c0 .5.4.9.9.9h.5c.5 0 .9-.4.9-.8h3v1.3H3v4h1.6l-1.5 5.4C2.6 30.7 4.3 32 5.9 32c1.6 0 2.8-1.3 2.8-2.8l.3-5.4h1.2c.1.8.2 1.5.6 2.2.3.8.9 1.5 1.5 2.1.4.5 1.2.9 1.8.7.4-.1.8-.5.6-1-.5-1.1-1.2-1.6-1.9-2.2-.4-.5-.5-1.1-.6-1.8V21h3.7c1 0 2-.6 2.5-1.4.9-.2 1.5-.8 1.5-1.5s-.6-1.2-1.5-1.4c-.5-.8-1.4-1.4-2.5-1.4h-3.2l-1-3.3c1.4-.9 2.1-2.6 1.5-4.2l-2-6.1c.3-.2.4-.6.3-1 0-.5-.4-.7-.8-.7zM9.4 2.7c.3 0 .5.1.7.3.5 1 .8 2.2 1.1 3.3.2.7.5 1.3.6 2 .1.8-1.1 1.3-1.6.6-.7-1.6-1.1-3.4-1.7-5-.1-.6.3-1.2.9-1.2zm12.7 14.1c-1 0-1.2 1.7-.2 1.9 2.6 0 7.4.1 10 0 1-.3.8-1.9-.2-1.9h-9.6zm-.3-2.8c-1 .4-.6 1.9.4 1.9 2.5-.8 5-1.5 7.4-2.4.8-.6.2-2-.8-1.7-2.3.6-4.6 1.4-7 2.2zm0 7.6c-1-.4-.6-2 .4-1.9 2.5.8 5 1.5 7.4 2.4.9.6.2 2-.8 1.7-2.3-.7-4.6-1.4-7-2.2zm0 0"/>
</svg>
