<svg id="li-paint-can" xmlns="http://www.w3.org/2000/svg" viewBox="0 0 32.6 32">
    <path d="M16.3 8c6.8 0 13.9-1.3 13.9-3.5S23.1 1 16.3 1C9.5 1 2.4 2.3 2.4 4.5S9.5 8 16.3 8zm0-6.6c8 0 13.4 1.6 13.4 3 0 1.5-5.4 3-13.4 3S2.9 5.8 2.9 4.4s5.4-3 13.4-3z"/>
    <path d="M16.3 0c-9 0-16 2-16 4.5v23c0 2.5 7 4.5 16 4.5s16-2 16-4.5v-23c0-2.5-7-4.5-16-4.5zm0 8.5h-2.9c-.7 0-1.3-.1-1.9-.2v5c0 .5-.5 1-1.1 1-.4 0-.8-.2-1-.6v.5c0 .5-.5 1-1.1 1-.5 0-.9-.3-1-.6v.4c0 .5-.5 1-1.1 1-.7 0-1.2-.4-1.2-1V7.2C2.8 6.6 1.4 5.8 1 5v-.2c0-.1 0-.1-.1-.2v-.2c0-1.9 6.2-4 15.5-4s15.5 2.1 15.5 4c-.1 2-6.3 4.1-15.6 4.1z"/>
</svg>
