<svg id="li-spray-can" xmlns="http://www.w3.org/2000/svg" viewBox="0 0 32.6 32">
    <path d="M16.5 5.8l1.5.7c.1.1.2 0 .3-.1l1-2.1c0-.1 0-.2-.1-.2l-1.5-.7c-.1-.1-.2 0-.3.1l-1 2.1c-.1 0 0 .1.1.2zm.5.8c-1.9-.9-4-.8-5.4.3l8.7 4.1c-.1-1.8-1.4-3.4-3.3-4.4zM28.9 1c-.1-.3-.2-.7-.3-1l-8.1 3.3c0 .1.1.1.1.2L28.9 1zm-8.8 5.2l8 7.3c.2-.3.5-.5.7-.8L20.3 6c-.1.1-.1.2-.2.2zm.5-.8l9.2 3.9c.1-.3.3-.7.4-1l-9.5-3.2c-.1.1-.1.2-.1.3zm7.3 5.3c.2-.3.4-.6.5-.9l-8-4.2c0 .1-.1.2-.1.2l7.6 4.9zm1.9-5.8V3.8l-9.1.3v.2l9.1.6zm-10 1.7l5.5 7.1c.3-.2.5-.4.8-.7L20 6.4c-.1.1-.2.1-.2.2zm.9-2.7l10.4-1.2c0-.3-.1-.7-.2-1l-10.3 2c0 .1 0 .2.1.2zm0 .7v.3l11.4 2.5c.1-.3.1-.7.2-1L20.7 4.6zm-8.9 22.2l5.3-11.3-7-3.2-5.3 11.2z"/>
    <path d="M20.8 12L10.5 7.2c-.7-.3-1.6 0-2 .7L.4 25.1c-.3.7 0 1.6.7 1.9l10.3 4.8c.7.3 1.6 0 2-.7l8.1-17.3c.3-.6 0-1.5-.7-1.8zm-8.6 15.7L4 23.9l5.8-12.5 8.2 3.8-5.8 12.5z"/>
</svg>
