<svg id="li-paint-roller-alt" xmlns="http://www.w3.org/2000/svg" viewBox="0 0 32.6 32">
    <path d="M358.1 657.7c.1-1.3.3-2.4.5-3.1.9-3.4 3-6.2 4.6-8.4-3.1 2.8-3.8 2.8-5.7 7.6-1.4-1.5-1.9-4.2.1-7 1.7-2.5 5.6-1.8 8.7-4.9-.6 3.2 0 5.3-.1 6.9-.3 5.4-3.7 6.8-6.3 6.3-.2.8-.4 1.7-.5 2.7 1 .3 2 .9 2.6 1.9.4-.1.7-.2 1.1-.2 1.7 0 3.1 1 3.7 2.5l-5.8 4.2c-.4-1.9-2-1.8-4.3-1.9-2.1 0-2.8 0-3.9-.9L351 662v-.1c0-1.4 1.2-2.6 2.6-2.6.4 0 .8.1 1.2.3.9-1.2 2.1-1.8 3.3-1.9zm-10.5 3.2c.9.7 1.8 1.3 2.7 2 3.8 2.8 4.1 2.1 8.6 2.4 1 .1 1.6 1.7 0 2.3-2.5 1-5.1 1.1-8 0-.4 0-2-1.4-2.5-.9s-.1.9.5 1.2l1.9 1c2.2.7 6.7 1.1 9.1-.6l6.9-4.7c1.3-.9 1.6-1.1 2.6-.1.6.5-.7 2-1.1 2.2l-10.2 6.8c-1.9 1.3-5.4 1.5-6.2 1l-6.3-3.2c-.8-.4-1.5-.5-2.7.3l-1.5 1c-.4.2-4.1-7.9-3.7-8l6.6-2.7c1.3-.5 2.8-.4 3.3 0z"/>
    <path d="M32.3 16H17.5v2.3h2.3v10.3c0 1.9-1.5 3.5-3.4 3.5S13 30.6 13 28.6V18.3h2.3v-4.6h14.9V6.9H28c-.1.4-.1.7-.2 1.1-.5 2-2.3 3.5-4.4 3.5H6.3c-2.5 0-4.5-1.9-4.7-4.4v-.2H.5V4.6h1.1c0-1.3.5-2.4 1.4-3.3C3.7.4 4.8 0 6 0h17.1c2.5 0 4.5 1.9 4.6 4.4v.2h4.6V16z"/>
</svg>
