<svg id="li-paint-roller" xmlns="http://www.w3.org/2000/svg" viewBox="0 0 32.6 32">
    <path d="M358.1 657.7c.1-1.3.3-2.4.5-3.1.9-3.4 3-6.2 4.6-8.4-3.1 2.8-3.8 2.8-5.7 7.6-1.4-1.5-1.9-4.2.1-7 1.7-2.5 5.6-1.8 8.7-4.9-.6 3.2 0 5.3-.1 6.9-.3 5.4-3.7 6.8-6.3 6.3-.2.8-.4 1.7-.5 2.7 1 .3 2 .9 2.6 1.9.4-.1.7-.2 1.1-.2 1.7 0 3.1 1 3.7 2.5l-5.8 4.2c-.4-1.9-2-1.8-4.3-1.9-2.1 0-2.8 0-3.9-.9L351 662v-.1c0-1.4 1.2-2.6 2.6-2.6.4 0 .8.1 1.2.3.9-1.2 2.1-1.8 3.3-1.9zm-10.5 3.2c.9.7 1.8 1.3 2.7 2 3.8 2.8 4.1 2.1 8.6 2.4 1 .1 1.6 1.7 0 2.3-2.5 1-5.1 1.1-8 0-.4 0-2-1.4-2.5-.9s-.1.9.5 1.2l1.9 1c2.2.7 6.7 1.1 9.1-.6l6.9-4.7c1.3-.9 1.6-1.1 2.6-.1.6.5-.7 2-1.1 2.2l-10.2 6.8c-1.9 1.3-5.4 1.5-6.2 1l-6.3-3.2c-.8-.4-1.5-.5-2.7.3l-1.5 1c-.4.2-4.1-7.9-3.7-8l6.6-2.7c1.3-.5 2.8-.4 3.3 0z"/>
    <path d="M32.1 15.2L17.2.4c-.3-.3-.8-.3-1.1 0l-3.7 3.7c-.3.3-.3.8 0 1.1L27.3 20c.3.3.8.3 1.1 0l3.7-3.7c.3-.3.3-.8 0-1.1zm-20.8 8.2L9 21.1c-.3-.3-.8-.3-1.1 0l-7.1 7c-.7.7-.7 1.8 0 2.4l.9.9c.7.7 1.8.7 2.5 0l7.1-7c.3-.2.3-.7 0-1z"/>
    <path d="M12.2 19.3l-2 2 .9.9 2.5-2.5c.1-.1.1-.2.1-.3l-4.6-14c0-.1 0-.2.1-.3l3.4-3.3c.1-.1.2-.1.3 0l.4.4.9-.9L13.1.2c-.2-.2-.5-.2-.7 0L7.7 4.7c-.1.1-.1.2-.1.3l4.6 14c.1.1 0 .2 0 .3z"/>
</svg>
