<svg id="li-pencil-ruler" xmlns="http://www.w3.org/2000/svg" viewBox="0 0 32 32">
    <path d="M31.7 25.5L21.1 14.8l5.6-5.6c.2-.2.3-.4.4-.6l1.4-4.1c.1-.2 0-.5-.1-.7-.1-.2-.4-.3-.6-.3h-.3l-4.1 1.4c-.2.1-.4.3-.6.4L17.2 11 6.5.3C6.3.1 6.1 0 5.8 0s-.5.1-.7.3L.3 5.1c-.4.4-.4 1 0 1.4L11 17.2l-6.5 6.5 3.9 3.9 6.5-6.5 10.7 10.7c.2.2.4.3.7.3.3 0 .5-.1.7-.3l4.9-4.9c.2-.4.2-1-.2-1.4zm-5.5 4.2L2.3 5.8l3.5-3.5 1.5 1.5-.9 1c-.1.1-.2.3-.2.5s.1.3.2.5c.1.1.3.2.5.2s.3-.1.5-.2l.9-.9 1.6 1.6-2 2c-.1 0-.2.1-.2.3 0 .2.1.3.2.5.1.1.3.1.5.1s.3-.1.5-.2l2-2 1.6 1.6-.9.9c-.1.1-.2.3-.2.5s.1.3.2.5c.1.1.3.2.5.2s.3-.1.5-.2l.9-.9 1.6 1.6-.9.9c-.1.1-.2.3-.2.5s.1.3.2.5c.1.1.3.2.5.2s.3-.1.5-.2l.9-.9 1.6 1.6-2 2c-.1.1-.2.3-.2.5s.1.3.2.5c.1.1.3.2.5.2s.3-.1.5-.2l2-2 1.6 1.6-.9.9c-.1.1-.2.3-.2.5s.1.3.2.5c.1.1.3.2.5.2s.3-.1.5-.2l.9-.9 1.6 1.6-.9.9c-.1.1-.2.3-.2.5s.1.3.2.5c.1.1.3.2.5.2s.3-.1.5-.2l.9-.9 1.6 1.6-2 2c-.1.1-.2.3-.2.5s.1.3.2.5c.1.1.3.2.5.2s.3-.1.5-.2l2-2 1.6 1.6-.9.9c-.1.1-.2.3-.2.5s.1.3.2.5c.1.1.3.2.5.2s.3-.1.5-.2l.9-.9 1.4 1.4-4.3 2.9zM2.8 25.4c-.8.8-.8 2.1 0 3l.9.9c.4.4.9.6 1.5.6s1.1-.2 1.5-.6l.7-.7-3.9-3.9-.7.7z"/>
</svg>
