<svg id="li-pest-control" xmlns="http://www.w3.org/2000/svg" viewBox="0 0 32 32">
    <path d="M6.2 0c-.5 0-.9.2-.9.5v2.6c0 .3.4.5.9.5h6.3c.5 0 .9-.2.9-.5V.5c0-.3-.4-.5-.9-.5H6.2zM4 2.9c0-.1 0-.1 0 0V.6H1.7v2.5H4v-.2zm5.1 12.2c-2.5 0-4.6 2-4.6 4.4 0 .7.2 1.4.5 2l6.6-5.6c-.7-.5-1.5-.8-2.5-.8zm-2.5 8c.7.5 1.6.7 2.5.7 2.5 0 4.6-2 4.6-4.4 0-.7-.2-1.4-.5-2l-6.6 5.7z"/>
    <path d="M14.6 7.6V5.1H4.2v2.2C1.7 8.6 0 10.8 0 13.4v17.7c0 .5.5.9 1.1.9h16c.6 0 1.1-.4 1.1-.9V13.4c.1-2.4-1.4-4.5-3.6-5.8zM9.1 26.1c-3.8 0-6.9-3-6.9-6.6s3.1-6.6 6.9-6.6 6.9 3 6.9 6.6-3.1 6.6-6.9 6.6z"/>
    <path d="M32 7.7l-.8-.7-.6.6-.4-.3-3.5 3.5.3.3c-.3.5-.9 1.4-.9 2.8V23c0 .3-.1 2.9-2.2 2.9-.6 0-1.1-.2-1.4-.5-.8-.8-.8-2.3-.8-2.4V4.6C21.6 2 20 1.1 18.6 1.1h-3.9v1.4h3.9c.6 0 1.6.3 1.7 2.1V23c0 .1-.1 2.1 1.2 3.4.6.6 1.5 1 2.5 1 3 0 3.7-2.8 3.7-4.3v-9.2c0-.9.3-1.5.5-1.8l.3.2L32 8.8l-.4-.4.4-.7z"/>
</svg>
