<svg id="li-phone-office" xmlns="http://www.w3.org/2000/svg" viewBox="0 0 32 32">
    <path d="M29.3 2c.7 0 1.4.3 1.9.9S32 4.2 32 5v24c0 .8-.3 1.5-.8 2.1s-1.1.9-1.9.9H2.7c-.7 0-1.4-.3-1.9-.9S0 29.8 0 29V5c0-.8.3-1.5.8-2.1S1.9 2 2.7 2h.9v22c0 1.1.4 2 1.1 2.8S6.1 28 7.1 28h3.6c1 0 1.8-.4 2.5-1.2.7-.8 1.1-1.7 1.1-2.8V2h15zM7.1 26c-.5 0-.9-.2-1.3-.6s-.5-.9-.5-1.4V2c0-.5.2-1 .5-1.4S6.6 0 7.1 0h3.6c.5 0 .9.2 1.3.6.3.4.4.9.4 1.4v22c0 .5-.2 1-.5 1.4-.4.4-.8.6-1.3.6H7.1zm21.3-14V6H17.8v6h10.6zm-7.1 7v-2c0-.3-.1-.5-.3-.7-.2-.2-.4-.3-.6-.3h-1.8c-.3 0-.5.1-.6.3-.2.2-.3.4-.3.7v2c0 .3.1.5.3.7.2.2.4.3.6.3h1.8c.3 0 .5-.1.6-.3.3-.2.3-.4.3-.7zm0 8v-2c0-.3-.1-.5-.3-.7-.2-.2-.4-.3-.6-.3h-1.8c-.3 0-.5.1-.6.3-.2.2-.3.4-.3.7v2c0 .3.1.5.3.7.2.2.4.3.6.3h1.8c.3 0 .5-.1.6-.3.3-.2.3-.4.3-.7zm7.1-8v-2c0-.3-.1-.5-.3-.7s-.3-.3-.5-.3h-1.8c-.3 0-.5.1-.6.3-.2.2-.3.4-.3.7v2c0 .3.1.5.3.7.2.2.4.3.6.3h1.8c.3 0 .5-.1.6-.3s.2-.4.2-.7zm0 8v-2c0-.3-.1-.5-.3-.7s-.3-.3-.5-.3h-1.8c-.3 0-.5.1-.6.3-.2.2-.3.4-.3.7v2c0 .3.1.5.3.7.2.2.4.3.6.3h1.8c.3 0 .5-.1.6-.3s.2-.4.2-.7z"/>
</svg>
