<svg id="li-phone-retro" xmlns="http://www.w3.org/2000/svg" viewBox="0 0 32 32">
    <path d="M32 11.1c-.1.3-.1.7-.2 1-.2.9-.6 1.7-1.2 2.5-.5.6-1.1.8-1.8.5-.4-.1-.7-.3-1.1-.5-.9-.6-1.9-1.2-2.8-1.8-.8-.5-1-1.1-.7-2 .1-.4.3-.8.4-1.2.2-.4.1-.8-.2-1.1-.4-.5-.9-.9-1.5-1.1-2-.6-4-.8-6.1-.9-2.6-.1-5.1.1-7.6.8-.6.2-1.2.5-1.6 1.1-.3.4-.4.7-.2 1.2.2.4.3.8.4 1.2.3.9.1 1.5-.8 2L5.2 14c-.5.3-.9.6-1.4.9-.3.2-.7.3-1 .3-.6.1-1.1-.2-1.4-.7-2-2.4-1.8-5.9.4-8.1 1.3-1.3 2.8-2 4.5-2.6 2.1-.7 4.2-1 6.3-1.1 2.3-.2 4.5-.2 6.8 0 2.8.2 5.5.6 8 1.8 1.2.6 2.3 1.3 3.2 2.3.8.9 1.2 1.9 1.4 3.1 0 .1 0 .1.1.2-.1.3-.1.7-.1 1z"/>
    <path d="M12 9.5v1.3c0 .5.2.7.7.7h6.5c.5 0 .8-.2.8-.8V9.4c1 0 1.9.8 1.9 2 .1 2.4 1.2 4 3.1 5.2 1 .6 2 1.2 3 1.9.5.3.9.7 1.3 1.2s.6 1.1.6 1.7v5.4c0 1.6-1 2.6-2.7 2.6H5c-.4 0-.9 0-1.3-.1-1-.2-1.7-1.1-1.7-2.3v-5.7c0-.9.4-1.6 1.1-2.1.7-.5 1.4-1 2.1-1.4 1.1-.7 2.2-1.3 3.1-2.2 1.1-1.1 1.7-2.4 1.7-3.9 0-1.2.7-2 1.8-2.2h.2zm9 14.2c1.4-2 1.4-5.4-1-7.7-2.4-2.2-6-2.1-8.3.2-2.3 2.3-2.4 5.9-.2 8.3 2.2 2.5 5.7 2.4 7.7 1-.4-.7-.8-1.5-1.1-2.2-.1-.2-.2-.4 0-.7.2-.2.4-.1.7 0 .7.4 1.5.7 2.2 1.1z"/>
    <path d="M14 20.5c0-1.1.9-2 2-1.9 1.1 0 2 .9 2 2s-.9 2-2 2c-1.1-.1-2-1-2-2.1zm2.7 3.5c.4 0 .8.3.8.7 0 .4-.3.7-.7.7-.4 0-.8-.3-.8-.7 0-.3.3-.7.7-.7zm-2-8.5c.4 0 .7.3.7.7 0 .4-.3.7-.7.8-.4 0-.8-.3-.8-.7.1-.5.4-.8.8-.8zM12.8 17c.4 0 .7.3.7.7 0 .4-.4.8-.8.7-.4 0-.7-.4-.7-.8 0-.3.4-.6.8-.6zm7.2.7c0 .4-.3.8-.8.7-.4 0-.7-.3-.7-.7 0-.4.3-.8.8-.7.4 0 .7.3.7.7zm-2.8-2.2c.4 0 .7.3.8.7 0 .4-.3.8-.7.8-.4 0-.8-.3-.8-.7 0-.4.3-.8.7-.8zm-4.7 4.7c0 .4-.3.7-.7.7-.4 0-.7-.3-.8-.7 0-.4.3-.8.7-.8.4.1.8.4.8.8zm2.5 4.1c0 .4-.3.7-.7.7-.4 0-.7-.3-.7-.7 0-.4.3-.8.8-.8.3 0 .6.3.6.8zm5.3-5.3c.4 0 .7.3.7.7 0 .4-.3.7-.7.7-.4 0-.8-.4-.7-.8-.1-.3.3-.6.7-.6zM13 22.7c0 .4-.3.7-.7.8-.4 0-.8-.3-.8-.7 0-.4.3-.7.7-.7.4-.1.8.2.8.6z"/>
</svg>
