<svg id="li-plug-circle" xmlns="http://www.w3.org/2000/svg" viewBox="0 0 32.7 32">
    <path d="M14.4 10.9V7.2c0-.4-.3-.6-.7-.7-.2-.1-.5 0-.7 0-.6 0-.9.4-.9.9v3.5h2.3zm6.2 0V7.2c0-.5-.4-.8-.8-.8h-.6c-.5 0-.9.4-.9.9v3.6h2.3z"/>
    <path d="M14.7 22c-1.7-.2-3-1-3.9-2.4-.5-.7-.8-1.6-.8-2.5V12h12.8v4.6c.1 2.8-2 5.2-5 5.5.1.9.1 1.7.2 2.6.1.7.3 1.5.6 2.2.7 1.4 1.8 1.9 3.3 1.3 2-.8 3.7-2.1 5-3.8 5.7-7.7 1.4-18.9-8-20.8C11.7 1.9 4.6 6.8 3.3 14.1 2.2 20.5 5.9 26.7 12 28.8c.6.2 1.1.5 1.3 1.2.2.6 0 1.1-.4 1.5-.5.4-1 .5-1.6.3-1.8-.6-3.5-1.5-5-2.7C1.8 25.4-.4 20.6.1 14.7.7 7.5 6.3 1.5 13.6.2c8.7-1.5 17.1 4.3 18.8 12.9 1 5.5-.4 10.4-4.2 14.5-1.5 1.6-3.2 2.7-5.3 3.4-3 1-5.8-.1-7.1-3-.8-1.6-1-3.4-1.1-5.2V22z"/>
</svg>
