<svg id="li-plug-bolt" xmlns="http://www.w3.org/2000/svg" viewBox="0 0 32 32">
    <path d="M24.7 2.7c.6-.6.6-1.6 0-2.3-.6-.6-1.6-.6-2.3 0L18 5l2.3 2.3 4.4-4.6zm6.8 6.9c.6-.6.6-1.6 0-2.3-.6-.6-1.6-.6-2.3 0l-4.5 4.5 2.3 2.3 4.5-4.5zm-2.6 7.7l-.7-.7L15.7 4l-.9-.9c-.5-.5-1.4-.5-2 0l-1.7 1.7c-.5.5-.5 1.4 0 2l.9.9 12.5 12.5.7.7c.5.5 1.4.5 2 0l1.7-1.7c.6-.5.6-1.4 0-1.9zM8 11.6c-3 3-3.4 7.6-1.2 11L0 29.3 2.7 32l6.8-6.7c3.4 2.2 8 1.8 11-1.2l3.3-3.3L11.3 8.3 8 11.6zm2.5 2.3l1.4 3.9.5-.5 1.4-1.4.5-.5 1.8 4.8 1.1-1.1-.3 3.9-3-.7 1-1-1.6-2.6-.8.8-1.1 1.1-.2.2-2.7-5 2-1.9z"/>
</svg>
