<svg id="li-power-washing" xmlns="http://www.w3.org/2000/svg" viewBox="0 0 32 32">
    <path d="M1.3 24.5c.5.2.7.7.7 1.3 0 .6-.1 1.5-.2 2.3-.2.9-.4 1.8-.4 2.1-.2.6.1 1 .6 1.2.5.2 1.1.2 1.5.1.1 0 .2 0 .4.1.5.1 1.1.3 1.6.4.8.1 1.5.1 1.9-.3.6-.6.8-2 .8-3.5s-.3-3.2-.6-4.1c-.2-.6-.6-1.2-.3-1.8.7-.8 1.2-1.5 1.5-2.1.4-.2.7-.4.9-.6.4-.4.6-.8.6-1.1 1.4-1 .6-.4 3.7-2.5.1.2.4.3.5.1l4.1-2.8c.2-.1.2-.3.1-.5l4.5-3.1 1.3-.2 1.8-2.2-.6-.9-2.6.9-.7 1.2-4.5 3.1c-.1-.2-.4-.3-.5-.1l-4.1 2.8c-.2.1-.2.4-.1.5l-3.7 2.6c-.3-.2-.7-.2-1.2.1-.3.1-.6.3-1 .6-.1-.2-.4-.2-.8 0-.8.3-2.1 1.2-3.4 2.1-1.2.9-2.4 1.9-3 2.4-.3.4-.1.7.2 1.2.4.5.5.5 1 .7zm3.1.4c.2.3.2.6.3.9.2 1 0 2.2.1 3.2 0 .6.4 1 .8 1.2.4.2.8.2.8 0 0-.1-.4-.3-.5-.5-.3-.4-.1-1.1-.1-1.8.1-.4.1-.9 0-1.2-.1-.7-.4-1.6.1-1.9.7-.4 1.2.7 1.4 1.4.3 1.5.4 4-.1 4.7-.2.4-.9.4-1.7.3-.8-.1-1.7-.5-1.9-.8-.1-.2-.2-.4-.2-.7 0 0 .1-1.2.4-4.2 0-.3.2-.6.6-.6z"/>
    <path d="M26.9 7.5c.1-.7 0-1.3-.6-1.7-.5-.4-1.2-.3-1.6.1 0-.7.1-1.1-.5-2.3-.7-1.5-.3-2.3.2-2.3s1.2.6 1.1 1.9c-.1.9.2 1.5.5 1.6.3.1.6-.1.8-.9.3-1.1.6-2.8 1.2-3.6.4-.5 1-.5 1.4-.1.4.3.6.8.4 1.5-.2.8-.9 1.8-1.3 2.3-.7 1-.9 1.7-.7 1.9.2.2.6.2 1.2-.1.5-.2 1.3-.8 2-.8.5 0 .8.4.9.8.1.4-.1.7-.5.9-.8.3-1.6.1-2.6.2-.5 0-1.1.2-1.9.6zm.1.4c.7-.3 1.2-.3 1.6-.2.4.1.6.5.6.8-.1.3-.3.5-.8.3-.4 0-.9-.3-1.4-.9z"/>
    <path d="M29.4 3.9c.5 0 .8-.2 1-.3.4-.3.4-.6.2-.8-.2-.2-.4-.2-.7 0-.2.2-.4.6-.5 1.1zm-2.7-2c.2-.3.3-.6.3-.9.1-.5-.2-.8-.4-.8s-.4.2-.4.7c.1.3.2.6.5 1z"/>
</svg>
