<svg id="li-radiant-droplet" xmlns="http://www.w3.org/2000/svg" viewBox="0 0 37.1 32">
    <path d="M30.9 19.5h-3.2c-.1.9-.3 1.9-.6 2.7h3.8c1.9 0 3.5 1.6 3.5 3.5s-1.6 3.5-3.5 3.5H1.4V32h29.5c3.4 0 6.2-2.8 6.2-6.2 0-3.5-2.8-6.3-6.2-6.3zm3.5-13.3c0 1.9-1.6 3.5-3.5 3.5h-7.1c.6.9 1.1 1.8 1.7 2.7H31c3.4 0 6.2-2.8 6.2-6.2C37.2 2.8 34.4 0 31 0H1.4v2.7h29.5c1.9 0 3.5 1.6 3.5 3.5zm-28.2 16H10c-.3-.8-.5-1.8-.6-2.7H6.2c-1.9 0-3.5-1.6-3.5-3.5s1.6-3.5 3.5-3.5h5.5c.5-.9 1.1-1.8 1.7-2.7H6.2C2.8 9.8 0 12.6 0 16c0 3.4 2.8 6.2 6.2 6.2z"/>
    <path d="M11.3 18.9c0 4 3.2 7.2 7.2 7.2s7.2-3.2 7.2-7.2-7.2-13-7.2-13-7.2 9-7.2 13zm4.2 2.6c-.8 0-1.4-1.1-1.4-2.5s.6-2.5 1.4-2.5c.8 0 1.4 1.1 1.4 2.5 0 1.3-.6 2.5-1.4 2.5z"/>
</svg>
