<svg id="li-radiant-heat" xmlns="http://www.w3.org/2000/svg" viewBox="0 0 32 32">
    <path d="M4.9 3.7c1.4 2.5.6 4-.2 6.8-.7 3.1-.1 4.1 1 6.3-3.9-2.3-3.5-5.5-1.9-9 1.1-2.2.9-2.6 1.1-4.1zM6.5 0c4.6 5 1.8 8.4 0 13.3-1.1-3.6 1.7-6 .4-11.2-.2-1-.3-1.5-.4-2.1zM15 3.7c1.4 2.5.6 4-.2 6.8-.7 3.1-.1 4.1 1 6.3-3.9-2.3-3.5-5.5-1.9-9 1.1-2.2 1-2.6 1.1-4.1zM16.7 0c4.6 5 1.8 8.4 0 13.3-1.1-3.6 1.7-6 .4-11.2-.2-1-.4-1.5-.4-2.1zm8.5 3.7c1.4 2.5.6 4-.2 6.8-.7 3.1-.1 4.1 1 6.3-3.9-2.3-3.5-5.5-1.9-9 1.1-2.2.9-2.6 1.1-4.1zM26.8 0c4.6 5 1.8 8.4 0 13.3-1.1-3.6 1.7-6 .4-11.2-.2-1-.3-1.5-.4-2.1zm1.8 20.5h-2l2.8 9.6c.1.4-.5.7-1.3.7h-.4c-.5 0-1.5-.2-1.6-.7l-.2-1-1.6-7-.1-.4c-.3-1.6-6.9-1.6-6.8 0v.5l.3 7.2v.7c0 .9-3.4.9-3.4 0v-.7l.3-7.3v-.4c0-.2-.1-.3-.2-.5-.6-.5-2-.7-2.9-.7h-.3c-1.5 0-3.2.5-3.4 1.2l-1.6 7.2-.3 1.2c-.2.9-3.6.9-3.4 0l2.8-9.6h-2l-3.4 9.6C-.3 31.2 1.4 32 3.5 32H4c2.2 0 4.3-.8 4.5-1.9l1.3-8c.1-.4 0-.5.5-.7.7-.3 2.4-.2 2.3.3v.4l-.7 7.3-.1.7c-.1 1.1 2 1.9 4 1.9h.5c2.1 0 4.1-.8 4-1.9l-.1-.7-.7-7.2c0-.5-.1-.5 0-.7.2-.2.7-.3 1.1-.3h.4c.3 0 1.2.1 1.2.4l.1.4 1.2 7 .2 1c.2 1.1 2.3 1.9 4.5 1.9.5 0 2.1.1 3.2-.6.5-.3.9-.8.7-1.3l-3.5-9.5z"/>
</svg>