<svg id="li-roofing-material" xmlns="http://www.w3.org/2000/svg" viewBox="0 0 32 32">
    <path d="M2.4 14.4V32h27.2V14.4L16 6.5z"/>
    <path d="M16 0L0 9.3l.8 1.4c7.5-4.4-1.4.8 15.2-8.8 4 2.3-3.1-1.8 15.2 8.8l.8-1.4L16 0z"/>
    <path d="M16 3L2.4 10.8v2.5L16 5.4l.1.1 13.5 7.8v-2.5L16 3zM3.7 12h-.4v-.4h.4v.4zm.8-1.1h-.4v-.4h.4v.4zm1.2-.1h-.4v-.4h.4v.4zm.7-1H6v-.4h.4v.4zm1.1 0h-.4v-.4h.4v.4zm.4-1h-.4v-.4h.4v.4zm1.2.2h-.4v-.4h.4V9zm.5-1h-.4v-.4h.4V8zm1 0h-.4v-.4h.4V8zm.7-1h-.4v-.4h.4V7zm1.2 0h-.4v-.4h.4V7zm.6-1.1h-.4v-.4h.4v.4zm1.3-.1H14v-.4h.4v.4zm.6-1h-.4v-.4h.4v.4zm1.2-.5h-.4v-.4h.4v.4zm.9.9h-.4v-.4h.4v.4zm1.1.1h-.4v-.4h.4v.4zm.7 1h-.4v-.4h.4v.4zm1.1.1h-.4V6h.4v.4zm.7 1h-.4V7h.4v.4zm1.1 0h-.4V7h.4v.4zm.5.9H22V8h.4v.3zm1.1 0H23V8h.4v.3zm.6 1h-.4v-.4h.4v.4zm1.1 0h-.4v-.4h.4v.4zm.6.9h-.4v-.4h.4v.4zm1.1.1h-.4v-.4h.4v.4zm.6.9H27v-.4h.4v.4zm1.1 0h-.4v-.4h.4v.4zm.4.9h-.4v-.4h.4v.4z"/>
</svg>
