<svg id="li-safe" xmlns="http://www.w3.org/2000/svg" viewBox="0 0 32 32">
    <path d="M17.5 19.9c-3.2.8-6.5-1-7.3-4.2-.8-3.3 1.1-6.4 4.4-7.2 3.2-.8 6.5 1.1 7.3 4.3.7 3.1-1.2 6.2-4.4 7.1zm-2.7-8.5c-1.7 1.2-2.3 2.7-1.5 4.1.6 1.2 2.1 1.9 3.5 1.6 1.4-.3 2.3-1.6 2.3-3-.1-1.7-1.1-2.6-3.3-2.9-.3-.7-.5-1.3-.8-2-.2.1-.3.1-.5.2 0 .6.2 1.2.3 2z"/>
    <path d="M32 4.4C32 1.5 30 0 27.9 0 23.6.1 19.3 0 15 0H3.7C1.6 0 0 1.6 0 3.8v21.6c0 1.5.7 2.7 2 3.3.5.3.7.5.6 1.1v.6c0 1 .5 1.5 1.4 1.6h2.6c.9 0 1.3-.6 1.4-1.5v-1.3h16v1.1c0 1.2.5 1.6 1.6 1.7h2.2c1.1 0 1.6-.5 1.6-1.7 0-.2-.1-.5 0-.7.1-.2.2-.5.4-.6 1.5-.8 2.3-2 2.3-3.9-.1-6.9-.2-13.8-.1-20.7zM16 23.3c-5.1 0-9.3-4.1-9.3-9.2S10.9 5 16 5s9.3 4.1 9.3 9.2-4.2 9.1-9.3 9.1z"/>
</svg>
