<svg id="li-sawing-wood" xmlns="http://www.w3.org/2000/svg" viewBox="0 0 32 32">
    <path d="M24.3 15.2c.2.2.6.2.8 0l5.8-5.8 1-1c.2-.2.2-.6 0-.8l-.4-.4c-.2-.2-.6-.3-.9-.1l-.9.5-5.3-5.3.5-.9c.1-.3.1-.7-.1-.9l-.4-.4c-.2-.2-.6-.2-.8 0l-.7.7-6.1 6.1c-.2.2-.2.6 0 .8l7.5 7.5zm-2-11.6l6 6-3.2 3.2-6-6 3.2-3.2zm0 13.5l-.1-1.5 1.7.2v-.4l-6.6-6.6L6.7 19.3l-2.4 2.4h11.6l-.1-1v-.1l1.6.3v-1.5l1.6.2v-1.4l1.6.2-.1-1.5h.1zM0 22.7h32v3.4H0zm8 5.5v-1.1H0v3l1.7 1.7 1.6.2v-1.5h.1l1.5.2-.1-1.4.1-.1 1.5.3v-1.4l.1-.1z"/>
</svg>
