<svg xmlns="http://www.w3.org/2000/svg" viewBox="0 0 32 32">
    <path d="M29.9 5.5h-.3V3.4c.3-.2.5-.5.7-.8v-.7c0-.2 0-.3-.1-.5v-.2s0-.1-.1-.1c0-.1-.1-.2-.1-.2s0-.1-.1-.1l-.1-.1-.1-.1-.1-.1-.1-.1c-.1-.3-.4-.4-.7-.4h-.6c-.6.3-1 .9-1 1.7 0 .7.3 1.3.8 1.6v2.1H4v-2c.5-.3.8-.9.8-1.6 0-.8-.4-1.4-1-1.7h-.6c-.3-.1-.6 0-.9.2l-.1.1s-.1 0-.1.1L2 .6v.1l-.1.1-.1.1V1s0 .1-.1.1c-.1.3-.1.5-.1.7v.7c.1.3.4.6.7.8v2.1H0v7.8h2.4v1.1H0V22h2.4v9.6H4v-5.8h24v5.8h1.6V22H32v-7.8h-2.4v-1.1H32V5.5h-2.1zM28 24.4H4v-2.6h24v2.6zm0-10.2H4v-1.1h24v1.1z"/>
    <path d="M31.6 29.3c-.7-.2-1.4-.4-2.1-.5l-1.8-.3c-.3-.1-1-.2-1.1-.5.5-.2 1.1-.3 1.7-.5.3-.1.4-.2.3-.3 0-.1-.1-.1-.2-.2h-.2c-.8-.1-1.6-.1-2.4-.1-.5 0-1.3.1-1.7 0 .3-.2 1-.4 1.1-.7-.6.2-1.1.2-1.7.3-.7.1-1.2.4-1.9.3-.3 0-.6 0-.7-.2 0 0 0-.1.1-.2s.2-.2.2-.3c-.2 0-.5 0-.7.1-.8.2-1.6.3-2.3.6-.3.1-.6.3-.9.4-.1 0-.1.1-.1.1h-.1l-.1-.1-.2-.2v-.1c-1.3.1-2.6.5-3.9.3-.4-.1-.8-.1-1.2.1-.3.2-.6.5-.7.7-.1-.1-.2-.1-.3-.2-.2-.1-.5-.3-.7-.4-1.3-.5-2.8-.8-4-1.5 0 0 .1 0 .1.1 0 0 .1 0 .1.1.1 0 .1.1.2.1l.5.5c.4.4.8.8 1.1 1.3v.1c.2.5-.2.6-.7.6H5.5c-.7 0-1.3 0-2 .1-.6.1-1.2.1-1.8.2-.3 0-.8 0-1.1.1.9-.1 2.5-.1 4.1.1.8.1 1.5.5 2.2.8.5.2 1 .4 1.6.5.2 0 .3.1.5.1-.7.2-2.6.1-2.8.8.4.1 1 .1 1.4.1h1.7c.7 0 1.4-.1 2.1-.2h3.1c.3 0 .8-.1 1.1.1-.5.2-.9.4-1.4.6.5-.1 1-.2 1.6-.3h.7c.6 0 1.3 0 1.9-.2.5-.1.9-.6 1.5-.5.1 0 .2.1.3.1 0 0 0 .1.1.1v.6l.1-.1c.2-.2.4-.3.6-.5.3-.2.5-.3.8-.4.3-.1.7-.1 1.1-.1.4 0 .8.1 1.1.2.2.1.5.2.7.3.2.1.3.1.5.2.3.1.7 0 1 0h1.3c.7.1 1.2.1 1.9-.1.2-.1.6-.2.6-.3h-.1c-.6-.2-1.1-.2-1.6-.5.6 0 1.3-.1 1.9-.1.8 0 1.3-.1 1.9-.5 0-.4-.1-.5-.5-.6zm139.1-173.6l-1.2-1.8-1.2 1.8c-7.7 11.8-12.6 20.6-6.2 27.1 2 2 4.6 3.1 7.4 3.1 2.8 0 5.4-1.1 7.4-3.1 6.4-6.5 1.5-15.3-6.2-27.1zm-1.1 27.5c-2 0-4-.8-5.4-2.3-3.6-3.6-2.6-8.3 1.9-16.1-2.8 6.1-3.3 11.2.7 15.3 1.4 1.4 3 2.3 4.9 2.8-.7.2-1.4.3-2.1.3z"/>
    <path d="M155.5-134.1l-.8-1.2-.8 1.2c-5.1 7.8-8.4 13.7-4.1 18 1.3 1.3 3 2.1 4.9 2.1 1.8 0 3.6-.7 4.9-2.1 4.3-4.3 1-10.2-4.1-18z"/>
</svg>
