<svg id="li-snowflake-sun" xmlns="http://www.w3.org/2000/svg" viewBox="0 0 32 32">
    <path d="M30.8 14.8H27c-.1-1.1-.4-2.2-.9-3.2l3.3-1.9c.6-.4.8-1.1.5-1.7-.3-.6-1.1-.8-1.7-.5l-3.3 1.9c-.7-.9-1.5-1.7-2.3-2.3l1.9-3.3c.3-.6.1-1.3-.5-1.7-.6-.3-1.3-.1-1.7.5l-1.9 3.3c-1-.4-2.1-.7-3.2-.9V1.2c0-.4-.2-.8-.5-1-.2-.1-.4-.2-.7-.2-.7 0-1.2.6-1.2 1.2v3.2l-2.2-2.2c-.5-.5-1.3-.5-1.7 0-.5.5-.5 1.3 0 1.7l3.9 3.9V10l-1.5 1.5-5.4-5.3c-.5-.5-1.3-.5-1.7 0-.5.5-.5 1.3 0 1.7l5.3 5.3-1.5 1.6H7.9l-4.4-4.4c-.5-.5-1.3-.5-1.7 0-.5.5-.5 1.3 0 1.7l2.7 2.7H1.2c-.6 0-1.2.5-1.2 1.2s.6 1.2 1.2 1.2h3.2l-2.7 2.7c-.5.5-.5 1.3 0 1.7.3.3.6.4.9.4.3 0 .6-.1.9-.4l4.4-4.4H10l1.6 1.6-5.4 5.3c-.5.5-.5 1.3 0 1.7.2.2.6.4.9.4.3 0 .6-.1.9-.4l5.4-5.3 1.5 1.5v2l-4.1 4c-.5.5-.5 1.3 0 1.7.2.2.6.4.9.4s.6-.1.9-.4l2.2-2.2v3.2c0 .7.6 1.2 1.2 1.2.7 0 1.2-.6 1.2-1.2V27c1.1-.1 2.2-.4 3.2-.9l1.9 3.3c.2.4.6.6 1.1.6.2 0 .4-.1.6-.2.6-.3.8-1.1.5-1.7l-1.9-3.3c.9-.7 1.7-1.5 2.3-2.3l3.3 1.9c.2.1.4.2.6.2.4 0 .8-.2 1.1-.6.3-.6.1-1.3-.5-1.7l-3.3-1.9c.4-1 .7-2.1.9-3.2h3.8c.7 0 1.2-.6 1.2-1.2 0-.7-.6-1.2-1.2-1.2zm-13.6 9.7V21l-5-5 5-5V7.5c4.2.6 7.4 4.2 7.4 8.5s-3.2 7.9-7.4 8.5z"/>
</svg>
