<svg id="li-snowflake-alt" xmlns="http://www.w3.org/2000/svg" viewBox="0 0 32 32">
    <path d="M28.9 17.9L25.3 20c-.2.1-.3.1-.5 0-.7-.4-1.4-.8-2.1-1.3.4 0 .7-.1 1.1-.1.4 0 .7-.3.8-.7.1-.4 0-.8-.3-1.1-.2-.2-.5-.3-.9-.3-1.2.1-2.3.2-3.5.3-.3 0-.5 0-.7-.2l-.6-.3c-.3-.1-.3-.3-.3-.6s.2-.3.3-.4c.6-.5 1.2-.5 1.9-.4 1 .2 1.9.2 2.9.3.5 0 .9-.2 1-.6.2-.4.1-.9-.3-1.2-.2-.1-.4-.2-.6-.2-.3-.1-.7-.1-1-.1V13l2.1-1.2h.4c1.2.7 2.4 1.5 3.7 2.2.6.3 1.2.1 1.4-.4.2-.5 0-1-.4-1.3-.9-.5-1.7-1.1-2.6-1.6-.1-.1-.2-.1-.3-.2.2-.1.5-.3.7-.4.6-.3 1.1-.6 1.7-1 .5-.3.7-.9.4-1.4-.3-.5-.9-.6-1.4-.3l-2.1 1.2c.3.4.2.4.1.5V5.8c0-.7-.4-1.1-1-1.1s-1 .5-1 1.1v4.1c0 .2-.1.4-.3.5-.7.4-1.4.8-2.2 1.2.2-.4.3-.7.5-1 .2-.6 0-1.1-.5-1.4-.5-.2-1.1 0-1.4.6-.5 1.1-1 2.2-1.5 3.2-.1.2-.2.4-.5.5l-.6.3c-.2.1-.3.1-.5 0s-.2-.2-.2-.4c-.1-.7.1-1.3.6-1.9.6-.7 1.2-1.6 1.7-2.4.4-.5.3-1.1-.2-1.5-.4-.3-1-.2-1.4.3-.2.3-.4.6-.7.9V6.1c0-.1.1-.2.2-.2 1.2-.7 2.5-1.3 3.7-2 .7-.4.8-1.1.3-1.6-.2-.3-.7-.4-1.1-.1-.9.5-1.7.9-2.6 1.4-.1.1-.2.1-.3.2V1.1c0-.7-.4-1.1-1-1.1s-1 .4-1 1.1v2.7c-.5-.3-.9-.5-1.3-.8-.5-.3-1.1-.6-1.6-.9-.7-.3-1.3-.1-1.6.4-.3.5-.1 1.1.4 1.4 1.2.7 2.4 1.4 3.7 2.1.2 0 .3.2.3.4v2.5c-.2-.4-.4-.6-.6-.9-.4-.5-1-.6-1.4-.3-.5.3-.5.9-.2 1.4.7 1 1.3 1.9 2 2.9.2.2.2.4.2.7v.7c0 .2.1.3-.2.5-.2.1-.4.1-.6 0-.6-.3-1-.8-1.3-1.5l-1.2-2.7c-.3-.5-.8-.7-1.2-.6-.5.1-.8.5-.8 1 0 .2.1.3.1.5.1.3.2.6.4.9v.1c-.1 0-.2-.1-.2-.1-.6-.4-1.2-.7-1.9-1.1-.2-.2-.3-.4-.3-.6C8 8.4 8 7 8 5.6c0-.5-.3-.9-.7-1.1-.6-.1-1.2.3-1.3 1 0 1-.1 2-.1 3v.4L4.4 8l-.6-.3c-.5-.4-1-.4-1.5 0-.1.1-.2.3-.2.4-.1.6.1 1 .7 1.3.7.4 1.4.8 2.2 1.3-.4.3-.8.5-1.2.7-.5.3-1.1.6-1.6 1-.6.3-.7.9-.4 1.4.3.5.9.6 1.5.3L6.9 12c.2-.1.3-.1.5 0 .7.4 1.4.8 2.1 1.3-.4 0-.7.1-1.1.1-.4 0-.7.3-.8.7-.1.4 0 .8.3 1.1.2.2.5.3.9.3 1.2-.1 2.3-.2 3.5-.3.3 0 .5 0 .7.2l.6.3c.3.1.3.3.3.6s-.2.3-.3.4c-.6.5-1.2.5-1.9.4-1-.2-1.9-.2-2.9-.3-.5 0-.9.2-1 .6-.2.4-.1.9.3 1.2.2.1.4.2.6.2.3.1.7.1 1 .1v.1l-2.1 1.2h-.4C6 19.5 4.8 18.7 3.5 18c-.6-.3-1.2-.1-1.4.4-.2.5 0 1 .4 1.3.9.5 1.7 1.1 2.6 1.6.1.1.2.1.3.2-.2.1-.5.3-.7.4-.6.3-1.1.6-1.7 1-.5.3-.7.9-.4 1.4.3.5.9.6 1.4.3l2.1-1.2c-.5-.4-.4-.4-.3-.5v3.3c0 .7.4 1.1 1 1.1s1-.5 1-1.1v-4.1c0-.2.1-.4.3-.5.7-.4 1.4-.8 2.2-1.2-.2.4-.3.7-.5 1-.2.6 0 1.1.5 1.4.5.2 1.1 0 1.4-.6.5-1.1 1-2.2 1.5-3.2.1-.2.2-.4.5-.5l.6-.3c.2-.1.3-.1.5 0s.2.2.2.4c.1.7-.1 1.3-.6 1.9-.6.7-1.2 1.6-1.7 2.4-.4.5-.3 1.1.2 1.5.4.3 1 .2 1.4-.3.2-.3.4-.6.7-.9v2.7c0 .1-.1.2-.2.2-1.2.7-2.5 1.3-3.7 2-.7.4-.8 1.1-.3 1.6.3.3.8.4 1.2.1.9-.5 1.7-.9 2.6-1.4.1-.1.2-.1.3-.2v2.7c0 .7.4 1.1 1 1.1s1-.4 1-1.1v-2.7c.5.3.9.5 1.3.8.5.3 1.1.6 1.6.9.5.3 1.1.2 1.4-.3.3-.5.1-1.1-.4-1.4-1.2-.7-2.4-1.4-3.7-2.1-.2-.1-.3-.2-.3-.4v-2.5c.2.4.4.6.6.9.4.5 1 .6 1.4.3.5-.3.5-.9.2-1.4-.7-1-1.3-1.9-2-2.9-.2-.2-.2-.4-.2-.7v-.7c0-.2-.1-.3.2-.5.2-.1.4-.1.6 0 .6.3 1 .8 1.3 1.5l1.2 2.7c.2.5.7.7 1.1.6.5-.1.8-.5.8-1 0-.2-.1-.3-.1-.5-.1-.3-.2-.6-.4-.9v-.1c.1 0 .2.1.2.1.6.4 1.2.7 1.9 1.1.2.1.2.2.2.4 0 1.4-.1 2.8-.1 4.2 0 .5.3.9.7 1.1.7.2 1.3-.3 1.3-1 0-1 .1-2 .1-3V23c.6.3 1.1.6 1.6.9l.6.3c.5.4 1 .4 1.5 0 .1-.1.2-.3.3-.4.1-.6-.2-1-.7-1.3-.7-.4-1.4-.8-2.2-1.3.4-.3.8-.5 1.2-.7.5-.3 1.1-.6 1.6-1 .6-.3.7-.9.4-1.4 0-.4-.6-.5-1.2-.2z"/>
</svg>