<svg id="li-snowflake-sun-alt" xmlns="http://www.w3.org/2000/svg" viewBox="0 0 32 32">
    <path d="M16.9.1c-.1-.2-.3-.1-.3.1v4.4c-.1 1.1.4 1.4 1.3 1.5 4.8.5 8.5 4.7 8.6 9.5.1 5.1-3.7 9.4-8.7 10.1-.4.1-1.1.3-1.2.6-.1 1.5-.1 3.1-.1 4.6 0 .2.3.3.4.1.8-1.4 1.2-3.3 3.1-3.2 1.2.1 2.5.8 3.6 1.4.4.2.9-.1.9-.6-.1-.6-.1-1.2-.1-1.8 0-2.1.9-2.9 2.9-2.9.6 0 1.3.1 2 .1.5 0 .9-.6.5-1-.2-.3-.5-.6-.7-.9-1.6-2.4-1.2-3.8 1.3-5.1.4-.2.7-.3 1.1-.5.5-.2.5-.9 0-1.1-.5-.2-.9-.4-1.3-.6-2.2-1.1-2.6-2.5-1.3-4.6.3-.4.6-.9.9-1.3.3-.4 0-1-.6-1-.5.1-1 .1-1.5.2-2.3.1-3.3-.9-3.3-3.2 0-.6.1-1.1.1-1.7.1-.5-.6-.9-1-.5-.3.2-.6.4-.8.6-2.3 1.6-3.8 1.2-5.1-1.3 0-.6-.4-1.4-.7-1.9zm7.9 15.7c0-3.9-3-7.5-6.8-8.1-.9-.1-1.4 0-1.4 1.1v13.8c0 1.2.5 1.3 1.5 1.2 3.7-.5 6.7-4.1 6.7-8z"/>
    <path d="M16.9.1c-.1-.2-.3-.1-.3.1v4.4c-.1 1.1.4 1.4 1.3 1.5 4.8.5 8.5 4.7 8.6 9.5.1 5.1-3.7 9.4-8.7 10.1-.4.1-1.1.3-1.2.6-.1 1.5-.1 3.1-.1 4.6 0 .2.3.3.4.1.8-1.4 1.2-3.3 3.1-3.2 1.2.1 2.5.8 3.6 1.4.4.2.9-.1.9-.6-.1-.6-.1-1.2-.1-1.8 0-2.1.9-2.9 2.9-2.9.6 0 1.3.1 2 .1.5 0 .9-.6.5-1-.2-.3-.5-.6-.7-.9-1.6-2.4-1.2-3.8 1.3-5.1.4-.2.7-.3 1.1-.5.5-.2.5-.9 0-1.1-.5-.2-.9-.4-1.3-.6-2.2-1.1-2.6-2.5-1.3-4.6.3-.4.6-.9.9-1.3.3-.4 0-1-.6-1-.5.1-1 .1-1.5.2-2.3.1-3.3-.9-3.3-3.2 0-.6.1-1.1.1-1.7.1-.5-.6-.9-1-.5-.3.2-.6.4-.8.6-2.3 1.6-3.8 1.2-5.1-1.3 0-.6-.4-1.4-.7-1.9z"/>
    <path d="M24.8 15.8c0-3.9-3-7.5-6.8-8.1-.9-.1-1.4 0-1.4 1.1v13.8c0 1.2.5 1.3 1.5 1.2 3.7-.5 6.7-4.1 6.7-8zM15 .6c-.4-.2-.4-.3-.7-.3-.6 0-1 .4-1 1.1v2.7c-.5-.3-.9-.5-1.3-.8-.5-.3-1-.6-1.6-.9-.5-.3-1.1-.1-1.3.4-.3.5-.2 1 .4 1.3l3.6 2.1c.2.1.3.2.2.4v2.5l-.6-.9c-.4-.5-1-.6-1.4-.3-.5.3-.5.9-.2 1.4.7 1 1.3 1.9 2 2.9.1.2.2.4.2.7v.6c0 .2.1.3-.2.4-.2.1-.4.1-.6 0-.6-.3-1-.8-1.3-1.4-.3-.9-.8-1.8-1.2-2.7-.2-.4-.6-.6-1.1-.5-.4.1-.8.5-.8 1 0 .2.1.3.1.5.1.3.2.6.4.9v.1c-.1 0-.2-.1-.2-.1-.6-.4-1.2-.7-1.8-1.1-.2-.1-.2-.2-.2-.4 0-1.4.1-2.8.1-4.2 0-.5-.3-.9-.7-1-.6-.2-1.2.3-1.3 1 0 1-.1 2-.1 3v.4c-.5-.3-1-.6-1.6-.9-.1-.4-.3-.5-.5-.6-.5-.4-1-.4-1.5 0 0 .1-.1.3-.2.4-.1.6.2 1 .7 1.3.7.4 1.4.8 2.1 1.3-.4.3-.8.5-1.2.7-.5.3-1.1.6-1.6 1-.5.3-.7.9-.4 1.4.3.5.9.6 1.4.3 1.2-.7 2.4-1.4 3.5-2.1.2-.1.3-.1.5 0 .7.4 1.3.8 2 1.3-.4 0-.7.1-1.1.1-.4 0-.7.3-.8.7-.1.4 0 .8.3 1.1.2.2.5.3.8.3 1.1-.1 2.3-.2 3.4-.3.2 0 .5 0 .7.2l.6.3c.3.1.3.3.3.6s-.2.3-.3.4c-.6.4-1.2.5-1.9.4-.9-.2-1.9-.2-2.9-.3-.5 0-.9.2-1 .6-.2.4-.1.9.3 1.2.2.1.4.2.6.2.3.1.6.1 1 .1v.1l-2.1 1.2h-.3c-1.2-.7-2.4-1.5-3.6-2.2-.5-.3-1.2-.1-1.4.4-.2.5 0 1 .4 1.3.8.5 1.7 1 2.5 1.6.1.1.2.1.3.2-.2.1-.4.3-.7.4-.5.3-1.1.6-1.6.9-.5.3-.7.9-.4 1.4.3.5.9.6 1.4.3.7-.4 1.3-.8 2-1.2.1 0 .2-.1.3-.2v3.3c0 .7.4 1.1 1 1.1s1-.5 1-1.1v-4.1c0-.2.1-.4.3-.5l2.1-1.2c-.2.4-.3.7-.5 1-.2.5 0 1.1.4 1.3.5.2 1.1 0 1.3-.5.5-1.1 1-2.1 1.5-3.2.1-.2.2-.4.5-.5l.6-.3c.2-.1.3-.1.5 0s.2.2.2.4c.1.7-.1 1.3-.6 1.8-.6.7-1.1 1.6-1.7 2.3-.4.5-.3 1.1.2 1.5.4.3 1 .2 1.4-.3.2-.3.4-.6.7-.9V26c0 .1-.1.2-.2.2-1.2.7-2.4 1.3-3.6 2-.6.4-.8 1.1-.3 1.6.3.3.8.4 1.2.1.9-.5 1.7-.9 2.5-1.4.1-.1.2-.1.3-.2V31c0 .7.4 1.1 1 1.1.4 0 .5-.3.9-.7V.6z"/>
    <path d="M15 .6c-.4-.2-.4-.3-.7-.3-.6 0-1 .4-1 1.1v2.7c-.5-.3-.9-.5-1.3-.8-.5-.3-1-.6-1.6-.9-.5-.3-1.1-.1-1.3.4-.3.5-.2 1 .4 1.3l3.6 2.1c.2.1.3.2.2.4v2.5l-.6-.9c-.4-.5-1-.6-1.4-.3-.5.3-.5.9-.2 1.4.7 1 1.3 1.9 2 2.9.1.2.2.4.2.7v.6c0 .2.1.3-.2.4-.2.1-.4.1-.6 0-.6-.3-1-.8-1.3-1.4-.3-.9-.8-1.8-1.2-2.7-.2-.4-.6-.6-1.1-.5-.4.1-.8.5-.8 1 0 .2.1.3.1.5.1.3.2.6.4.9v.1c-.1 0-.2-.1-.2-.1-.6-.4-1.2-.7-1.8-1.1-.2-.1-.2-.2-.2-.4 0-1.4.1-2.8.1-4.2 0-.5-.3-.9-.7-1-.6-.2-1.2.3-1.3 1 0 1-.1 2-.1 3v.4c-.5-.3-1-.6-1.6-.9-.1-.4-.3-.5-.5-.6-.5-.4-1-.4-1.5 0 0 .1-.1.3-.2.4-.1.6.2 1 .7 1.3.7.4 1.4.8 2.1 1.3-.4.3-.8.5-1.2.7-.5.3-1.1.6-1.6 1-.5.3-.7.9-.4 1.4.3.5.9.6 1.4.3 1.2-.7 2.4-1.4 3.5-2.1.2-.1.3-.1.5 0 .7.4 1.3.8 2 1.3-.4 0-.7.1-1.1.1-.4 0-.7.3-.8.7-.1.4 0 .8.3 1.1.2.2.5.3.8.3 1.1-.1 2.3-.2 3.4-.3.2 0 .5 0 .7.2l.6.3c.3.1.3.3.3.6s-.2.3-.3.4c-.6.4-1.2.5-1.9.4-.9-.2-1.9-.2-2.9-.3-.5 0-.9.2-1 .6-.2.4-.1.9.3 1.2.2.1.4.2.6.2.3.1.6.1 1 .1v.1l-2.1 1.2h-.3c-1.2-.7-2.4-1.5-3.6-2.2-.5-.3-1.2-.1-1.4.4-.2.5 0 1 .4 1.3.8.5 1.7 1 2.5 1.6.1.1.2.1.3.2-.2.1-.4.3-.7.4-.5.3-1.1.6-1.6.9-.5.3-.7.9-.4 1.4.3.5.9.6 1.4.3.7-.4 1.3-.8 2-1.2.1 0 .2-.1.3-.2v3.3c0 .7.4 1.1 1 1.1s1-.5 1-1.1v-4.1c0-.2.1-.4.3-.5l2.1-1.2c-.2.4-.3.7-.5 1-.2.5 0 1.1.4 1.3.5.2 1.1 0 1.3-.5.5-1.1 1-2.1 1.5-3.2.1-.2.2-.4.5-.5l.6-.3c.2-.1.3-.1.5 0s.2.2.2.4c.1.7-.1 1.3-.6 1.8-.6.7-1.1 1.6-1.7 2.3-.4.5-.3 1.1.2 1.5.4.3 1 .2 1.4-.3.2-.3.4-.6.7-.9V26c0 .1-.1.2-.2.2-1.2.7-2.4 1.3-3.6 2-.6.4-.8 1.1-.3 1.6.3.3.8.4 1.2.1.9-.5 1.7-.9 2.5-1.4.1-.1.2-.1.3-.2V31c0 .7.4 1.1 1 1.1.4 0 .5-.3.9-.7V.6z"/>
</svg>
