<svg id="li-snowflake" xmlns="http://www.w3.org/2000/svg" viewBox="0 0 32 32">
    <path d="M30.8 14.8h-3.2l2.7-2.7c.5-.5.5-1.3 0-1.7-.3-.3-.6-.4-.9-.4-.3 0-.6.1-.9.4l-4.4 4.4H22l-1.6-1.6 5.4-5.3c.5-.5.5-1.3 0-1.7-.2-.2-.6-.4-.9-.4-.3 0-.6.1-.9.4l-5.4 5.3-1.3-1.5V8l3.9-4c.5-.5.5-1.3 0-1.7-.2-.2-.6-.4-.9-.4-.3 0-.6.1-.9.4l-2.2 2.2V1.2c0-.6-.5-1.1-1.1-1.2H16c-.7 0-1.2.6-1.2 1.2v3.2l-2.2-2.2c-.5-.5-1.3-.5-1.7 0-.5.5-.5 1.3 0 1.7l3.9 3.9V10l-1.5 1.5-5.4-5.3c-.5-.5-1.3-.5-1.7 0-.5.5-.5 1.3 0 1.7l5.3 5.3-1.5 1.5H7.9l-4.4-4.4c-.5-.5-1.3-.5-1.7 0-.5.5-.5 1.3 0 1.7l2.7 2.7H1.2c-.7.1-1.2.6-1.2 1.3 0 .7.6 1.2 1.2 1.2h3.2l-2.7 2.7c-.5.5-.5 1.3 0 1.7.3.3.6.4.9.4.3 0 .6-.1.9-.4l4.4-4.4H10l1.6 1.6-5.4 5.3c-.5.5-.5 1.3 0 1.7.2.2.6.4.9.4.3 0 .6-.1.9-.4l5.4-5.3 1.5 1.5v2l-4.1 4c-.5.5-.5 1.3 0 1.7.2.2.6.4.9.4.3 0 .6-.1.9-.4l2.2-2.2v3.2c0 .6.5 1.1 1.1 1.2h.1c.7 0 1.2-.6 1.2-1.2v-3.2l2.2 2.2c.5.5 1.3.5 1.7 0 .5-.5.5-1.3 0-1.7l-3.9-3.9V22l1.5-1.5 5.3 5.3c.5.5 1.3.5 1.7 0 .5-.5.5-1.3 0-1.7l-5.3-5.3 1.5-1.5H24l4.4 4.4c.5.5 1.3.5 1.7 0 .5-.5.5-1.3 0-1.7l-2.7-2.7h3.2c.7 0 1.2-.6 1.2-1.2.2-.8-.3-1.3-1-1.3zm-14.8 5L12.2 16l3.8-3.8 3.8 3.8-3.8 3.8z"/>
</svg>
