<svg id="li-solar-panels" xmlns="http://www.w3.org/2000/svg" viewBox="0 0 30.9 32">
    <path d="M22 30.1h-4.7V27h-3.7v3.1H9c-.5 0-.9.4-.9.9v.2c0 .4.4.8.9.8h13c.5 0 .9-.4.9-.9v-.2c-.1-.5-.5-.8-.9-.8zM28.2 0H2.7C1.2 0 0 1.2 0 2.7V23c0 1.5 1.2 2.7 2.7 2.7h25.5c1.5 0 2.7-1.2 2.7-2.7V2.7c0-1.5-1.2-2.7-2.7-2.7zM10.3 22.4l-.7.7h-6l-.7-.7v-4.8l.7-.7h6l.7.7v4.8zm0-7.2l-.7.7h-6l-.7-.7v-4.8l.7-.7h6l.7.7v4.8zm0-7.3l-.7.8h-6l-.7-.8V3.1l.7-.7h6l.7.7v4.8zm8.9 14.5l-.7.7h-6l-.7-.7v-4.8l.7-.7h6l.7.7v4.8zm0-7.2l-.7.7h-6l-.7-.7v-4.8l.7-.7h6l.7.7v4.8zm0-7.3l-.7.7h-6l-.7-.7V3.1l.7-.7h6l.7.7v4.8zm8.9 14.5l-.7.7h-6l-.7-.7v-4.8l.7-.7h6l.7.7v4.8zm0-7.2l-.7.7h-6l-.7-.7v-4.8l.7-.7h6l.7.7v4.8zm0-7.3l-.7.7h-6l-.7-.7V3.1l.7-.7h6l.7.7v4.8z"/>
</svg>