<svg id="li-sound" xmlns="http://www.w3.org/2000/svg" viewBox="0 0 32 32">
    <path d="M20.5 15.1v-.2c0-.1 0-.1-.1-.2 0-.1 0-.1-.1-.2 0-.1 0-.1-.1-.2 0-.1-.1-.2-.1-.3 0 0 0-.1-.1-.1 0-.1-.1-.1-.1-.2l-.1-.1c0-.1-.1-.2-.2-.2l-.1-.1-.3-.3c-1.3-1.4-3.3-1.7-5-1l-5-5.7c-.6-.6-1.5-.6-2.1 0s-.6 1.4-.1 2L3.6 19.9.5 23c-.6.6-.6 1.5 0 2.1l3 3.2 3 3.2c.6.6 1.5.6 2.1 0l3.2-3.1 11.5-2.9c.6.6 1.5.6 2.1 0 .6-.6.6-1.5 0-2.1L20.2 18c0-.1 0-.1.1-.2 0 0 0-.1.1-.1 0-.1.1-.2.1-.3 0-.1 0-.1.1-.2 0-.1 0-.1.1-.2v-1.6c-.1-.2-.1-.3-.2-.3zM17.6 0v1.5c7.3.2 13.1 6.3 12.9 13.7H32C32.2 7 25.7.2 17.6 0z"/>
    <path d="M17.5 3.7v1.5c5.3.1 9.5 4.6 9.3 9.9h1.5C28.5 9 23.6 3.9 17.5 3.7z"/>
    <path d="M17.5 7.5V9c3.2.1 5.8 2.8 5.7 6.1h1.5c0-4.1-3.2-7.5-7.2-7.6z"/>
</svg>
