<svg id="li-springs" xmlns="http://www.w3.org/2000/svg" viewBox="0 0 32 32">
    <path d="M26.6 11.3l-5.8-5.9-1.2 1.1 5.8 5.9zM9.3 24.9l.9-.9 1.4 1.5.6-.6-5.1-5.1-.6.6 1.4 1.5-.9.9c-1.8-.9-4.1-.6-5.6.9-1.9 1.9-1.9 5 0 6.9 1.9 1.9 5 1.9 6.9 0 1.6-1.5 1.9-3.8 1-5.7zm-6.5 4.3c-1.2-1.2-1.2-3 0-4.2 1.2-1.2 3-1.1 4.2 0 1.2 1.2 1.2 3 0 4.2-1.2 1.1-3 1.1-4.2 0z"/>
    <path d="M24.2 4.4L22 6.7l3.3 3.4 2.2-2.2c1.2.1 2.5-.3 3.4-1.2 1.5-1.5 1.5-4 0-5.6-1.5-1.5-4-1.5-5.5 0-1 .9-1.4 2.2-1.2 3.3zm5.6-2.1c.9.9.9 2.4 0 3.4-.9.9-2.4.9-3.3 0-.9-.9-.9-2.4 0-3.4.8-1 2.3-1 3.3 0zM17.4 8l6.6 6.6c.5.5 1.1.6 1.3.4.3-.3.1-.9-.4-1.3L18.4 7c-.5-.5-1.1-.6-1.3-.4-.3.3-.2.9.3 1.4zm-2.6 15.8l-6.6-6.6c-.5-.5-1.1-.6-1.3-.4-.3.3-.1.9.4 1.3l6.6 6.6c.5.5 1.1.6 1.3.4.3-.3.1-.9-.4-1.3zm4.4-2.9c.2-.3-.1-.9-.6-1.3L11 14.3c-.5-.4-1.1-.4-1.3-.1-.2.3.1.9.6 1.3l7.5 5.3c.6.4 1.2.5 1.4.1zm-2.4.4L9.3 16c-.5-.4-1.1-.4-1.3-.1-.2.3.1.9.6 1.3l7.5 5.3c.5.4 1.1.4 1.3.1.3-.3 0-.9-.6-1.3zm4.1-2.1c.2-.3-.1-.9-.6-1.3l-7.5-5.3c-.5-.4-1.1-.4-1.3-.1-.2.3.1.9.6 1.3l7.5 5.3c.5.5 1.1.5 1.3.1zm-7.2-7l7.5 5.3c.5.4 1.1.4 1.3.1.2-.3-.1-.9-.6-1.3L14.4 11c-.5-.4-1.1-.4-1.3-.1-.2.3.1.9.6 1.3zm10.5 3.7c.2-.3-.1-.9-.6-1.3l-7.5-5.3c-.5-.4-1.1-.4-1.3-.1-.2.3.1.9.6 1.3l7.5 5.3c.6.4 1.1.4 1.3.1z"/>
</svg>
