<svg id="li-squiggly-alt" xmlns="http://www.w3.org/2000/svg" viewBox="0 0 32.6 32">
    <path d="M5.2 4.5C7 3.1 9.2 3 11.3 4c1.5.7 2.8 2.1 4.1 3.4.2.3.5.5.7.8 2.1 2.2 4.4 3.4 6.9 3.7h.7c2.7 0 5.7-1.9 9-5.8l-1.8-2.4c-3 3.5-5.5 5.1-7.6 4.8-1.9-.2-3.8-1.2-5.4-3l-.7-.7c-1.4-1.5-2.9-3.1-4.8-4-3-1.3-6.1-1-8.6.8C2.6 2.6.9 4.5 0 6l2.1 2c.7-1.2 2.1-2.8 3.1-3.5zm18 14.1c-1.9-.2-3.8-1.2-5.4-3l-.7-.7c-1.4-1.5-2.9-3.1-4.8-4-2.9-1.4-5.9-1.1-8.4.8-1.2.9-3 2.9-3.8 4.4l2.1 2c.7-1.1 2.1-2.8 3-3.5 1.8-1.4 4-1.5 6.1-.5 1.5.7 2.8 2.1 4.1 3.4.2.3.5.5.7.8 2.1 2.2 4.4 3.4 6.9 3.7h.7c2.7 0 5.7-1.9 9-5.8l-1.8-2.4c-3.1 3.5-5.5 5.1-7.7 4.8zm0 10c-1.9-.2-3.8-1.2-5.4-3l-.7-.7c-1.4-1.5-2.9-3.1-4.8-4-2.9-1.4-5.9-1.1-8.4.8-1.2.9-3 2.9-3.8 4.4l2.1 2c.7-1.1 2.1-2.8 3-3.5 1.8-1.4 4-1.5 6.1-.5 1.5.7 2.8 2.1 4.1 3.4.2.3.5.5.7.8 2.1 2.2 4.4 3.4 6.9 3.7h.7c2.7 0 5.7-1.9 9-5.8l-1.8-2.4c-3.1 3.5-5.5 5.1-7.7 4.8z"/>
</svg>
