<svg id="li-sun-leaf" xmlns="http://www.w3.org/2000/svg" viewBox="0 0 32 32">
    <path d="M353.1 657.2c.1-1.3.3-2.4.5-3.1.9-3.4 3-6.2 4.6-8.4-3.1 2.8-3.8 2.8-5.7 7.6-1.4-1.5-1.9-4.2.1-7 1.7-2.5 5.6-1.8 8.7-4.9-.6 3.2 0 5.3-.1 6.9-.3 5.4-3.7 6.8-6.3 6.3-.2.8-.4 1.7-.5 2.7 1 .3 2 .9 2.6 1.9.4-.1.7-.2 1.1-.2 1.7 0 3.1 1 3.7 2.5l-5.8 4.2c-.4-1.9-2-1.8-4.3-1.9-2.1 0-2.8 0-3.9-.9l-1.8-1.4v-.1c0-1.4 1.2-2.6 2.6-2.6.4 0 .8.1 1.2.3.9-1.2 2.1-1.8 3.3-1.9zm-10.5 3.2c.9.7 1.8 1.3 2.7 2 3.8 2.8 4.1 2.1 8.6 2.4 1 .1 1.6 1.7 0 2.3-2.5 1-5.1 1.1-8 0-.4 0-2-1.4-2.5-.9-.5.5-.1.9.5 1.2l1.9 1c2.2.7 6.7 1.1 9.1-.6l6.9-4.7c1.3-.9 1.6-1.1 2.6-.1.6.5-.7 2-1.1 2.2l-10.2 6.8c-1.9 1.3-5.4 1.5-6.2 1l-6.3-3.2c-.8-.4-1.5-.5-2.7.3l-1.5 1c-.4.2-4.1-7.9-3.7-8l6.6-2.7c1.3-.5 2.8-.4 3.3 0zM16.6 4.9L14.2.4c-.3-.6-1.2-.6-1.5.1l-2 4.7c.9-.3 2-.5 3-.5s2 0 2.9.2zM3.2 14.6c.2-1 .6-2 1-2.9.5-.9 1-1.7 1.6-2.4l-5-.1c-.7 0-1.1.8-.7 1.4l3.1 4zm21.2-4.9c.5.9.9 1.7 1.3 2.7L28.2 8c.4-.6-.1-1.4-.8-1.3l-5 .6c.8.7 1.4 1.5 2 2.4zM5.3 23.6c-.5-.9-.9-1.7-1.3-2.7l-2.6 4.4c-.4.6.1 1.4.8 1.3l5-.6c-.6-.7-1.3-1.5-1.9-2.4z"/>
    <path d="M15.4 18.4c2.3-2 5-2.9 7.4-3.5-.2-.3-.3-.7-.5-1-2.9-4.7-9.1-6.1-13.6-3-1.5 1-2.7 2.3-3.4 3.8.5-2.6 2-5.1 4.4-6.6 4.6-3 10.7-1.7 13.6 3 .5.9.9 1.8 1.2 2.8l.7-.7c-.3-.9-.7-1.7-1.2-2.5-3.2-5.1-9.9-6.6-14.9-3.3S2.7 17.5 5.9 22.6c1.3 2.1 3.2 3.5 5.3 4.4.3-3.6 1.7-6.5 4.2-8.6z"/>
    <path d="M30.6 16l-.6-1.2-1.2.7c-1 .6-2.6.9-4.3 1.2-4.9.9-12.2 2.3-10.7 12.6 2.8 2.2 4.7 2.7 6.2 2.7 4.1 0 8-2.1 10.2-5.4 2.2-3.3 2.4-7.2.4-10.6zM28 25.3c-2.2 3.4-6.6 5-10.6 3.9 2.4-2.5 6.5-5.9 6.5-5.9-3.2 1.6-5.1 2.1-7.7 4.2-.4-6.7 4.1-7.6 8.8-8.5 1.4-.3 2.7-.5 3.8-.9 1 2.5.7 5-.8 7.2z"/>
</svg>
