<svg xmlns="http://www.w3.org/2000/svg" viewBox="0 0 32 32">
    <path d="M32 3.5V.8c0-.4-.4-.8-.8-.8H18.7c-.5 0-.8.4-.8.8v2.7c0 .4.4.8.8.8v1.6c0 .4.2.6.5.7h.1c1.5.6 3 1.1 4.5 1.7v9.1c-.3 0-.6.3-.6.6v1h-3.9c-.3 0-.6.3-.6.6l-.6 7.6c0 .3.3.6.6.6h12.6c.3 0 .6-.3.6-.6l-.6-7.6c0-.3-.3-.6-.6-.6h-3.9v-.9c0-.3-.3-.6-.6-.6V8.3c1.5-.6 3-1.1 4.4-1.7h.1c.3-.1.5-.3.5-.7V4.3c.4 0 .8-.4.8-.8zm-2.5 1.8c-1.5.6-3 1.2-4.6 1.7-1.5-.6-3.1-1.1-4.6-1.7v-1h9.2v1z"/>
    <path d="M18.7 29.3c-1.2 0-2.1-1-2.1-2.1v-.1l.6-7.6c0-1.1 1-2.1 2.1-2.1h.4l-4.7-8c-.9-1.5-2.3-1.5-3.2 0L.4 29.3C-.5 30.8.2 32 2 32h23c1.7 0 2.4-1.2 1.6-2.7h-7.9z"/>
</svg>
