<svg id="li-termite-control" xmlns="http://www.w3.org/2000/svg" viewBox="0 0 32 32">
    <path d="M9.7 8.2l1.4 3.9v.1l.1.1 2.2 1.6v-.2c0-.3.1-.5.2-.8l-1.9-1.2L10.1 8v-.1H10l-1-.6c0-.1-.1-.1-.2 0s0 .2.1.3l.8.6zm2.4-5.3v1.8c0 .2.1.4.2.6l.3.6c.4.6.7 1.1 1 1.6l.3-.3c-.3-.5-.6-1-1-1.5-.2-.4-.4-.7-.5-1V3c0-.2-.1-.3-.1-.3 0-.1-.1-.1-.2-.1-.1-.2-.1-.1-.1 0 0 0 0 .1.1.3zm6.2 9.9c.1.2.2.5.2.8v.2l2.2-1.6.1-.1V12l1.4-3.9.9-.6c.1-.1.1-.2.1-.3-.1-.1-.2-.1-.3-.1l-1 .6h-.1v.1l-1.6 3.7-1.9 1.3zm.1-5.2c.3-.5.6-1.1 1-1.6l.3-.6c.1-.2.2-.4.2-.6V3c.1-.3.1-.4.1-.4 0-.1 0-.2-.1-.2s-.2 0-.2.1c0 0 0 .1-.1.3v1.7c0 .4-.2.7-.5 1-.3.5-.7 1-1 1.5.2.4.3.5.3.6zm3.8 17.2l-.9-5.8v-.1l-.1-.1-2.7-2.2c.1.5.2.9.3 1.3l1.9 1.4 1.1 5.6c.4.5.7 1 1.1 1.5.1.1.1.1.2 0 .1 0 .1-.2 0-.2-.3-.4-.6-.9-.9-1.4zm3.3-5.2l-1.2-.4-3.3-4.1-.1-.1h-2.5v.9l2.2-.1 3.4 3.9.1.1h.1l1.3.3c.1 0 .2 0 .2-.1-.1-.2-.1-.3-.2-.4zm-12.3-1.7c.1-.4.2-.8.3-1.3l-2.7 2.2-.1.1v.1l-.9 5.7c-.3.5-.7 1-1 1.5v.2c.1.1.2 0 .2 0 .4-.5.7-1 1.1-1.5l1.1-5.6 2-1.4zm.4-2.1v-.9h-2.5l-.1.2-3.2 4.2-1.2.4c-.1 0-.2.1-.1.2-.1.1 0 .1.1.1l1.3-.3H8v-.1l3.4-3.9 2.2.1z"/>
    <path d="M19.2 22.5c-.1-2.2-1.3-3.5-1.6-6-.1-.8 0-1.8 0-2.9 0-.5-.3-.9-.7-1.2.5-.9 1.1-1.6 1.1-2.5 0-.7 0-1.8-.9-2.3.1-.1.1-.3.2-.5v-.3c0-.1 0-.2-.1-.3-.1-.1-.2-.2-.3-.2h-.3c-.1.1-.2.1-.3.2l-.1.1h.5V7c0 .1 0 .3-.1.4-.3 0-.5.2-.8.2-.3-.1-.5-.2-.8-.2 0-.1-.1-.3-.1-.4v-.4h.5l-.1-.1c-.1-.1-.1-.1-.3-.2-.1 0-.2-.1-.3 0-.1 0-.2.1-.3.2-.1.1-.1.2-.1.3v.3c0 .2.1.3.2.5-.9.5-.9 1.6-.9 2.3 0 .9.6 1.5 1.1 2.5-.4.3-.7.7-.7 1.2 0 1.1.1 2.1 0 2.9-.3 2.4-1.4 3.8-1.6 6-.2 3.8 1.9 7.1 3.2 7.1 1.7 0 3.8-3.3 3.6-7.1z"/>
    <path d="M16 0C7.2 0 0 7.2 0 16s7.2 16 16 16 16-7.2 16-16S24.8 0 16 0zm0 2.5c3.3 0 6.3 1.2 8.6 3.1l-19 19c-1.9-2.3-3.1-5.3-3.1-8.6C2.5 8.6 8.6 2.5 16 2.5zm0 27c-3.3 0-6.3-1.2-8.6-3.1l19-19c1.9 2.3 3.1 5.3 3.1 8.6 0 7.4-6.1 13.5-13.5 13.5z"/>
</svg>
