<svg id="li-thermometer" xmlns="http://www.w3.org/2000/svg" viewBox="0 0 32 32">
    <path d="M19.8 16V5.8c0-.7-.6-1.3-1.3-1.3-.7 0-1.3.6-1.3 1.3V16c-.5.1-.9.3-1.3.5.4.1.9.3 1.2.7 1.1 1.1 1.1 2.8 0 3.9s-2.8 1.1-3.9 0c-.2-.2-.3-.3-.4-.5-.1.4-.1.8-.1 1.2 0 3.2 2.6 5.8 5.8 5.8 3.2 0 5.8-2.6 5.8-5.8 0-2.9-2-5.2-4.5-5.8zM3.2 5.3h6.4v1.6H3.2zm0 4.8h6.4v1.6H3.2z"/>
    <path d="M24.3 13.1V5.8c0-3.2-2.6-5.8-5.8-5.8-3.2 0-5.8 2.6-5.8 5.8v7.3c-2.7 1.9-4.5 5-4.5 8.6 0 5.7 4.6 10.4 10.4 10.4S29 27.5 29 21.7c-.2-3.6-2-6.7-4.7-8.6zm-5.8 17c-4.6 0-8.4-3.8-8.4-8.4 0-3.2 1.8-6 4.5-7.5V5.8c0-2.1 1.7-3.9 3.9-3.9s3.9 1.7 3.9 3.9v8.4c2.7 1.4 4.5 4.2 4.5 7.5 0 4.6-3.8 8.4-8.4 8.4z"/>
</svg>
