<svg id="li-toolbox" xmlns="http://www.w3.org/2000/svg" viewBox="0 0 37.9 32">
    <path d="M12.9 7.4c.1-.8.2-1.4.2-2 .2-1.4 1.2-2.5 2.7-2.5 2.1-.1 4.2-.1 6.3 0 1.4 0 2.5 1.1 2.6 2.5.1.6.2 1.2.2 1.9 1-.1 1.9-.2 2.8-.3-.1-.7-.1-1.3-.2-1.9-.4-2.8-2.3-4.8-5.1-5.1-2.5-.2-5 0-7.5 0-.5 0-1.1.2-1.5.5C10.8 1.8 10 4.2 10.1 7c1 .2 1.9.2 2.8.4zM0 15.9c2.1 0 4.1 0 6.2.1h1v1.9c0 .8.3 1 1 1h2.4c.6 0 1-.3 1-.9v-1.9h14.5v1.8c0 .8.3 1.1 1 1.1h2.4c.8 0 1-.3 1-1v-1.8h7.2v11.2c0 3-1.8 4.8-4.8 4.8H4.6c-2.5 0-3.7-1-4.8-3.8.2-4.3.2-8.4.2-12.5zm0-3.4c.3-.7.5-1.4.8-1.9.9-1.3 2.2-1.9 3.8-1.9h28.6c3.2 0 5 2.3 4.6 5.7h-7.1c0-.2 0-.5-.1-.6-.2-.3-.5-.7-.8-.7-.9-.1-1.8-.1-2.8 0-.9 0-.8.7-.9 1.4H11.7c-.3-1.4-.3-1.4-1.7-1.4H8.6c-1.3 0-1.3.1-1.5 1.4H-.1c.1-.7.1-1.3.1-2z"/>
    <path d="M12.9 7.4c-1-.1-1.9-.2-2.8-.3 0-2.8.7-5.1 3.3-6.5.5-.2 1-.5 1.5-.5 2.5-.1 5-.2 7.5 0 2.8.2 4.7 2.3 5.1 5.1.1.6.1 1.2.2 1.9-.9.1-1.8.2-2.8.3-.1-.7-.2-1.3-.2-1.9-.2-1.4-1.2-2.5-2.6-2.5-2.1-.1-4.2-.1-6.3 0-1.4 0-2.5 1.1-2.7 2.5 0 .5-.1 1.1-.2 1.9z"/>
</svg>