<svg id="li-truck" xmlns="http://www.w3.org/2000/svg" viewBox="0 0 47.5 32">
    <path d="M46.4 13.5c-2.8-2.8-5.7-5.7-8.6-8.4-.7-.6-1.8-.9-2.7-1-1.3-.2-2.7 0-4.2 0V2.5C30.9 1 30 .1 28.6.1 19.9 0 11.1 0 2.3 0c-1 0-1.9.5-2 1.4-.2 1.3-.3 15-.3 16.3h47.5V15c-.3-.5-.7-1.1-1.1-1.5zm-7 .6h-4.8c-.3 0-.9-.4-.9-.6-.1-2.2 0-4.4 0-6.5 1.3-.3 2.3-.2 3.2.8 1.8 1.9 3.8 3.6 5.7 5.4.2.2.3.4.7 1-1.6-.1-2.7-.1-3.9-.1zm8.1 10.8c-1.2 1.9-3 1.4-4.7 1.4-1.2-3.5-3.2-5.3-6.2-5.3s-5 1.7-6.3 5.3H17.9c-1-3.3-3-5.4-6.6-5.2-3.2.2-5.1 2.2-5.8 5.3H2.2C1 26.3.1 25.3 0 24c-.1-1.6 0-3.3 0-5.1h47.5v6z"/>
    <path d="M36.7 22.5c2.6 0 4.7 2.1 4.7 4.7 0 2.7-2.2 4.8-4.8 4.8-2.6 0-4.8-2.1-4.8-4.7-.1-2.8 2-4.8 4.9-4.8zm-.1 2.4c-1.2 0-2.3 1-2.3 2.3 0 1.3 1 2.3 2.3 2.3 1.2 0 2.3-1 2.3-2.3 0-1.2-1.1-2.3-2.3-2.3zm-24.8-2.4c2.6 0 4.7 2.1 4.7 4.7 0 2.7-2.1 4.8-4.8 4.8-2.8 0-4.8-2.1-4.7-4.9 0-2.7 2-4.6 4.8-4.6zm-.1 7c1.2 0 2.3-1.1 2.3-2.3 0-1.3-1-2.3-2.3-2.3-1.3 0-2.3 1-2.3 2.3 0 1.3 1.1 2.4 2.3 2.3z"/>
</svg>
