<svg xmlns="http://www.w3.org/2000/svg" viewBox="0 0 32 32">
    <path d="M10.8 27h10.4v5H10.8zM0 27h10.4v5H0zm21.6 0H32v5H21.6zM16 21.6h10.4v5H16zm-10.8 0h10.4v5H5.2zm5.6-5.4h10.4v5H10.8zM0 16.2h10.4v5H0zm21.6 0H32v5H21.6zM16 10.8h10.4v5H16zm-10.8 0h10.4v5H5.2zm5.6-5.4h10.4v5H10.8zM0 5.4h10.4v5H0zm21.6 0H32v5H21.6zM17.8.8c-.1 0-.1.1-.1.2v.7c0 .1 0 .2.1.2.2.2.8.4 1.2.3V.7c-.4-.1-1 0-1.2.1zm8.5-.5c-2.4-.6-6.2 0-7 .2-.1 0-.2.1-.2.2v1.6c0 .1.1.2.2.2.9.2 4.7.8 7 .2.4-.3.7-.6.7-1.1v-.4c0-.4-.3-.8-.7-.9zm-8.7.9c-.4 0-.8.2-1.1.5-.1.1-.2.3-.3.5-.1.2-.1.5-.3.6-.2.2-.4.2-.7.2H4.8c-.3 0-.3.4 0 .4h10.8c.5-.1.8-.4.9-.9.1-.2.2-.5.3-.6.2-.2.4-.3.7-.3v-.4z"/>
</svg>
