<svg id="li-water-heater" xmlns="http://www.w3.org/2000/svg" viewBox="0 0 30 32">
    <path d="M356.8 657.7c.1-1.3.3-2.4.5-3.1.9-3.4 3-6.2 4.6-8.4-3.1 2.8-3.8 2.8-5.7 7.6-1.4-1.5-1.9-4.2.1-7 1.7-2.5 5.6-1.8 8.7-4.9-.6 3.2 0 5.3-.1 6.9-.3 5.4-3.7 6.8-6.3 6.3-.2.8-.4 1.7-.5 2.7 1 .3 2 .9 2.6 1.9.4-.1.7-.2 1.1-.2 1.7 0 3.1 1 3.7 2.5l-5.8 4.2c-.4-1.9-2-1.8-4.3-1.9-2.1 0-2.8 0-3.9-.9l-1.8-1.4v-.1c0-1.4 1.2-2.6 2.6-2.6.4 0 .8.1 1.2.3.9-1.2 2-1.8 3.3-1.9zm-10.5 3.2c.9.7 1.8 1.3 2.7 2 3.8 2.8 4.1 2.1 8.6 2.4 1 .1 1.6 1.7 0 2.3-2.5 1-5.1 1.1-8 0-.4 0-2-1.4-2.5-.9-.5.5-.1.9.5 1.2l1.9 1c2.2.7 6.7 1.1 9.1-.6l6.9-4.7c1.3-.9 1.6-1.1 2.6-.1.6.5-.7 2-1.1 2.2l-10.2 6.8c-1.9 1.3-5.4 1.5-6.2 1l-6.3-3.2c-.8-.4-1.5-.5-2.7.3l-1.5 1c-.4.2-4.1-7.9-3.7-8l6.6-2.7c1.3-.5 2.8-.4 3.3 0zM14.7 24.7c-.8 0-1.6-.2-2.3-.5-.7-.2-1.4-.7-1.9-1.2-.6-.5-1-1.2-1.3-1.9-.3-.7-.5-1.5-.5-2.3 0-.8.2-1.5.5-2.3.3-.7.7-1.3 1.3-1.9.6-.5 1.2-1 1.9-1.2.7-.3 1.5-.5 2.3-.5.8 0 1.6.2 2.3.5.7.3 1.4.7 1.9 1.2.6.5 1 1.2 1.3 1.9.3.7.5 1.5.5 2.3 0 .8-.2 1.5-.5 2.3-.2.7-.7 1.4-1.2 1.9-.6.5-1.2 1-1.9 1.2-.8.4-1.6.5-2.4.5zm0-10.1c-1.2 0-2.3.4-3.1 1.2-.8.8-1.3 1.9-1.3 3s.5 2.2 1.3 3c.8.8 1.9 1.2 3.1 1.2 1.2 0 2.3-.4 3.1-1.2.8-.8 1.3-1.9 1.3-3s-.5-2.2-1.3-3c-.8-.7-1.9-1.2-3.1-1.2z"/>
    <path d="M15.7 20.7c0 .5-.5 1-1 1-.6 0-1-.4-1-1 0-.5.7-3.5.9-4.6 0 0 0-.1.1-.1 0 0 .1 0 .1.1.3 1.2.9 4.2.9 4.6zm-1-.3c-.2 0-.3.1-.3.3 0 .2.2.3.3.3.2 0 .3-.1.3-.3.1-.1-.1-.3-.3-.3zm-1.3-5c-.2.1-.3.3-.2.5.1.2.3.3.5.2.2-.1.3-.3.2-.5 0-.2-.3-.3-.5-.2zm-2 1.6c-.1.2 0 .4.2.5.2.1.5 0 .6-.1.1-.2 0-.4-.2-.5-.2-.1-.5-.1-.6.1zm5.9.4c.1.2.4.3.6.1.2-.1.3-.4.2-.5-.1-.2-.4-.3-.6-.1-.2.1-.3.3-.2.5zm-1.5-1.3c.2.1.5 0 .5-.2.1-.2 0-.4-.2-.5-.2-.1-.5 0-.5.2-.2.2-.1.5.2.5z"/>
    <path d="M28.3 1C24.5.4 19.8 0 15 0 10.2 0 5.5.4 1.7 1 .7 1.2 0 2 0 2.9v23.6c0 .9.7 1.7 1.7 1.8 1.8.3 3.7.5 5.7.7v3h4.3v-2.7c1.1 0 2.3.1 3.4.1s2.3 0 3.4-.1V32h4.3v-3c2-.2 3.9-.4 5.7-.7 1-.2 1.7-.9 1.7-1.8V2.9C30 2 29.3 1.2 28.3 1zm-1.1 24.9c-1.6.3-3.4.5-5.3.6-2.2.2-4.5.3-6.9.3-2.4 0-4.7-.1-6.9-.3-1.9-.1-3.7-.4-5.3-.6V3.5c1.7-.3 3.4-.5 5.3-.7 2.2-.2 4.5-.3 6.9-.3 2.4 0 4.7.1 6.9.3 1.9.1 3.7.4 5.3.6v22.5z"/>
</svg>
