<svg id="li-window-with-shutters" xmlns="http://www.w3.org/2000/svg" viewBox="0 0 32 32">
    <path d="M23.6 0H8.4v29.2H7.3v1.1h.4V32h16.6v-1.7h.4v-1.1h-1.2V0zm-1.1 1.4v26.4h-13V1.4h13z"/>
    <path d="M8 26.5V1.4H0v27.7h8v-2.6zM1.2 3.2h5.5v.6H1.2v-.6zm0 2.6h5.5v1.1H1.2V5.8zm0 3h5.5v1.1H1.2V8.8zm0 3h5.5v1.1H1.2v-1.1zm0 3h5.5v1.1H1.2v-1.1zm0 3h5.5v1.1H1.2v-1.1zm0 3h5.5v1.1H1.2v-1.1zm0 3h5.5v1.1H1.2v-1.1zm5.6 3.6H1.2v-.6h5.5v.6zM24 1.4v27.7h8V1.4h-8zm6.8 26h-5.5v-.6h5.5v.6zm-5.6-2.5v-1.1h5.5v1.1h-5.5zm0-3v-1.1h5.5v1.1h-5.5zm0-3v-1.1h5.5v1.1h-5.5zm0-3v-1.1h5.5v1.1h-5.5zm0-3v-1.1h5.5v1.1h-5.5zm0-3V8.8h5.5v1.1h-5.5zm0-3V5.8h5.5v1.1h-5.5zm0-3v-.7h5.5v.6h-5.5z"/>
</svg>
