<svg id="li-wood-floors" xmlns="http://www.w3.org/2000/svg" viewBox="0 0 32 32">
    <path d="M2.4 20.4c.2-.9.3-1.7.2-2.4L.3 25.6H1l1.4-5.2zM7.9 2.9c0-.3.1-.5.2-.9.2-.6.4-1.3.6-2H8L6.2 6.1c.3-.3.5-.7.7-1 .4-.5.7-1.4 1-2.2z"/>
    <path d="M2.5 20.5L1 25.6h1.5l1.6-6.3c.4-1.3.4-2.3 0-3.2-.2-.5-.3-1.3-.2-2.1 0-.2.1-.5.1-.7l-1.3 4.3c.1.9.1 1.9-.2 2.9zm4.3-13c1-1.2 1.8-2.8 2.1-4.1L9.7 0h-.9c-.2.8-.4 1.6-.6 2.2 0 .3-.1.6-.2.8-.2.9-.6 1.8-1 2.4 0 .1-.6.8-1 1.3l-1.3 4.2c.5-1.2 1.2-2.4 2.1-3.4zm-.6 6.8c0 .1.1.3.2.3.2 0 .4-.2.6-.4.4-.5.9-1.1 1.1-1.7.1-.4.2-.7.3-1.1l.3-1.5v-.2c.1-.4.1-.8.1-1.2h.1-.1c0-.2-.1-.3-.2-.3s-.1-.1-.2-.1c-.2.1-.4.2-.6.5-.1.2-.2.3-.2.5-.1.2-.2.4-.4.6-.2.3-.4.5-.6.7-.2.3-.4.6-.6 1-.2.3-.2.7-.1 1.1 0 .6.1 1.3.3 1.8z"/>
    <path d="M4.3 19.4l-1.6 6.2H5l1-4.7c.3-1.6 1.4-4.1 2.5-6 1.2-1.9 2-5.5 1.4-8-.2-.9-.1-2.4.1-3.3l.7-3.6h-.8l-.8 3.6C8.8 5 8 6.6 6.9 7.8 5.3 9.6 4.2 12 4 14c-.1.8 0 1.4.2 1.9.4 1 .5 2.2.1 3.5zm1.6-8.2c.2-.4.4-.7.7-1 .2-.2.4-.5.5-.7l.3-.6c.1-.2.1-.3.2-.5.3-.5.7-.6 1-.5.3.1.4.3.4.6 0 .5 0 1-.1 1.4v.2l-.3 1.5-.3 1.2c-.3.6-.7 1.2-1.2 1.8-.2.3-.5.4-.6.4h-.1c-.2 0-.3-.3-.3-.5-.2-.6-.3-1.3-.3-2-.1-.4-.1-.9.1-1.3z"/>
    <path d="M10 6.7c.7 2.6-.2 6.3-1.4 8.3-1.1 1.9-2.1 4.3-2.5 5.9l-1 4.6h2.2l.7-4.1c.3-2 1-3.8 2.2-6.1 1.2-2.1 1.6-5.4 1-7.7-.2-.8-.3-2.4-.1-3.8l.7-3.8h-.9l-.7 3.8c-.3.8-.3 2.2-.2 2.9z"/>
    <path d="M11.4 7.5c.6 2.4.1 5.8-1.1 8-1.2 2.2-1.9 4-2.2 5.9l-.7 4.1h2.9L13 0h-1.1l-.6 3.9c-.2 1.3-.1 2.8.1 3.6zm4.3-2c0 .2.1.3.1.3.1 0 .2-.2.2-.3.5-1.5 1-3.5.7-5.4V0h-1.4v1.1c0 .5 0 1 .1 1.5.1.9.2 1.9.3 2.9zm-2.8.3l-1.2 12c1-1.3 1.7-3.6 1.9-6.1.1-2.2-.2-4.4-.7-5.9zm-1.6 15.1l-.5 4.6h1.7l.4-6.2c-.3.6-1 1.2-1.6 1.6z"/>
    <path d="M12.9 5.4c.6 1.5.9 3.9.8 6.4-.2 2.7-.9 5.1-2.1 6.5l-.2 2.3c.9-.7 1.5-1.3 1.7-1.7l.2-.4-.4 7.1h1.7l.5-16.1c0-.9-.2-1.7-.4-2.5-.1-.6-.3-1.1-.3-1.6-.1-1.1-.1-3 .1-5.3h-.7l-.9 5.3z"/>
    <path d="M14.6 6.8c.2.8.4 1.6.4 2.6l-.5 16.1h1.7l-.1-14.4c0-1 .1-3.1.9-5 1-2 1-4.1.8-6.1h-.9c.3 2-.2 4-.7 5.6-.1.3-.2.5-.4.5h-.1c-.1 0-.2-.2-.3-.6-.1-1-.2-1.9-.3-2.9 0-.5-.1-1-.1-1.5V0h-.7c-.1 2.3-.2 4.2-.1 5.3.2.5.3 1 .4 1.5z"/>
    <path d="M17.3 6.3c-.8 1.8-.9 3.8-.9 4.8l.1 14.4h1.4l-.5-13.3c0-1 .1-2.9.5-3.8.6-1.4.9-2.8 1.1-4.1L18.5 0h-.6c.2 2.1.3 4.2-.6 6.3z"/>
    <path d="M19 5.1c-.2 1.1-.5 2.3-1 3.5-.4.9-.5 2.6-.4 3.6l.5 13.4h1.4l-.8-11c-.2-2.7.3-4.3.6-5.5l-.3-4z"/>
    <path d="M21.1 25.6l-1.6-16c-.4 1.1-.7 2.6-.5 5l.8 11h1.3zm3.3-5.9c-.3 1.8-.1 3.9.7 5.8h1.3c.1-2-.6-3.8-2-5.8zm3.2-5.3c.4 1.4.6 2.2 1.2 3.4.5 1 1 1.9 1.4 2.8L26.8 9.2c.1 1.3.2 2.8.5 3.9.1.5.2.9.3 1.3zm-6.4-.6l-.4-2.9c-.2-1.2-.6-3-1.2-4.5l1.3 12.3c0-.1 0-.2.1-.3.5-2 .3-3.6.2-4.6zm-.3-12.5c0 .1.1.3.1.4.1.3.2.6.2.9.2.7.3 1.4.5 2.1 0 .2.1.4.2.3v-.1c.4-.7.4-1.6.2-2.6 0-.1-.1-.3-.1-.4-.1-.2-.1-.4-.1-.6 0-.1 0-.2-.1-.4 0-.1 0-.3-.1-.4 0-.2-.1-.5-.2-.7h-1.1c0 .3.1.7.2 1 .3.3.3.4.3.5z"/>
    <path d="M22.1 9.5l.8 4.8c.2 1 .2 2.9-.1 4-.7 2.5-.3 5.6.5 7.3h1.6c-.8-2.1-1-4.3-.6-6.1v-.2l.1.1c1.5 2 2.2 4 2.2 6.2h1.3c.1-2.1-.4-3.8-1.4-5.6-.6-1-1.7-3.3-2-4.6l-.6-3.1c-.3-1.4-.3-3.1-.2-4.9.2-1.8-.5-5.4-1.2-7.4h-.6c.1.2.1.4.2.6 0 .1.1.3.1.4 0 .1 0 .2.1.3 0 .2.1.4.1.6 0 .1.1.3.1.4.3 1.1.2 2.2-.2 2.9l-.1.1h-.1c-.2 0-.3-.3-.4-.5-.2-.7-.3-1.4-.5-2.1-.1-.3-.1-.6-.2-.9 0-.1-.1-.3-.1-.4 0-.1-.1-.3-.1-.4-.1-.4-.2-.7-.3-1.1h-.8c.3 2.1 1 4.6 1.4 5.7.4 1.3.8 2.7 1 3.9z"/>
    <path d="M19.6 5.5c.6 1.7 1.2 3.8 1.4 5.2l.4 2.9c.1 1.1.3 2.8-.2 4.8-.1.4-.2.6-.2.8l.6 6.3h1.5c-.8-1.8-1.2-4.9-.5-7.4.3-1.1.3-2.8.1-3.8l-.8-4.8c-.2-1.1-.6-2.5-1-3.7-.4-1.1-1.1-3.8-1.4-5.9H19l.6 5.6zm4.3 1.9c-.2 1.7-.1 3.5.2 4.8l.6 3.1c.2 1.2 1.3 3.5 1.9 4.5 1.1 1.8 1.5 3.6 1.5 5.8h1.6c-.3-3.2-1.5-5.6-2.8-7.9-.7-1.2-1.1-3.4-1.4-4.7-.1-.3-.1-.6-.2-.8-.1-.6-.4-1.8-.3-4.1.2-2.1-.6-5.6-1.4-8.1h-.9c.7 2.1 1.4 5.6 1.2 7.4z"/>
    <path d="M25.3 8.1c-.1 2.2.2 3.4.3 3.9 0 .2.1.4.2.8.3 1.3.7 3.4 1.3 4.5 1.3 2.3 2.5 4.8 2.8 8.1h1.4c-.1-2.7-1.1-4.9-2.6-7.5-.7-1.2-.9-2.1-1.3-3.5-.1-.4-.2-.8-.4-1.3-.3-1.2-.4-2.8-.5-4.1v-.7L24 0h-.2c.4 1.4 1.6 5.5 1.5 8.1zm6.5 17.5l-.5-1.5c.1.5.1 1 .2 1.5h.3zm-9.3 3.6c0-.3-.1-.5-.3-.5h-1.1v-2.2H10.8v1.3h.6c.5 0 .8.7.8 1.5 0 .5-.1.9-.3 1.1 0 .1-.1.1-.1.1-.1.1-.2.2-.4.2h-.6V32h10.3v-2.2h1.1c.2 0 .3-.3.3-.6z"/>
    <path d="M11.7 29.2c0-.3-.1-.5-.3-.5h-1.1v-2.2H0V32h10.3v-2.2h1.1c.1 0 .3-.2.3-.6zm9.9-2.7v1.3h.6c.4 0 .8.6.8 1.5 0 .8-.3 1.5-.8 1.5h-.6V32H32v-5.5H21.6z"/>
</svg>
