<svg id="li-wood-floor-install" xmlns="http://www.w3.org/2000/svg" viewBox="0 0 32 32">
    <path d="M5.1 4c1.2 1.9 1.3 4.5.4 7.8-.8 2.7-.3 4.9.7 7.6V0H3.8c.1 1.4.6 2.8 1.3 4z"/>
    <path d="M3.8 5.2c-.3 0-.8 1.2-.8 3.2s.4 3.3.8 3.3c.3 0 .8-1.2.8-3.3 0-2-.5-3.2-.8-3.2z"/>
    <path d="M5.3 11.8c1-3.2.9-5.8-.3-7.7C4.2 2.9 3.7 1.5 3.6 0H2.2c.4 2.8.1 3.8-.1 5-.2.9-.4 1.8-.4 3.5-.1 3.8 2.8 11.6 4.5 16.2V20c-1.1-2.9-1.7-5.3-.9-8.2zm-1.5.1c-.6 0-1-1.8-1-3.4S3.2 5 3.8 5s1 1.8 1 3.5-.4 3.4-1 3.4z"/>
    <path d="M1.9 5c.2-1.2.4-2.2.1-5h-.8c0 1.3-.1 2.5-.3 3.5C.1 6.7.1 10.7.9 15c.4 2.4 1.8 5.6 3.2 8.7.8 1.7 1.5 3.5 2.1 5.1v-3.6C4.5 20.7 1.4 12.5 1.5 8.4c.1-1.6.2-2.6.4-3.4zm.6 23.4c-.4 0-.9 1.5-.9 3.6h1.9c-.1-2.1-.6-3.6-1-3.6zM0 23.1V32h.4c0-.4.1-.8.2-1.3.3-2 .1-4.8-.6-7.6z"/>
    <path d="M1.7 22.6C1 21 .4 19.6 0 18.2v4c.9 3.1 1.1 6.2.7 8.5-.1.4-.1.8-.2 1.2h.8c0-1.8.4-3.7 1.1-3.7.7 0 1.1 1.9 1.1 3.7h1c0-.2 0-.5-.1-.7-.3-2.9-1.6-5.9-2.7-8.6z"/>
    <path d="M.7 15.1c-.8-4.3-.8-8.4 0-11.6.3-1 .4-2.2.3-3.5H0v17.5c.4 1.5 1.1 3.2 1.9 5 1.1 2.7 2.4 5.7 2.9 8.7 0 .3.1.5.1.8h1.4v-2.6c-.6-1.7-1.5-3.7-2.3-5.6-1.4-3.1-2.8-6.3-3.3-8.7zM12.1 2.2c0 1.9.4 3.7 1.1 4.6V0h-.9c-.1.7-.2 1.5-.2 2.2z"/>
    <path d="M12.1 0H11c.1 1.4 0 2.9-.1 4-.2 2.1 1 3.9 2.3 5.4V7.2c-.8-.9-1.3-2.8-1.3-4.9 0-.8.1-1.6.2-2.3zM10 9.4c-.3-.3-.5-.5-.7-.5h-.1c-.1 0-.1.1-.2.2 0 .2-.1.4-.1.6 0 .5.1 1.2.3 1.9.2.7.5 1.3.8 1.7.3.4.6.6.7.5.2-.1.3-.4.3-.8 0-.5-.1-1.2-.3-1.9-.1-.6-.4-1.2-.7-1.7z"/>
    <path d="M9.1 15.5C7.1 11.1 7 9.1 7.6 6c.4-2 .5-4.2.2-6H7v13.6c.2.6.4 1.3.6 2.1.9 2.8 2.1 6.7 1.8 11-.1 1.9-.3 3.7-.7 5.3h1.4c.9-5 .8-12.4-1-16.5zm-2.1 4V32c.5-1.7.8-3.9.8-6.1 0-2.4-.3-4.7-.8-6.4z"/>
    <path d="M7.4 15.8c-.2-.5-.3-1-.4-1.4v4.5c.7 1.9 1.1 4.4 1.1 7 0 2.2-.3 4.4-.8 6.1h1.3c.3-1.6.6-3.4.7-5.3.2-4.3-1-8.1-1.9-10.9z"/>
    <path d="M12.1 20.1c-.3-2-.1-3.6 0-5 .2-1.5.3-2.8-.2-4.2-.2-.5-.4-.9-.6-1.3-.2-.4-.4-.7-.6-1-1.1-1.5-1.5-3.2-1.3-5.2.1-.9 0-2.2-.2-3.4H8c.3 1.9.2 4-.2 6.1-.6 3-.5 5 1.5 9.4 1.8 4.1 1.9 11.5 1.1 16.6h1.2c1.1-5.6.7-9.9.5-12zm-1.3-6h-.1c-.3 0-.5-.2-.8-.6-.4-.5-.7-1.1-.9-1.8-.2-.7-.3-1.4-.3-2 0-.6.2-.9.5-1h.1c.3 0 .5.2.8.6.3.5.6 1.1.8 1.8.2.7.3 1.4.3 1.9.1.6-.1 1-.4 1.1z"/>
    <path d="M10.7 4c.2-1.5.2-2.9.1-4H9.4c.2 1.2.3 2.5.2 3.4-.2 1.9.2 3.6 1.2 5.1.2.3.4.6.6 1 .2.4.4.8.6 1.3.5 1.4.3 2.7.2 4.3-.1 1.4-.3 3 0 5 .3 2.1.6 6.5-.4 12h1.4V9.7c-1.4-1.6-2.8-3.5-2.5-5.7zm10.2 3.1V3.3c0-.1-.1-.2-.2-.2H15v-.2c0-.2-.3-.4-.5-.4s-.3.1-.4.2c-.1.1-.1.2-.1.3v4.5c0 .1 0 .2.1.3.1.1.3.2.4.2.3 0 .5-.2.5-.4v-.2h5.7c0-.1.2-.2.2-.3zm4.7 10.7c-.5-.7-.6-1.5-.6-2.2 0-.6.4-.9.9-1.1 0-.2-.1-.4-.2-.6l-.7-1.6c-.2-.4-.3-.9-.3-1.4V7.3h-2.2v3.6c0 .5-.1 1-.3 1.4l-.8 1.6c-.2.4-.3.8-.3 1.2v2.7h4.5zm-4.4 7.9V28s0 .1.1.1H26c.1 0 .1 0 .1-.1v-2.3h-4.9zm3.9-18.9h.3c.2 0 .4-.2.4-.4V3.9c0-.2-.2-.4-.4-.4h-4.2v3.4h3.9z"/>
    <path d="M29.5 19.7l-.1-.3c-.2-1.1-.6-1.3-1.2-1.7-.6-.4-1.4-.9-1.4-2.2 0-.3-.3-.4-.6-.4s-.6.1-.6.4c0 1.8.5 2 1.7 2.9h-6.2c-.5 0-.8.4-.8.7v.6h2v.3h-2v1.5h2v.3h-2v1.5h2v.3h-2v.6c0 .4.3.7.8.7h7.2c.5 0 1-.6 1-.9v-.3H32v-4.1h-2.5z"/>
</svg>
