<svg li="li-wrench-toolbox" xmlns="http://www.w3.org/2000/svg" viewBox="0 0 41.4 32">
    <path d="M1.9 14.2h37.6v16.2c0 1.1-.5 1.6-1.6 1.6H3.3c-1 0-1.5-.5-1.5-1.5V14.8c.1-.2.1-.4.1-.6zm13.8 7.2h-.6c-1.1-2.6-3.5-3.6-5.6-3.3-1.6.2-3.3 1.5-3.6 2.8h3.8c.3 0 .5.1.6.3.3.6.6 1.1.9 1.7.1.1.1.4 0 .5l-.9 1.5c-.2.4-.4.5-.8.5H5.8v.2c.2.1.2.2.3.3 1.2 1.6 2.8 2.4 4.8 2.2 1.9-.2 3.3-1.2 4.1-2.9.2-.3.3-.4.7-.4h10.6c1.1 2.7 3.5 3.6 5.6 3.3 1.7-.3 3.5-1.6 3.6-2.8h-3.8c-.2 0-.5-.2-.6-.3-.3-.5-.7-1.1-.9-1.6-.1-.2-.1-.4 0-.6.3-.6.6-1.1.9-1.6.1-.3.3-.4.6-.3h3.9c-.1-.3-.2-.4-.3-.6-1.2-1.6-2.7-2.4-4.7-2.2-1.9.2-3.3 1.2-4.1 2.9-.2.3-.3.4-.7.4H15.7zm25.7-8.3H0v-5c0-1 .5-1.5 1.5-1.5h38.4c.9 0 1.5.5 1.5 1.5v5zM28.2 5.4h-2.7V4.1c0-.9-.5-1.4-1.4-1.4h-7c-.9 0-1.4.5-1.4 1.4v1.3h-2.6c-.1-1.9.2-3.6 1.9-4.8.6-.4 1.3-.6 2-.6h7.3c2.1 0 3.9 1.8 3.9 3.9.1.5 0 1 0 1.5z"/>
</svg>