<svg id="li-wrench-hammer-toolbox" xmlns="http://www.w3.org/2000/svg" viewBox="0 0 35.9 32">
    <path d="M32 9c.8.8 1.5 1.5 2.2 2.3.5.5.4 1.1 0 1.6l-3 3c-.4.4-1.1.5-1.5.1-.8-.7-1.5-1.5-2.3-2.3.4-.8.3-1.2-.1-1.6-.4-.3-.7-.4-1.2-.1-.2.1-.4.3-.6.5-1.2 1.2-2.4 2.4-3.7 3.6-.1.1-.2.3-.3.4-1.4-1.2-2.8-2.3-4.1-3.5l.3-.3 4-4c.5-.5.9-1.1.8-1.8-.1-1-.7-1.6-1.5-2-.5-.3-1.1-.5-1.6-.7-.1-.2-.4-.3-.3-.6 0-.2.2-.4.3-.5 2.3-.8 4.4-.6 6.3 1.1.4.4.9.6 1.4.6.5 0 .9.2 1.2.5.4.4.8.9 1.2 1.2.5.4.5 1 .6 1.5.2 1.2.9 1.6 1.9 1z"/>
    <path d="M32 1.3v5c-.5 0-.9.1-1.3-.4-.5-.6-1.1-1.2-1.7-1.7-.5-.5-1.1-.6-1.8-.7-.2 0-.5-.1-.7-.3-2.3-2-4.9-2.3-7.7-1.3-.7.2-1.1 1-1 1.8 0 .7.6 1.4 1.4 1.6.9.2 1.4.5 1.9 1h-3.8c-.2 0-.4-.1-.5-.3-1.5-2.7-3.9-4.3-6.9-4.8h-.3c7.4.1 14.9.1 22.4.1zm-23.4 5H3.9v-5h4.5c-1.2.4-1.8 1.2-1.7 2.3.1.4.3.9.5 1.3.3.4.8.7 1.1 1.1l.3.3zM0 0v9.4h.1c.2-.4.4-.8.9-1 .4-.3 1-.4 1.5-.6V0H0z"/>
    <path d="M35.9 12.9v-.2h-.1c-.2.4-.4.8-.7 1.1l-1.5 1.5c-.1.1-.2.4-.2.5v3.3H23.2c-1.6-1.4-4.9-4.1-6.4-5.3-.7-.5-.9-1.1-.7-2 .2-.8.3-1.5.3-2.3.1-1.6-.5-3-1.5-4.2-1.6-1.8-3.5-2.7-5.9-2.8-.5 0-1 .4-.9.9 0 .3.2.6.4.9 1 1 1.9 2 2.9 2.9.2.2.3.4.2.6-.4 1.1-.8 2.2-1.1 3.3-.1.2-.2.4-.4.4-1.1.4-2.2.7-3.3 1.1-.3.1-.5 0-.7-.2l-3-3c-.4-.2-.8-.3-1.3-.1-.4.2-.6.5-.6 1 .1 2.3 1 4.2 2.7 5.7 1.1 1 2.3 1.6 3.8 1.5.8 0 1.7-.2 2.5-.3.8-.1 1.6-.2 2.1.6 0 0 .4.6.9 1.4H2.4v-2.5c0-.2-.1-.4-.2-.5C1.1 14.9.4 13.5 0 11.9v17.6C0 30.8 1.2 32 2.6 32h30.6c1.4 0 2.7-1.2 2.6-2.6 0-5.5.1-11 .1-16.5zm-.1-1.9V0h-2.5v8.3c0 .1.1.3.2.4.5.5 1 .9 1.4 1.4.2.3.5.6.6.8h.3z"/>
</svg>
