<svg id="li-wrench-hand" xmlns="http://www.w3.org/2000/svg" viewBox="0 0 30.6 32">
    <path d="M351.4 656.3c.1-1.3.3-2.4.5-3.1.9-3.4 3-6.2 4.6-8.4-3.1 2.8-3.8 2.8-5.7 7.6-1.4-1.5-1.9-4.2.1-7 1.7-2.5 5.6-1.8 8.7-4.9-.6 3.2 0 5.3-.1 6.9-.3 5.4-3.7 6.8-6.3 6.3-.2.8-.4 1.7-.5 2.7 1 .3 2 .9 2.6 1.9.4-.1.7-.2 1.1-.2 1.7 0 3.1 1 3.7 2.5l-5.8 4.2c-.4-1.9-2-1.8-4.3-1.9-2.1 0-2.8 0-3.9-.9l-1.8-1.4v-.1c0-1.4 1.2-2.6 2.6-2.6.4 0 .8.1 1.2.3.9-1.1 2.1-1.7 3.3-1.9zm-10.5 3.3c.9.7 1.8 1.3 2.7 2 3.8 2.8 4.1 2.1 8.6 2.4 1 .1 1.6 1.7 0 2.3-2.5 1-5.1 1.1-8 0-.4 0-2-1.4-2.5-.9-.5.5-.1.9.5 1.2l1.9 1c2.2.7 6.7 1.1 9.1-.6l6.9-4.7c1.3-.9 1.6-1.1 2.6-.1.6.5-.7 2-1.1 2.2l-10.2 6.8c-1.9 1.3-5.4 1.5-6.2 1l-6.3-3.2c-.8-.4-1.5-.5-2.7.3l-1.5 1c-.4.2-4.1-7.9-3.7-8l6.6-2.7c1.4-.5 2.8-.4 3.3 0zM17 14.8c.1 1.8.8 2.6 2.8 3.2.2 1.9.6 2.4 2.4 3.1-.1 1.5.5 2.6 2 3.1 1.4.5 2.4-.3 3.1-1.2.9.8 2 1.6 2.7 2.5 1 1.2.8 3-.4 4.1-1.1 1.1-3 1.2-4.2.1-2.8-2.7-5.5-5.5-8.1-8.2.2-.7.5-1.4.6-2 .1-1.5-.8-2.6-2.2-2.9-1.2-.3-2.4-.4-3.5-.7-.4-.1-.7-.3-1.1-.5-.2-.1-.4-.3-.5-.5-1-1.2-2.3-1.6-3.9-1.6C2.3 13.5-1 9.2.3 5c0-.1.1-.2.2-.5l3 3 .6.6c.7.8 1 .9 2.1.2s2-1.6 2.5-2.9c.2-.4.1-.8-.3-1.2C7.1 3 5.9 1.7 4.5.4c1.7-.6 3.2-.5 4.7 0 2.6 1 4.4 3.5 4.3 6.4 0 1.2.2 2.2.9 3.1.1.1.1.4.1.6-.9 2.4-.1 3.8 2.5 4.3zm11.6 12.4c0-.7-.6-1.3-1.3-1.3-.7 0-1.3.6-1.3 1.3 0 .7.5 1.2 1.2 1.3.8 0 1.3-.5 1.4-1.3z"/>
    <path d="M21.6 28c-1.9 1.3-4.2 1.8-5.2 4-1.7-1.2-3.4-2.3-5-3.4-.2-.1-.2-.4-.2-.6l.6-5.1c0-.4.3-.7.7-.6 1.1.1 2.2.2 3.3.4.4.1.8.2 1.1.5 1.6 1.5 3.1 3.1 4.7 4.8z"/>
    <path d="M9.8 27.5c-1-.7-1.9-1.3-2.7-2-.6-.5-.8-1.1-.8-1.9.2-1.8.4-3.6.6-5.3.1-.9 1-1.6 2-1.4 2.2.4 4.3.7 6.5 1.2.9.2 1.3.8 1.2 1.7-.1.8-.7 1.4-1.6 1.3-.8 0-1.7-.1-2.5-.2-1.3-.1-2 .5-2.1 1.8-.2 1.4-.3 2.7-.5 4.1 0 .2 0 .4-.1.7zM17 13.6c-1.3-.1-2-1.3-1.4-2.4.6-1 1.3-2 1.9-2.9.5-.7 1.4-.8 2-.4.7.4 1 1.3.5 2.1-.6 1-1.3 2-2 3-.2.2-.7.4-1 .6zm5.8 6.2c-1.4 0-2.1-1.2-1.6-2.2.6-1 1.3-2 2-3 .5-.6 1.3-.7 2-.2.6.4.9 1.3.5 1.9-.6 1-1.3 2-2 2.9-.3.3-.7.4-.9.6zm-2.7-3.1c-1.4 0-2.2-1.3-1.6-2.3.6-1.1 1.3-2.1 2.1-3.2.5-.7 1.4-.7 2.1-.3.6.5.9 1.4.5 2.1-.6 1.1-1.3 2.1-2 3.1-.4.3-.9.5-1.1.6zm5 6.4c-1.3 0-2-1.1-1.4-2.1.5-.9 1.1-1.8 1.8-2.7.4-.6 1.2-.7 1.8-.3.6.4.8 1.2.4 1.8-.6.9-1.1 1.8-1.8 2.7-.2.4-.6.5-.8.6z"/>
</svg>
