<svg id="li-wrench-screwdriver" xmlns="http://www.w3.org/2000/svg" viewBox="0 0 32.1 32">
    <path d="M352.8 656.8c.1-1.3.3-2.4.5-3.1.9-3.4 3-6.2 4.6-8.4-3.1 2.8-3.8 2.8-5.7 7.6-1.4-1.5-1.9-4.2.1-7 1.7-2.5 5.6-1.8 8.7-4.9-.6 3.2 0 5.3-.1 6.9-.3 5.4-3.7 6.8-6.3 6.3-.2.8-.4 1.7-.5 2.7 1 .3 2 .9 2.6 1.9.4-.1.7-.2 1.1-.2 1.7 0 3.1 1 3.7 2.5l-5.8 4.2c-.4-1.9-2-1.8-4.3-1.9-2.1 0-2.8 0-3.9-.9l-1.8-1.4v-.1c0-1.4 1.2-2.6 2.6-2.6.4 0 .8.1 1.2.3.9-1.2 2-1.8 3.3-1.9zm-10.5 3.2c.9.7 1.8 1.3 2.7 2 3.8 2.8 4.1 2.1 8.6 2.4 1 .1 1.6 1.7 0 2.3-2.5 1-5.1 1.1-8 0-.4 0-2-1.4-2.5-.9-.5.5-.1.9.5 1.2l1.9 1c2.2.7 6.7 1.1 9.1-.6l6.9-4.7c1.3-.9 1.6-1.1 2.6-.1.6.5-.7 2-1.1 2.2l-10.2 6.8c-1.9 1.3-5.4 1.5-6.2 1l-6.3-3.2c-.8-.4-1.5-.5-2.7.3l-1.5 1c-.4.2-4.1-7.9-3.7-8l6.6-2.7c1.3-.5 2.8-.4 3.3 0zM32.1 5c-2.4 2.5-4.8 4.9-7.2 7.4l-.6.6c-.5.5-1 .9-1.8 1-1.5.1-2.7 1.5-2.8 3.2 0 .5-.2.8-.5 1.2-.5.4-.9.9-1.4 1.4-.6-.6-1.1-1.2-1.5-1.6l-3.3 3c-1.7 1.7-3.4 3.5-5.1 5.3-.2.2-.6.4-.2.7 0 0 0 .2-.1.3-.6.6-1.2 1.4-1.9 1.9-1.1.9-2.4 1.6-3.5 2.4h-.1c-.2-.2-.4-.5-.7-.8.8-1.5 1.7-3 2.6-4.4.4-.6 1-1.3 1.6-1.4 1.2-.2 1.6-1.2 2.3-1.8 2.3-2.2 4.5-4.6 6.8-6.9-.6-.6-1.1-1.2-1.9-2 .7-.6 1.3-1.1 2-1.7.1-.1.4-.2.6-.2 1.9-.1 3.2-1.5 3.3-3.4 0-.2.1-.5.2-.7 2.7-2.9 5.5-5.7 8.2-8.5 0 0 .1-.1 0 0 1.7 1.6 3.3 3.2 5 4.8V5z"/>
    <path d="M27.2 32c-1.1-.2-1.9-.9-2.7-1.7-3-3.2-6.1-6.3-9.1-9.4-.2-.2-.3-.4-.5-.6.4-.4.7-.8 1.1-1.1l1.7 1.7c.9-.9 1.9-1.7 2.7-2.6.3-.3.2-.9.3-1.2.9.9 2 1.8 3 2.7 2 2.1 4 4.2 6.1 6.2 2 1.9 1.1 5.5-1.8 5.9l-.1.1h-.7zM5.1.6c3.8-1.1 8 1.6 8.6 5.5.1.9 0 1.9 0 2.8 0 .3.1.7.3.8.6.6 1.2 1.1 1.9 1.7l-.2.2-.1.1c-1-.2-1.5.5-2.1 1.1-.6.6-1.2 1.1-1.9 1.7.7.7 1.3 1.3 1.9 2-.4.4-.7.8-1 1-1-.9-2-1.8-2.9-2.8-.3-.3-.6-.5-1.1-.3-4.9 1.1-9-3.1-8.4-7.9 0-.3.1-.5.2-.9.4.6.9 1 1.3 1.4.7.8 1.5 1.5 2.2 2.3.2.3.4.4.8.3 1-.3 1.9-.5 2.9-.8.3-.1.5-.4.6-.6.3-1 .6-2 .8-3 .1-.3-.1-.7-.3-.9C7.5 3.1 6.3 1.9 5.1.6z"/>
</svg>
