<svg id="li-wrench-motion" xmlns="http://www.w3.org/2000/svg" viewBox="0 0 29.1 32">
    <path d="M29.1 16c0-8-6.5-14.5-14.5-14.5h-2.2V0L7.2 3.3l5.1 3.3V5.1h2.2c6 0 10.9 4.9 10.9 10.9 0 3.4-1.6 6.5-4 8.5l3.2 2c2.8-2.7 4.5-6.4 4.5-10.5z"/>
    <path d="M16.7 32l5.1-3.3-5.1-3.3v1.5h-2.2c-2.1 0-4.1-.6-5.8-1.7l5.6-5.3c1.3.8 3.4.4 4.6-.8l.5-.5c1.4-1.4 1.9-4.1.6-5.5l-3 3-2.5-2.5 3-3c-1.4-1.3-4.1-.8-5.5.6l-.5.5c-1.2 1.2-1.6 3.2-.8 4.6l-5.6 5.2c-1-1.7-1.6-3.6-1.6-5.7 0-3.4 1.6-6.5 4-8.5l-3.2-2C1.7 8.2 0 11.9 0 16c0 8 6.5 14.5 14.5 14.5h2.2V32z"/>
</svg>
